<svg xmlns="http://www.w3.org/2000/svg" xmlns:xlink="http://www.w3.org/1999/xlink" viewBox="0 0 380 90" width="380" height="90" role="img" aria-labelledby="telt teld"><title id="telt">Look through a real telescope · Cosmic Library</title><desc id="teld">Button: Look through a real telescope (free, from your laptop). The icon shows a small telescope on a tripod nods up toward a twinkling star.</desc><style>*{transform-origin:0 0}.sans{font-family:"Segoe UI", -apple-system, BlinkMacSystemFont, "Helvetica Neue", Arial, sans-serif}.mono{font-family:ui-monospace, SFMono-Regular, Menlo, Consolas, monospace}.serif{font-family:Georgia, "Times New Roman", Times, serif}@keyframes tb{0%{transform:rotate(-38deg)}45%{transform:rotate(-26deg)}60%{transform:rotate(-26deg)}100%{transform:rotate(-38deg)}}.tb{animation:tb 5s ease-in-out infinite}@keyframes ts{0%{transform:scale(.6);opacity:.5}40%{transform:scale(.6);opacity:.5}52%{transform:scale(1.35);opacity:1}66%{transform:scale(1);opacity:.9}100%{transform:scale(.6);opacity:.5}}.ts{animation:ts 5s ease-out infinite}@keyframes sw{0%{transform:translateX(-160px)}62%{transform:translateX(-160px)}100%{transform:translateX(420px)}}.sw{animation:sw 6s cubic-bezier(.5,0,.3,1) infinite}@keyframes nu{0%{transform:translateX(0)}50%{transform:translateX(4px)}100%{transform:translateX(0)}}.nu{animation:nu 1.8s ease-in-out infinite}@keyframes rg{0%{transform:rotate(0)}100%{transform:rotate(360deg)}}.rg{animation:rg 24s linear infinite}@media (prefers-reduced-motion:reduce){*{animation:none!important}.rm-hide{display:none}}</style><defs><clipPath id="cc"><rect x="3" y="3" width="374" height="79" rx="18"/></clipPath><linearGradient id="bg" x1="0" y1="0" x2="0" y2="1"><stop offset="0" stop-color="#101631"/><stop offset="1" stop-color="#060813"/></linearGradient><radialGradient id="gl" gradientUnits="userSpaceOnUse" cx="43" cy="42.5" r="171"><stop offset="0" stop-color="#b18cff" stop-opacity=".24"/><stop offset="1" stop-color="#b18cff" stop-opacity="0"/></radialGradient><linearGradient id="bd" x1="0" y1="0" x2="1" y2="1"><stop offset="0" stop-color="#b18cff" stop-opacity=".95"/><stop offset=".55" stop-color="#b18cff" stop-opacity=".35"/><stop offset="1" stop-color="#b18cff" stop-opacity=".7"/></linearGradient><linearGradient id="sh" x1="0" y1="0" x2="1" y2="0"><stop offset="0" stop-color="#fff" stop-opacity="0"/><stop offset=".5" stop-color="#fff" stop-opacity=".11"/><stop offset="1" stop-color="#fff" stop-opacity="0"/></linearGradient></defs><rect x="3" y="8" width="374" height="79" rx="18" fill="#04050a"/><rect x="3" y="8" width="374" height="79" rx="18" fill="#b18cff" fill-opacity=".4"/><g clip-path="url(#cc)"><rect x="3" y="3" width="374" height="79" fill="url(#bg)"/><rect x="3" y="3" width="374" height="79" fill="url(#gl)"/><g class="sw rm-hide" style="transform:translateX(-160px)"><path d="M35.6 3H105.6L70 82H0Z" fill="url(#sh)"/></g><path d="M21 4.2H359" stroke="#fff" stroke-opacity=".14"/></g><rect x="3.9" y="3.9" width="372.2" height="77.2" rx="17.1" fill="none" stroke="url(#bd)" stroke-width="1.8"/><g transform="translate(43 42.5)"><circle r="28" fill="#04050a" fill-opacity=".55"/><circle r="28" fill="#b18cff" fill-opacity=".1" stroke="#b18cff" stroke-opacity=".45" stroke-width="1.4"/><g class="rg"><circle r="32" fill="none" stroke="#b18cff" stroke-opacity=".4" stroke-dasharray="2 7" stroke-width="1.2"/></g><g transform="scale(0.74)"><g stroke="#c9d0ea" stroke-width="2.2" stroke-linecap="round"><path d="M-2 4L-13 26M-2 4L9 26M-2 4V27"/></g><circle cx="-2" cy="4" r="3" fill="#8f98bd"/><g transform="translate(-2 4)"><g class="tb" style="transform:rotate(-32deg)"><rect x="-5" y="-27" width="10" height="34" rx="2" fill="#e6e9f7"/><rect x="-6.5" y="-31" width="13" height="7" rx="2" fill="#b18cff"/><rect x="-5" y="-9" width="10" height="3" fill="#8f98bd"/><rect x="-2" y="7" width="4" height="5" rx="1" fill="#8f98bd"/></g></g><g transform="translate(19 -22)"><g class="ts"><path d="M0 -7L1.5 -1.5L7 0L1.5 1.5L0 7L-1.5 1.5L-7 0L-1.5 -1.5Z" fill="#fff6d8"/><circle r="6" fill="#b18cff" opacity=".25"/></g></g></g></g><text x="82" y="39" class="sans" font-size="16.5" font-weight="700" letter-spacing="-.2" fill="#e9edff">Look through a real telescope</text><text x="82" y="61" class="sans" font-size="13" fill="#c3cae6" fill-opacity=".85">free, from your laptop</text><g transform="translate(356 42.5)"><circle r="12" fill="#b18cff" fill-opacity=".16" stroke="#b18cff" stroke-opacity=".7" stroke-width="1.4"/><g class="nu"><path d="M-4.6 0H4.6M1 -3.6L4.8 0L1 3.6" fill="none" stroke="#b18cff" stroke-width="1.8" stroke-linecap="round" stroke-linejoin="round"/></g></g></svg>
