<svg xmlns="http://www.w3.org/2000/svg" xmlns:xlink="http://www.w3.org/1999/xlink" viewBox="0 0 560 120" width="560" height="120" role="img" aria-labelledby="skyt skyd"><title id="skyt">What's in the sky tonight? · Cosmic Library</title><desc id="skyd">Button: What's in the sky tonight? (for your location). The icon shows a crescent Moon and a constellation drawing itself above a bobbing location pin.</desc><style>*{transform-origin:0 0}.sans{font-family:"Segoe UI", -apple-system, BlinkMacSystemFont, "Helvetica Neue", Arial, sans-serif}.mono{font-family:ui-monospace, SFMono-Regular, Menlo, Consolas, monospace}.serif{font-family:Georgia, "Times New Roman", Times, serif}@keyframes cn{0%{stroke-dashoffset:1}10%{stroke-dashoffset:1}55%{stroke-dashoffset:0}85%{stroke-dashoffset:0}95%{stroke-dashoffset:-1}100%{stroke-dashoffset:-1}}.cn{animation:cn 6s ease-in-out infinite}@keyframes pn{0%{transform:translateY(0)}50%{transform:translateY(-4px)}100%{transform:translateY(0)}}.pn{animation:pn 2s ease-in-out infinite}@keyframes ps{0%{transform:scale(1,1);opacity:.5}50%{transform:scale(.7,.7);opacity:.25}100%{transform:scale(1,1);opacity:.5}}.ps{animation:ps 2s ease-in-out infinite}@keyframes tw{0%{opacity:1}50%{opacity:.35}100%{opacity:1}}.s0{animation:tw 1.6s ease-in-out infinite}.s1{animation:tw 1.97s ease-in-out -0.5s infinite}.s2{animation:tw 2.34s ease-in-out -1s infinite}.s3{animation:tw 2.71s ease-in-out -1.5s infinite}.s4{animation:tw 3.08s ease-in-out -2s infinite}@keyframes sw{0%{transform:translateX(-160px)}62%{transform:translateX(-160px)}100%{transform:translateX(600px)}}.sw{animation:sw 6s cubic-bezier(.5,0,.3,1) infinite}@keyframes nu{0%{transform:translateX(0)}50%{transform:translateX(4px)}100%{transform:translateX(0)}}.nu{animation:nu 1.8s ease-in-out infinite}@keyframes rg{0%{transform:rotate(0)}100%{transform:rotate(360deg)}}.rg{animation:rg 24s linear infinite}@media (prefers-reduced-motion:reduce){*{animation:none!important}.rm-hide{display:none}}</style><defs><clipPath id="cc"><rect x="4" y="4" width="552" height="106" rx="24"/></clipPath><linearGradient id="bg" x1="0" y1="0" x2="0" y2="1"><stop offset="0" stop-color="#101631"/><stop offset="1" stop-color="#060813"/></linearGradient><radialGradient id="gl" gradientUnits="userSpaceOnUse" cx="66" cy="57" r="252"><stop offset="0" stop-color="#8fa8ff" stop-opacity=".24"/><stop offset="1" stop-color="#8fa8ff" stop-opacity="0"/></radialGradient><linearGradient id="bd" x1="0" y1="0" x2="1" y2="1"><stop offset="0" stop-color="#8fa8ff" stop-opacity=".95"/><stop offset=".55" stop-color="#8fa8ff" stop-opacity=".35"/><stop offset="1" stop-color="#8fa8ff" stop-opacity=".7"/></linearGradient><linearGradient id="sh" x1="0" y1="0" x2="1" y2="0"><stop offset="0" stop-color="#fff" stop-opacity="0"/><stop offset=".5" stop-color="#fff" stop-opacity=".11"/><stop offset="1" stop-color="#fff" stop-opacity="0"/></linearGradient></defs><rect x="4" y="10" width="552" height="106" rx="24" fill="#04050a"/><rect x="4" y="10" width="552" height="106" rx="24" fill="#8fa8ff" fill-opacity=".4"/><g clip-path="url(#cc)"><rect x="4" y="4" width="552" height="106" fill="url(#bg)"/><rect x="4" y="4" width="552" height="106" fill="url(#gl)"/><g class="sw rm-hide" style="transform:translateX(-160px)"><path d="M47.7 4H117.7L70 110H0Z" fill="url(#sh)"/></g><path d="M28 5.2H532" stroke="#fff" stroke-opacity=".14"/></g><rect x="4.9" y="4.9" width="550.2" height="104.2" rx="23.1" fill="none" stroke="url(#bd)" stroke-width="1.8"/><g transform="translate(66 57)"><circle r="40" fill="#04050a" fill-opacity=".55"/><circle r="40" fill="#8fa8ff" fill-opacity=".1" stroke="#8fa8ff" stroke-opacity=".45" stroke-width="1.4"/><g class="rg"><circle r="44" fill="none" stroke="#8fa8ff" stroke-opacity=".4" stroke-dasharray="2 7" stroke-width="1.2"/></g><g transform="scale(1.1)"><path d="M-17 -27A9 9 0 1 0 -8 -14A7 7 0 1 1 -17 -27Z" fill="#fff3c4"/><path class="cn" d="M-20 2L-9 -7L3 -3L14 -13L22 -5" pathLength="1" stroke-dasharray="1 1" fill="none" stroke="#8fa8ff" stroke-width="1.3" stroke-opacity=".9"/><circle class="s0" cx="-20" cy="2" r="1.5" fill="#fff"/><circle class="s1" cx="-9" cy="-7" r="1.9" fill="#fff"/><circle class="s2" cx="3" cy="-3" r="1.5" fill="#fff"/><circle class="s3" cx="14" cy="-13" r="1.9" fill="#fff"/><circle class="s4" cx="22" cy="-5" r="1.5" fill="#fff"/><path d="M-28 22Q0 14 28 22" fill="none" stroke="#8fa8ff" stroke-opacity=".45" stroke-width="1.5"/><g transform="translate(0 26)"><g class="ps"><ellipse rx="6" ry="2" fill="#8fa8ff" opacity=".5"/></g></g><g class="pn"><path d="M0 25C-2 19 -8 15 -8 9A8 8 0 0 1 8 9C8 15 2 19 0 25Z" fill="#8fa8ff"/><circle cy="9" r="3" fill="#060913"/></g></g></g><text x="122" y="51" class="sans" font-size="23.5" font-weight="700" letter-spacing="-.2" fill="#e9edff">What's in the sky tonight?</text><text x="122" y="79" class="sans" font-size="17.5" fill="#c3cae6" fill-opacity=".85">for your location</text><g transform="translate(516 57)"><circle r="20" fill="#8fa8ff" fill-opacity=".16" stroke="#8fa8ff" stroke-opacity=".7" stroke-width="1.4"/><g class="nu"><path d="M-7.6 0H7.6M1.6 -6L8 0L1.6 6" fill="none" stroke="#8fa8ff" stroke-width="2.2" stroke-linecap="round" stroke-linejoin="round"/></g></g></svg>
