<svg xmlns="http://www.w3.org/2000/svg" viewBox="0 0 600 600" width="600" height="600" role="img" aria-labelledby="ttl dsc"><title id="ttl">The orbit race: planets with true relative periods</title><desc id="dsc">Animated top view of the eight planets orbiting the Sun counter-clockwise. Orbital periods are true relative to each other (1 Earth year = 4 s of animation; each planet's rotation lasts T × 4 s), so Mercury laps Earth about four times per year while Neptune barely moves. Distances are compressed: drawn radius ∝ √a, so Neptune's orbit (30.1 AU) is 5.5× Earth's instead of 30×. Planets start at their J2000 mean longitudes (252.25°, 181.98°, 100.46°, 355.45°, 34.40°, 49.94°, 313.23°, 304.88°; JPL 'Approximate Positions of the Planets'); orbits drawn circular. A three-digit counter ticks Earth years. Data (NASA NSSDCA fact sheets): Mercury a = 0.3871 AU, T = 0.2408467 y; Venus a = 0.72333 AU, T = 0.6151973 y; Earth a = 1.0 AU, T = 1.0000174 y; Mars a = 1.52368 AU, T = 1.8808476 y; Jupiter a = 5.2026 AU, T = 11.862615 y; Saturn a = 9.55491 AU, T = 29.447498 y; Uranus a = 19.21845 AU, T = 84.016846 y; Neptune a = 30.11039 AU, T = 164.79132 y.</desc><style>.s{font-family:"Segoe UI", -apple-system, BlinkMacSystemFont, "Helvetica Neue", Arial, sans-serif}.m{font-family:ui-monospace, SFMono-Regular, Menlo, Consolas, monospace}.smil,.still{}.still{display:none}@media (prefers-reduced-motion:reduce){*{animation:none!important}.smil{display:none}.still{display:inline}}.o0{transform-origin:300px 326px;animation:spin 0.9634s linear infinite}.o1{transform-origin:300px 326px;animation:spin 2.4608s linear infinite}.o2{transform-origin:300px 326px;animation:spin 4.0001s linear infinite}.o3{transform-origin:300px 326px;animation:spin 7.5234s linear infinite}.o4{transform-origin:300px 326px;animation:spin 47.4505s linear infinite}.o5{transform-origin:300px 326px;animation:spin 117.79s linear infinite}.o6{transform-origin:300px 326px;animation:spin 336.0674s linear infinite}.o7{transform-origin:300px 326px;animation:spin 659.1653s linear infinite}@keyframes spin{from{transform:rotate(0deg)}to{transform:rotate(-360deg)}}</style><defs><linearGradient id="cbg" x1="0" y1="0" x2="1" y2="1"><stop offset="0" stop-color="#0b1020"/><stop offset="1" stop-color="#04050a"/></linearGradient><radialGradient id="cglow" cx=".15" cy="0" r=".9"><stop offset="0" stop-color="#b18cff" stop-opacity=".10"/><stop offset="1" stop-color="#b18cff" stop-opacity="0"/></radialGradient><clipPath id="cclip"><rect x="1" y="1" width="598" height="598" rx="15"/></clipPath></defs><rect x=".5" y=".5" width="599" height="599" rx="16" fill="url(#cbg)"/><rect x=".5" y=".5" width="599" height="599" rx="16" fill="url(#cglow)"/><g clip-path="url(#cclip)"><g fill="#dfe8ff"><circle cx="54.2" cy="570.4" r="0.36" opacity="0.66"/><circle cx="504.7" cy="448.3" r="0.39" opacity="0.44"/><circle cx="433.1" cy="579.4" r="0.63" opacity="0.55"/><circle cx="232.7" cy="243.4" r="0.69" opacity="0.49"/><circle cx="320.5" cy="378.6" r="0.6" opacity="0.27"/><circle cx="138.4" cy="423.5" r="0.54" opacity="0.71"/><circle cx="31.5" cy="139" r="0.49" opacity="0.66"/><circle cx="117.1" cy="458.8" r="0.44" opacity="0.42"/><circle cx="497.7" cy="64.3" r="0.99" opacity="0.42"/><circle cx="217.4" cy="121.8" r="0.47" opacity="0.71"/><circle cx="132.6" cy="332.4" r="0.45" opacity="0.42"/><circle cx="78.1" cy="418.7" r="0.44" opacity="0.51"/><circle cx="361.6" cy="64.2" r="0.81" opacity="0.74"/><circle cx="152.6" cy="489.6" r="0.67" opacity="0.41"/><circle cx="161.9" cy="50.3" r="0.44" opacity="0.5"/><circle cx="292.1" cy="288.9" r="0.53" opacity="0.32"/><circle cx="134.7" cy="335.5" r="0.47" opacity="0.35"/><circle cx="166.1" cy="587.5" r="0.79" opacity="0.65"/><circle cx="213.2" cy="251.2" r="0.67" opacity="0.56"/><circle cx="384.3" cy="21.3" r="0.68" opacity="0.36"/><circle cx="196.5" cy="318.5" r="1.01" opacity="0.47"/><circle cx="387.7" cy="125.2" r="1" opacity="0.39"/><circle cx="324.5" cy="408.4" r="0.67" opacity="0.49"/><circle cx="388.3" cy="6.1" r="1.07" opacity="0.56"/><circle cx="357.1" cy="152.6" r="0.48" opacity="0.6"/><circle cx="247.5" cy="72.9" r="0.37" opacity="0.73"/><circle cx="123.4" cy="308.5" r="0.68" opacity="0.37"/><circle cx="484.7" cy="285.5" r="1.01" opacity="0.36"/><circle cx="255.2" cy="217.5" r="0.38" opacity="0.48"/><circle cx="256.3" cy="236.6" r="0.88" opacity="0.43"/><circle cx="33.7" cy="450.1" r="0.45" opacity="0.26"/><circle cx="452.8" cy="435.6" r="0.62" opacity="0.7"/><circle cx="161.7" cy="504.3" r="0.42" opacity="0.72"/><circle cx="599.1" cy="332.5" r="0.44" opacity="0.65"/><circle cx="431.7" cy="303.2" r="0.35" opacity="0.45"/><circle cx="408.3" cy="8.3" r="0.44" opacity="0.75"/><circle cx="429" cy="156.3" r="0.36" opacity="0.56"/><circle cx="369.1" cy="171.8" r="0.5" opacity="0.8"/><circle cx="390.1" cy="325.4" r="0.35" opacity="0.51"/><circle cx="13.5" cy="578.3" r="0.5" opacity="0.58"/><circle cx="408.4" cy="24.2" r="0.82" opacity="0.63"/><circle cx="43.2" cy="548.8" r="0.88" opacity="0.79"/><circle cx="55.5" cy="549.4" r="0.76" opacity="0.39"/><circle cx="47.7" cy="405.9" r="0.35" opacity="0.55"/><circle cx="483.4" cy="237.9" r="0.4" opacity="0.48"/><circle cx="68.4" cy="37.4" r="0.54" opacity="0.7"/><circle cx="595" cy="62.5" r="0.39" opacity="0.7"/><circle cx="175.1" cy="460.9" r="1" opacity="0.72"/><circle cx="374.6" cy="437.1" r="0.87" opacity="0.33"/><circle cx="202" cy="440.4" r="0.48" opacity="0.67"/><circle cx="584.8" cy="434.6" r="0.56" opacity="0.65"/><circle cx="556.2" cy="59.1" r="0.35" opacity="0.69"/><circle cx="511.7" cy="395.1" r="0.46" opacity="0.4"/><circle cx="590.5" cy="423.1" r="1.08" opacity="0.61"/><circle cx="512.8" cy="138.4" r="0.69" opacity="0.3"/><circle cx="196.2" cy="269.1" r="0.51" opacity="0.8"/><circle cx="378" cy="64.5" r="0.79" opacity="0.67"/><circle cx="497.9" cy="560.9" r="0.76" opacity="0.53"/><circle cx="399" cy="33" r="0.42" opacity="0.47"/><circle cx="441.9" cy="37" r="0.37" opacity="0.38"/><circle cx="120.3" cy="283.6" r="1.09" opacity="0.43"/><circle cx="40.7" cy="10.5" r="0.72" opacity="0.47"/><circle cx="592.2" cy="149.4" r="1.05" opacity="0.42"/><circle cx="586.5" cy="559.4" r="0.43" opacity="0.3"/><circle cx="372.5" cy="351.4" r="0.6" opacity="0.33"/><circle cx="503.1" cy="206.7" r="0.4" opacity="0.29"/><circle cx="12.8" cy="269.3" r="0.36" opacity="0.42"/><circle cx="442.6" cy="452.6" r="0.46" opacity="0.37"/><circle cx="376.4" cy="230.9" r="1.07" opacity="0.67"/><circle cx="514.8" cy="162.5" r="0.75" opacity="0.48"/><circle cx="152.4" cy="69.8" r="0.5" opacity="0.61"/><circle cx="153.4" cy="57.6" r="0.56" opacity="0.54"/><circle cx="433.5" cy="519.8" r="0.36" opacity="0.79"/><circle cx="173.9" cy="446.1" r="0.37" opacity="0.67"/><circle cx="210.8" cy="314.1" r="0.9" opacity="0.67"/><circle cx="455.6" cy="549.8" r="0.44" opacity="0.39"/><circle cx="497" cy="350" r="0.38" opacity="0.79"/><circle cx="536.6" cy="479.9" r="0.47" opacity="0.69"/><circle cx="238.9" cy="173.7" r="0.81" opacity="0.58"/><circle cx="445.5" cy="45.4" r="0.51" opacity="0.48"/><circle cx="24.3" cy="506.6" r="0.46" opacity="0.51"/><circle cx="346.8" cy="372.8" r="0.35" opacity="0.36"/><circle cx="58.8" cy="382.8" r="0.36" opacity="0.63"/><circle cx="474.5" cy="449" r="1.07" opacity="0.54"/><circle cx="323.1" cy="346.8" r="0.57" opacity="0.54"/><circle cx="155.4" cy="421.2" r="0.74" opacity="0.44"/><circle cx="59.6" cy="351.6" r="0.38" opacity="0.43"/><circle cx="525.7" cy="476.8" r="1.02" opacity="0.57"/><circle cx="435.1" cy="148.5" r="0.59" opacity="0.55"/><circle cx="120.3" cy="382.2" r="0.6" opacity="0.35"/><circle cx="469.1" cy="166.4" r="0.92" opacity="0.4"/><circle cx="532" cy="448.8" r="0.39" opacity="0.34"/><circle cx="303.4" cy="222.4" r="0.58" opacity="0.52"/><circle cx="19.4" cy="174" r="0.52" opacity="0.63"/><circle cx="149.4" cy="329.2" r="0.37" opacity="0.66"/><circle cx="378.2" cy="182.8" r="0.36" opacity="0.79"/><circle cx="105.4" cy="339.9" r="0.36" opacity="0.4"/><circle cx="111.3" cy="522.2" r="0.5" opacity="0.31"/><circle cx="23.1" cy="359.6" r="0.37" opacity="0.68"/><circle cx="365.7" cy="400.1" r="0.36" opacity="0.37"/><circle cx="473" cy="592.4" r="0.48" opacity="0.51"/><circle cx="293.4" cy="65.9" r="0.36" opacity="0.3"/><circle cx="59.4" cy="210.7" r="0.36" opacity="0.78"/><circle cx="471.4" cy="579.4" r="0.35" opacity="0.7"/><circle cx="458.7" cy="431.5" r="0.35" opacity="0.78"/><circle cx="592.3" cy="380.1" r="0.68" opacity="0.36"/><circle cx="505.6" cy="53.7" r="0.58" opacity="0.74"/><circle cx="188.2" cy="273.8" r="0.63" opacity="0.26"/><circle cx="116.9" cy="473.9" r="1.02" opacity="0.32"/><circle cx="94.1" cy="25.5" r="0.73" opacity="0.79"/></g></g><rect x=".5" y=".5" width="599" height="599" rx="16" fill="none" stroke="#2a3358" stroke-opacity=".9"/><text x="24" y="34" class="m" font-size="11" letter-spacing="1.6" fill="#7cc8ff">THE SOLAR SYSTEM · TRUE RELATIVE PERIODS</text><text x="24" y="57" class="s" font-size="20" font-weight="700" fill="#e9edff">The orbit race</text><defs><radialGradient id="sun"><stop offset="0" stop-color="#fff6d8"/><stop offset=".45" stop-color="#ffc24b"/><stop offset="1" stop-color="#ff7a3d" stop-opacity="0"/></radialGradient></defs><circle cx="300" cy="326" r="28.12" fill="none" stroke="#b8b0a6" stroke-opacity=".22"/><circle cx="300" cy="326" r="38.44" fill="none" stroke="#e8c889" stroke-opacity=".22"/><circle cx="300" cy="326" r="45.2" fill="none" stroke="#6fb4ff" stroke-opacity=".22"/><circle cx="300" cy="326" r="55.79" fill="none" stroke="#ff7a4d" stroke-opacity=".22"/><circle cx="300" cy="326" r="103.09" fill="none" stroke="#e3b98b" stroke-opacity=".22"/><circle cx="300" cy="326" r="139.7" fill="none" stroke="#f0d7a1" stroke-opacity=".22"/><circle cx="300" cy="326" r="198.13" fill="none" stroke="#9fe3ea" stroke-opacity=".22"/><circle cx="300" cy="326" r="248" fill="none" stroke="#5b8cff" stroke-opacity=".22"/><circle cx="300" cy="326" r="22" fill="url(#sun)"/><circle cx="300" cy="326" r="8" fill="#fff1c2"/><g transform="rotate(-252.25 300 326)"><g class="o0"><path d="M328.12 326A28.12 28.12 0 0 1 327.69 330.88" fill="none" stroke="#b8b0a6" stroke-width="2.7" stroke-linecap="round" opacity="0.55"/><path d="M327.69 330.88A28.12 28.12 0 0 1 326.07 336.53" fill="none" stroke="#b8b0a6" stroke-width="2.7" stroke-linecap="round" opacity="0.3"/><path d="M326.07 336.53A28.12 28.12 0 0 1 322.16 343.31" fill="none" stroke="#b8b0a6" stroke-width="2.7" stroke-linecap="round" opacity="0.14"/><circle cx="328.12" cy="326" r="3.0" fill="#b8b0a6"/></g></g><g transform="rotate(-181.98 300 326)"><g class="o1"><path d="M338.44 326A38.44 38.44 0 0 1 337.85 332.67" fill="none" stroke="#e8c889" stroke-width="3.8" stroke-linecap="round" opacity="0.55"/><path d="M337.85 332.67A38.44 38.44 0 0 1 335.64 340.4" fill="none" stroke="#e8c889" stroke-width="3.8" stroke-linecap="round" opacity="0.3"/><path d="M335.64 340.4A38.44 38.44 0 0 1 330.29 349.66" fill="none" stroke="#e8c889" stroke-width="3.8" stroke-linecap="round" opacity="0.14"/><circle cx="338.44" cy="326" r="4.2" fill="#e8c889"/></g></g><g transform="rotate(-100.46 300 326)"><g class="o2"><path d="M345.2 326A45.2 45.2 0 0 1 344.51 333.85" fill="none" stroke="#6fb4ff" stroke-width="4" stroke-linecap="round" opacity="0.55"/><path d="M344.51 333.85A45.2 45.2 0 0 1 341.9 342.93" fill="none" stroke="#6fb4ff" stroke-width="4" stroke-linecap="round" opacity="0.3"/><path d="M341.9 342.93A45.2 45.2 0 0 1 335.61 353.83" fill="none" stroke="#6fb4ff" stroke-width="4" stroke-linecap="round" opacity="0.14"/><circle cx="345.2" cy="326" r="4.4" fill="#6fb4ff"/></g></g><g transform="rotate(-355.45 300 326)"><g class="o3"><path d="M355.79 326A55.79 55.79 0 0 1 354.94 335.69" fill="none" stroke="#ff7a4d" stroke-width="3.2" stroke-linecap="round" opacity="0.55"/><path d="M354.94 335.69A55.79 55.79 0 0 1 351.73 346.9" fill="none" stroke="#ff7a4d" stroke-width="3.2" stroke-linecap="round" opacity="0.3"/><path d="M351.73 346.9A55.79 55.79 0 0 1 343.96 360.35" fill="none" stroke="#ff7a4d" stroke-width="3.2" stroke-linecap="round" opacity="0.14"/><circle cx="355.79" cy="326" r="3.6" fill="#ff7a4d"/></g></g><g transform="rotate(-34.4 300 326)"><g class="o4"><path d="M403.09 326A103.09 103.09 0 0 1 401.52 343.9" fill="none" stroke="#e3b98b" stroke-width="4" stroke-linecap="round" opacity="0.55"/><path d="M401.52 343.9A103.09 103.09 0 0 1 395.58 364.62" fill="none" stroke="#e3b98b" stroke-width="4" stroke-linecap="round" opacity="0.3"/><path d="M395.58 364.62A103.09 103.09 0 0 1 381.23 389.47" fill="none" stroke="#e3b98b" stroke-width="4" stroke-linecap="round" opacity="0.14"/><circle cx="403.09" cy="326" r="8.0" fill="#e3b98b"/></g></g><g transform="rotate(-49.94 300 326)"><g class="o5"><path d="M439.7 326A139.7 139.7 0 0 1 437.58 350.26" fill="none" stroke="#f0d7a1" stroke-width="4" stroke-linecap="round" opacity="0.55"/><path d="M437.58 350.26A139.7 139.7 0 0 1 429.53 378.33" fill="none" stroke="#f0d7a1" stroke-width="4" stroke-linecap="round" opacity="0.3"/><path d="M429.53 378.33A139.7 139.7 0 0 1 410.09 412.01" fill="none" stroke="#f0d7a1" stroke-width="4" stroke-linecap="round" opacity="0.14"/><circle cx="439.7" cy="326" r="7.0" fill="#f0d7a1"/><ellipse cx="439.7" cy="326" rx="13.3" ry="4.2" fill="none" stroke="#f0d7a1" stroke-width="1.2" opacity=".85"/></g></g><g transform="rotate(-313.23 300 326)"><g class="o6"><path d="M498.13 326A198.13 198.13 0 0 1 495.12 360.41" fill="none" stroke="#9fe3ea" stroke-width="4" stroke-linecap="round" opacity="0.55"/><path d="M495.12 360.41A198.13 198.13 0 0 1 483.7 400.22" fill="none" stroke="#9fe3ea" stroke-width="4" stroke-linecap="round" opacity="0.3"/><path d="M483.7 400.22A198.13 198.13 0 0 1 456.13 447.98" fill="none" stroke="#9fe3ea" stroke-width="4" stroke-linecap="round" opacity="0.14"/><circle cx="498.13" cy="326" r="5.6" fill="#9fe3ea"/></g></g><g transform="rotate(-304.88 300 326)"><g class="o7"><path d="M548 326A248 248 0 0 1 544.23 369.06" fill="none" stroke="#5b8cff" stroke-width="4" stroke-linecap="round" opacity="0.55"/><path d="M544.23 369.06A248 248 0 0 1 529.94 418.9" fill="none" stroke="#5b8cff" stroke-width="4" stroke-linecap="round" opacity="0.3"/><path d="M529.94 418.9A248 248 0 0 1 495.43 478.68" fill="none" stroke="#5b8cff" stroke-width="4" stroke-linecap="round" opacity="0.14"/><circle cx="548" cy="326" r="5.6" fill="#5b8cff"/></g></g><text x="277.6" y="429.1" class="s" font-size="12" fill="#e3b98b" font-weight="700">Jupiter</text><text x="277.6" y="443.1" class="m" font-size="11" fill="#c3cae6">11.9 y</text><text x="267.5" y="464.3" class="s" font-size="12" fill="#f0d7a1" font-weight="700">Saturn</text><text x="267.5" y="478.3" class="m" font-size="11" fill="#c3cae6">29.4 y</text><text x="251.4" y="520.5" class="s" font-size="12" fill="#9fe3ea" font-weight="700">Uranus</text><text x="251.4" y="534.5" class="m" font-size="11" fill="#c3cae6">84.0 y</text><text x="237.6" y="568.4" class="s" font-size="12" fill="#5b8cff" font-weight="700">Neptune</text><text x="237.6" y="582.4" class="m" font-size="11" fill="#c3cae6">164.8 y</text><text x="24" y="470" class="m" font-size="10.5" fill="#8f98bd">inner planets</text><circle cx="29" cy="484" r="4" fill="#b8b0a6"/><text x="39" y="488" class="s" font-size="12" fill="#b8b0a6" font-weight="700">Mercury</text><text x="142" y="488" class="m" font-size="11.5" fill="#c3cae6" text-anchor="end">0.241 y</text><circle cx="29" cy="501" r="4" fill="#e8c889"/><text x="39" y="505" class="s" font-size="12" fill="#e8c889" font-weight="700">Venus</text><text x="142" y="505" class="m" font-size="11.5" fill="#c3cae6" text-anchor="end">0.615 y</text><circle cx="29" cy="518" r="4" fill="#6fb4ff"/><text x="39" y="522" class="s" font-size="12" fill="#6fb4ff" font-weight="700">Earth</text><text x="142" y="522" class="m" font-size="11.5" fill="#c3cae6" text-anchor="end">1.00 y</text><circle cx="29" cy="535" r="4" fill="#ff7a4d"/><text x="39" y="539" class="s" font-size="12" fill="#ff7a4d" font-weight="700">Mars</text><text x="142" y="539" class="m" font-size="11.5" fill="#c3cae6" text-anchor="end">1.88 y</text><text x="576" y="34" class="m" font-size="10.5" fill="#8f98bd" text-anchor="end">EARTH YEARS</text><defs><clipPath id="dig"><rect x="512" y="40" width="66" height="30"/></clipPath></defs><g class="smil" clip-path="url(#dig)"><g><text x="526" y="64" class="m" font-size="26" fill="#e9edff" text-anchor="middle" font-weight="700">0</text><text x="526" y="94" class="m" font-size="26" fill="#e9edff" text-anchor="middle" font-weight="700">1</text><text x="526" y="124" class="m" font-size="26" fill="#e9edff" text-anchor="middle" font-weight="700">2</text><text x="526" y="154" class="m" font-size="26" fill="#e9edff" text-anchor="middle" font-weight="700">3</text><text x="526" y="184" class="m" font-size="26" fill="#e9edff" text-anchor="middle" font-weight="700">4</text><text x="526" y="214" class="m" font-size="26" fill="#e9edff" text-anchor="middle" font-weight="700">5</text><text x="526" y="244" class="m" font-size="26" fill="#e9edff" text-anchor="middle" font-weight="700">6</text><text x="526" y="274" class="m" font-size="26" fill="#e9edff" text-anchor="middle" font-weight="700">7</text><text x="526" y="304" class="m" font-size="26" fill="#e9edff" text-anchor="middle" font-weight="700">8</text><text x="526" y="334" class="m" font-size="26" fill="#e9edff" text-anchor="middle" font-weight="700">9</text><animateTransform attributeName="transform" type="translate" calcMode="discrete" values="0 0;0 -30;0 -60;0 -90;0 -120;0 -150;0 -180;0 -210;0 -240;0 -270" keyTimes="0;0.1;0.2;0.3;0.4;0.5;0.6;0.7;0.8;0.9" dur="4000s" repeatCount="indefinite"/></g><g><text x="546" y="64" class="m" font-size="26" fill="#e9edff" text-anchor="middle" font-weight="700">0</text><text x="546" y="94" class="m" font-size="26" fill="#e9edff" text-anchor="middle" font-weight="700">1</text><text x="546" y="124" class="m" font-size="26" fill="#e9edff" text-anchor="middle" font-weight="700">2</text><text x="546" y="154" class="m" font-size="26" fill="#e9edff" text-anchor="middle" font-weight="700">3</text><text x="546" y="184" class="m" font-size="26" fill="#e9edff" text-anchor="middle" font-weight="700">4</text><text x="546" y="214" class="m" font-size="26" fill="#e9edff" text-anchor="middle" font-weight="700">5</text><text x="546" y="244" class="m" font-size="26" fill="#e9edff" text-anchor="middle" font-weight="700">6</text><text x="546" y="274" class="m" font-size="26" fill="#e9edff" text-anchor="middle" font-weight="700">7</text><text x="546" y="304" class="m" font-size="26" fill="#e9edff" text-anchor="middle" font-weight="700">8</text><text x="546" y="334" class="m" font-size="26" fill="#e9edff" text-anchor="middle" font-weight="700">9</text><animateTransform attributeName="transform" type="translate" calcMode="discrete" values="0 0;0 -30;0 -60;0 -90;0 -120;0 -150;0 -180;0 -210;0 -240;0 -270" keyTimes="0;0.1;0.2;0.3;0.4;0.5;0.6;0.7;0.8;0.9" dur="400s" repeatCount="indefinite"/></g><g><text x="566" y="64" class="m" font-size="26" fill="#e9edff" text-anchor="middle" font-weight="700">0</text><text x="566" y="94" class="m" font-size="26" fill="#e9edff" text-anchor="middle" font-weight="700">1</text><text x="566" y="124" class="m" font-size="26" fill="#e9edff" text-anchor="middle" font-weight="700">2</text><text x="566" y="154" class="m" font-size="26" fill="#e9edff" text-anchor="middle" font-weight="700">3</text><text x="566" y="184" class="m" font-size="26" fill="#e9edff" text-anchor="middle" font-weight="700">4</text><text x="566" y="214" class="m" font-size="26" fill="#e9edff" text-anchor="middle" font-weight="700">5</text><text x="566" y="244" class="m" font-size="26" fill="#e9edff" text-anchor="middle" font-weight="700">6</text><text x="566" y="274" class="m" font-size="26" fill="#e9edff" text-anchor="middle" font-weight="700">7</text><text x="566" y="304" class="m" font-size="26" fill="#e9edff" text-anchor="middle" font-weight="700">8</text><text x="566" y="334" class="m" font-size="26" fill="#e9edff" text-anchor="middle" font-weight="700">9</text><animateTransform attributeName="transform" type="translate" calcMode="discrete" values="0 0;0 -30;0 -60;0 -90;0 -120;0 -150;0 -180;0 -210;0 -240;0 -270" keyTimes="0;0.1;0.2;0.3;0.4;0.5;0.6;0.7;0.8;0.9" dur="40s" repeatCount="indefinite"/></g></g><g class="still"><text x="576" y="64" class="m" font-size="24" fill="#e9edff" text-anchor="end" font-weight="700">J2000</text></g><text x="576" y="88" class="m" font-size="11" fill="#8f98bd" text-anchor="end">1 year = 4 s</text><text x="576" y="566" class="s" font-size="11.5" fill="#c3cae6" text-anchor="end">Periods true (T² ∝ a³).</text><text x="576" y="582" class="s" font-size="11.5" fill="#c3cae6" text-anchor="end">Distances compressed: radius ∝ √a.</text><text x="24" y="582" class="s" font-size="11" fill="#8f98bd">start: positions on 1 Jan 2000</text></svg>