<svg xmlns="http://www.w3.org/2000/svg" viewBox="0 0 1000 220" width="1000" height="220" role="img" aria-labelledby="ttl dsc"><title id="ttl">Cosmic scale: 42 powers of ten</title><desc id="dsc">Animated logarithmic ruler from 10⁻¹⁵ m to 10²⁷ m (42 powers of ten, 110 px per decade) sliding past a fixed cursor, with a counter showing the power of ten at the cursor; it zooms out over 15 s and back in over 5 s. Objects sit at the logarithm of their size (site/data/scale.json): proton 1.681 × 10⁻¹⁵ m, hydrogen atom 1.058 × 10⁻¹⁰ m, red blood cell 7.8 µm, a person 1.7 m (marked 'you are here'), Saturn V 110.6 m, Earth 12,742 km, the Sun 1.3914 × 10⁹ m, 1 AU 1.496 × 10¹¹ m, 1 light-year 9.461 × 10¹⁵ m, the Milky Way 9.46 × 10²⁰ m (100,000 light-years), the observable universe 8.8 × 10²⁶ m (93 billion light-years).</desc><style>.s{font-family:"Segoe UI", -apple-system, BlinkMacSystemFont, "Helvetica Neue", Arial, sans-serif}.m{font-family:ui-monospace, SFMono-Regular, Menlo, Consolas, monospace}.smil,.still{}.still{display:none}@media (prefers-reduced-motion:reduce){*{animation:none!important}.smil{display:none}.still{display:inline}}.ruler{transform:translateX(-1175.3px)}@keyframes ruler{0%{transform:translateX(500px)}5.172%{transform:translateX(500px)}69.828%{transform:translateX(-4120px)}76.724%{transform:translateX(-4120px)}98.276%{transform:translateX(500px)}100%{transform:translateX(500px)}}.ruler{animation:ruler 23.2s linear infinite}</style><defs><linearGradient id="cbg" x1="0" y1="0" x2="1" y2="1"><stop offset="0" stop-color="#0b1020"/><stop offset="1" stop-color="#04050a"/></linearGradient><radialGradient id="cglow" cx=".15" cy="0" r=".9"><stop offset="0" stop-color="#b18cff" stop-opacity=".10"/><stop offset="1" stop-color="#b18cff" stop-opacity="0"/></radialGradient><clipPath id="cclip"><rect x="1" y="1" width="998" height="218" rx="15"/></clipPath></defs><rect x=".5" y=".5" width="999" height="219" rx="16" fill="url(#cbg)"/><rect x=".5" y=".5" width="999" height="219" rx="16" fill="url(#cglow)"/><g clip-path="url(#cclip)"><g fill="#dfe8ff"><circle cx="827.2" cy="46.8" r="1" opacity="0.52"/><circle cx="397.6" cy="135.8" r="0.36" opacity="0.36"/><circle cx="421.6" cy="50.5" r="0.64" opacity="0.48"/><circle cx="383.5" cy="61.1" r="0.37" opacity="0.64"/><circle cx="902.6" cy="77.1" r="0.79" opacity="0.42"/><circle cx="760.4" cy="52.5" r="0.54" opacity="0.47"/><circle cx="870.9" cy="167.5" r="0.35" opacity="0.3"/><circle cx="460" cy="47.4" r="0.37" opacity="0.77"/><circle cx="940.7" cy="3.8" r="0.35" opacity="0.59"/><circle cx="947.6" cy="195.5" r="0.66" opacity="0.66"/><circle cx="482.8" cy="107.7" r="0.87" opacity="0.31"/><circle cx="682.4" cy="158.3" r="0.36" opacity="0.67"/><circle cx="168.5" cy="213" r="0.74" opacity="0.5"/><circle cx="584" cy="214.3" r="0.42" opacity="0.36"/><circle cx="689.5" cy="198.7" r="0.36" opacity="0.67"/><circle cx="388.8" cy="151.2" r="0.48" opacity="0.77"/><circle cx="576" cy="212.7" r="1.03" opacity="0.32"/><circle cx="938.1" cy="166.8" r="0.36" opacity="0.57"/><circle cx="271.7" cy="10.4" r="0.35" opacity="0.45"/><circle cx="874.2" cy="16" r="0.56" opacity="0.73"/><circle cx="363.1" cy="158.1" r="0.56" opacity="0.67"/><circle cx="481.6" cy="215.9" r="0.43" opacity="0.37"/><circle cx="121.5" cy="56.5" r="0.35" opacity="0.77"/><circle cx="133.1" cy="184.9" r="0.75" opacity="0.51"/><circle cx="50.9" cy="44.5" r="0.99" opacity="0.48"/><circle cx="781.3" cy="27.5" r="0.35" opacity="0.45"/><circle cx="350.5" cy="45.2" r="0.61" opacity="0.57"/><circle cx="560" cy="69.4" r="0.44" opacity="0.4"/><circle cx="552.6" cy="85.5" r="0.62" opacity="0.78"/><circle cx="323.3" cy="130.3" r="0.35" opacity="0.71"/><circle cx="532" cy="130.5" r="0.54" opacity="0.31"/><circle cx="878" cy="2.5" r="0.36" opacity="0.52"/><circle cx="923.2" cy="153.8" r="0.94" opacity="0.44"/><circle cx="551" cy="132" r="0.37" opacity="0.3"/><circle cx="340.2" cy="19.2" r="0.35" opacity="0.35"/><circle cx="860.7" cy="135" r="0.73" opacity="0.57"/><circle cx="482.1" cy="195.5" r="0.41" opacity="0.39"/><circle cx="289.5" cy="16.3" r="0.35" opacity="0.4"/><circle cx="634" cy="43.1" r="0.48" opacity="0.41"/><circle cx="751.9" cy="52.6" r="0.46" opacity="0.66"/><circle cx="719.7" cy="197.3" r="0.35" opacity="0.51"/><circle cx="191.3" cy="196" r="0.38" opacity="0.69"/><circle cx="517" cy="169" r="0.78" opacity="0.72"/><circle cx="887.8" cy="88.9" r="0.64" opacity="0.75"/><circle cx="798.2" cy="97.3" r="0.83" opacity="0.68"/><circle cx="443.1" cy="97.3" r="0.45" opacity="0.77"/><circle cx="229.7" cy="210.2" r="0.36" opacity="0.39"/><circle cx="738.1" cy="155.7" r="0.39" opacity="0.41"/><circle cx="566.1" cy="166.9" r="0.43" opacity="0.51"/><circle cx="430.3" cy="182.6" r="0.94" opacity="0.6"/></g></g><rect x=".5" y=".5" width="999" height="219" rx="16" fill="none" stroke="#2a3358" stroke-opacity=".9"/><defs><clipPath id="rc"><rect x="1" y="60" width="998" height="159"/></clipPath><linearGradient id="edge" x1="0" x2="1"><stop offset="0" stop-color="#070a14"/><stop offset=".1" stop-color="#070a14" stop-opacity="0"/><stop offset=".9" stop-color="#070a14" stop-opacity="0"/><stop offset="1" stop-color="#070a14"/></linearGradient></defs><g clip-path="url(#rc)"><g class="ruler"><line x1="-40" y1="176" x2="4660" y2="176" stroke="#46507a" stroke-width="1.5"/><line x1="0" y1="167" x2="0" y2="181" stroke="#c3cae6" stroke-width="1.3"/><text x="0" y="196" class="m" font-size="12" fill="#8f98bd" text-anchor="middle">10⁻¹⁵</text><line x1="33.1" y1="172" x2="33.1" y2="176" stroke="#5d6589"/><line x1="52.5" y1="172" x2="52.5" y2="176" stroke="#5d6589"/><line x1="66.2" y1="172" x2="66.2" y2="176" stroke="#5d6589"/><line x1="76.9" y1="172" x2="76.9" y2="176" stroke="#5d6589"/><line x1="85.6" y1="172" x2="85.6" y2="176" stroke="#5d6589"/><line x1="93" y1="172" x2="93" y2="176" stroke="#5d6589"/><line x1="99.3" y1="172" x2="99.3" y2="176" stroke="#5d6589"/><line x1="105" y1="172" x2="105" y2="176" stroke="#5d6589"/><line x1="110" y1="167" x2="110" y2="181" stroke="#c3cae6" stroke-width="1.3"/><text x="110" y="196" class="m" font-size="12" fill="#8f98bd" text-anchor="middle">10⁻¹⁴</text><line x1="143.1" y1="172" x2="143.1" y2="176" stroke="#5d6589"/><line x1="162.5" y1="172" x2="162.5" y2="176" stroke="#5d6589"/><line x1="176.2" y1="172" x2="176.2" y2="176" stroke="#5d6589"/><line x1="186.9" y1="172" x2="186.9" y2="176" stroke="#5d6589"/><line x1="195.6" y1="172" x2="195.6" y2="176" stroke="#5d6589"/><line x1="203" y1="172" x2="203" y2="176" stroke="#5d6589"/><line x1="209.3" y1="172" x2="209.3" y2="176" stroke="#5d6589"/><line x1="215" y1="172" x2="215" y2="176" stroke="#5d6589"/><line x1="220" y1="167" x2="220" y2="181" stroke="#c3cae6" stroke-width="1.3"/><text x="220" y="196" class="m" font-size="12" fill="#8f98bd" text-anchor="middle">10⁻¹³</text><line x1="253.1" y1="172" x2="253.1" y2="176" stroke="#5d6589"/><line x1="272.5" y1="172" x2="272.5" y2="176" stroke="#5d6589"/><line x1="286.2" y1="172" x2="286.2" y2="176" stroke="#5d6589"/><line x1="296.9" y1="172" x2="296.9" y2="176" stroke="#5d6589"/><line x1="305.6" y1="172" x2="305.6" y2="176" stroke="#5d6589"/><line x1="313" y1="172" x2="313" y2="176" stroke="#5d6589"/><line x1="319.3" y1="172" x2="319.3" y2="176" stroke="#5d6589"/><line x1="325" y1="172" x2="325" y2="176" stroke="#5d6589"/><line x1="330" y1="167" x2="330" y2="181" stroke="#c3cae6" stroke-width="1.3"/><text x="330" y="196" class="m" font-size="12" fill="#8f98bd" text-anchor="middle">10⁻¹²</text><line x1="363.1" y1="172" x2="363.1" y2="176" stroke="#5d6589"/><line x1="382.5" y1="172" x2="382.5" y2="176" stroke="#5d6589"/><line x1="396.2" y1="172" x2="396.2" y2="176" stroke="#5d6589"/><line x1="406.9" y1="172" x2="406.9" y2="176" stroke="#5d6589"/><line x1="415.6" y1="172" x2="415.6" y2="176" stroke="#5d6589"/><line x1="423" y1="172" x2="423" y2="176" stroke="#5d6589"/><line x1="429.3" y1="172" x2="429.3" y2="176" stroke="#5d6589"/><line x1="435" y1="172" x2="435" y2="176" stroke="#5d6589"/><line x1="440" y1="167" x2="440" y2="181" stroke="#c3cae6" stroke-width="1.3"/><text x="440" y="196" class="m" font-size="12" fill="#8f98bd" text-anchor="middle">10⁻¹¹</text><line x1="473.1" y1="172" x2="473.1" y2="176" stroke="#5d6589"/><line x1="492.5" y1="172" x2="492.5" y2="176" stroke="#5d6589"/><line x1="506.2" y1="172" x2="506.2" y2="176" stroke="#5d6589"/><line x1="516.9" y1="172" x2="516.9" y2="176" stroke="#5d6589"/><line x1="525.6" y1="172" x2="525.6" y2="176" stroke="#5d6589"/><line x1="533" y1="172" x2="533" y2="176" stroke="#5d6589"/><line x1="539.3" y1="172" x2="539.3" y2="176" stroke="#5d6589"/><line x1="545" y1="172" x2="545" y2="176" stroke="#5d6589"/><line x1="550" y1="167" x2="550" y2="181" stroke="#c3cae6" stroke-width="1.3"/><text x="550" y="196" class="m" font-size="12" fill="#8f98bd" text-anchor="middle">10⁻¹⁰</text><line x1="583.1" y1="172" x2="583.1" y2="176" stroke="#5d6589"/><line x1="602.5" y1="172" x2="602.5" y2="176" stroke="#5d6589"/><line x1="616.2" y1="172" x2="616.2" y2="176" stroke="#5d6589"/><line x1="626.9" y1="172" x2="626.9" y2="176" stroke="#5d6589"/><line x1="635.6" y1="172" x2="635.6" y2="176" stroke="#5d6589"/><line x1="643" y1="172" x2="643" y2="176" stroke="#5d6589"/><line x1="649.3" y1="172" x2="649.3" y2="176" stroke="#5d6589"/><line x1="655" y1="172" x2="655" y2="176" stroke="#5d6589"/><line x1="660" y1="167" x2="660" y2="181" stroke="#c3cae6" stroke-width="1.3"/><text x="660" y="196" class="m" font-size="12" fill="#8f98bd" text-anchor="middle">10⁻⁹</text><line x1="693.1" y1="172" x2="693.1" y2="176" stroke="#5d6589"/><line x1="712.5" y1="172" x2="712.5" y2="176" stroke="#5d6589"/><line x1="726.2" y1="172" x2="726.2" y2="176" stroke="#5d6589"/><line x1="736.9" y1="172" x2="736.9" y2="176" stroke="#5d6589"/><line x1="745.6" y1="172" x2="745.6" y2="176" stroke="#5d6589"/><line x1="753" y1="172" x2="753" y2="176" stroke="#5d6589"/><line x1="759.3" y1="172" x2="759.3" y2="176" stroke="#5d6589"/><line x1="765" y1="172" x2="765" y2="176" stroke="#5d6589"/><line x1="770" y1="167" x2="770" y2="181" stroke="#c3cae6" stroke-width="1.3"/><text x="770" y="196" class="m" font-size="12" fill="#8f98bd" text-anchor="middle">10⁻⁸</text><line x1="803.1" y1="172" x2="803.1" y2="176" stroke="#5d6589"/><line x1="822.5" y1="172" x2="822.5" y2="176" stroke="#5d6589"/><line x1="836.2" y1="172" x2="836.2" y2="176" stroke="#5d6589"/><line x1="846.9" y1="172" x2="846.9" y2="176" stroke="#5d6589"/><line x1="855.6" y1="172" x2="855.6" y2="176" stroke="#5d6589"/><line x1="863" y1="172" x2="863" y2="176" stroke="#5d6589"/><line x1="869.3" y1="172" x2="869.3" y2="176" stroke="#5d6589"/><line x1="875" y1="172" x2="875" y2="176" stroke="#5d6589"/><line x1="880" y1="167" x2="880" y2="181" stroke="#c3cae6" stroke-width="1.3"/><text x="880" y="196" class="m" font-size="12" fill="#8f98bd" text-anchor="middle">10⁻⁷</text><line x1="913.1" y1="172" x2="913.1" y2="176" stroke="#5d6589"/><line x1="932.5" y1="172" x2="932.5" y2="176" stroke="#5d6589"/><line x1="946.2" y1="172" x2="946.2" y2="176" stroke="#5d6589"/><line x1="956.9" y1="172" x2="956.9" y2="176" stroke="#5d6589"/><line x1="965.6" y1="172" x2="965.6" y2="176" stroke="#5d6589"/><line x1="973" y1="172" x2="973" y2="176" stroke="#5d6589"/><line x1="979.3" y1="172" x2="979.3" y2="176" stroke="#5d6589"/><line x1="985" y1="172" x2="985" y2="176" stroke="#5d6589"/><line x1="990" y1="167" x2="990" y2="181" stroke="#c3cae6" stroke-width="1.3"/><text x="990" y="196" class="m" font-size="12" fill="#8f98bd" text-anchor="middle">10⁻⁶</text><line x1="1023.1" y1="172" x2="1023.1" y2="176" stroke="#5d6589"/><line x1="1042.5" y1="172" x2="1042.5" y2="176" stroke="#5d6589"/><line x1="1056.2" y1="172" x2="1056.2" y2="176" stroke="#5d6589"/><line x1="1066.9" y1="172" x2="1066.9" y2="176" stroke="#5d6589"/><line x1="1075.6" y1="172" x2="1075.6" y2="176" stroke="#5d6589"/><line x1="1083" y1="172" x2="1083" y2="176" stroke="#5d6589"/><line x1="1089.3" y1="172" x2="1089.3" y2="176" stroke="#5d6589"/><line x1="1095" y1="172" x2="1095" y2="176" stroke="#5d6589"/><line x1="1100" y1="167" x2="1100" y2="181" stroke="#c3cae6" stroke-width="1.3"/><text x="1100" y="196" class="m" font-size="12" fill="#8f98bd" text-anchor="middle">10⁻⁵</text><line x1="1133.1" y1="172" x2="1133.1" y2="176" stroke="#5d6589"/><line x1="1152.5" y1="172" x2="1152.5" y2="176" stroke="#5d6589"/><line x1="1166.2" y1="172" x2="1166.2" y2="176" stroke="#5d6589"/><line x1="1176.9" y1="172" x2="1176.9" y2="176" stroke="#5d6589"/><line x1="1185.6" y1="172" x2="1185.6" y2="176" stroke="#5d6589"/><line x1="1193" y1="172" x2="1193" y2="176" stroke="#5d6589"/><line x1="1199.3" y1="172" x2="1199.3" y2="176" stroke="#5d6589"/><line x1="1205" y1="172" x2="1205" y2="176" stroke="#5d6589"/><line x1="1210" y1="167" x2="1210" y2="181" stroke="#c3cae6" stroke-width="1.3"/><text x="1210" y="196" class="m" font-size="12" fill="#8f98bd" text-anchor="middle">10⁻⁴</text><line x1="1243.1" y1="172" x2="1243.1" y2="176" stroke="#5d6589"/><line x1="1262.5" y1="172" x2="1262.5" y2="176" stroke="#5d6589"/><line x1="1276.2" y1="172" x2="1276.2" y2="176" stroke="#5d6589"/><line x1="1286.9" y1="172" x2="1286.9" y2="176" stroke="#5d6589"/><line x1="1295.6" y1="172" x2="1295.6" y2="176" stroke="#5d6589"/><line x1="1303" y1="172" x2="1303" y2="176" stroke="#5d6589"/><line x1="1309.3" y1="172" x2="1309.3" y2="176" stroke="#5d6589"/><line x1="1315" y1="172" x2="1315" y2="176" stroke="#5d6589"/><line x1="1320" y1="167" x2="1320" y2="181" stroke="#c3cae6" stroke-width="1.3"/><text x="1320" y="196" class="m" font-size="12" fill="#8f98bd" text-anchor="middle">10⁻³</text><line x1="1353.1" y1="172" x2="1353.1" y2="176" stroke="#5d6589"/><line x1="1372.5" y1="172" x2="1372.5" y2="176" stroke="#5d6589"/><line x1="1386.2" y1="172" x2="1386.2" y2="176" stroke="#5d6589"/><line x1="1396.9" y1="172" x2="1396.9" y2="176" stroke="#5d6589"/><line x1="1405.6" y1="172" x2="1405.6" y2="176" stroke="#5d6589"/><line x1="1413" y1="172" x2="1413" y2="176" stroke="#5d6589"/><line x1="1419.3" y1="172" x2="1419.3" y2="176" stroke="#5d6589"/><line x1="1425" y1="172" x2="1425" y2="176" stroke="#5d6589"/><line x1="1430" y1="167" x2="1430" y2="181" stroke="#c3cae6" stroke-width="1.3"/><text x="1430" y="196" class="m" font-size="12" fill="#8f98bd" text-anchor="middle">10⁻²</text><line x1="1463.1" y1="172" x2="1463.1" y2="176" stroke="#5d6589"/><line x1="1482.5" y1="172" x2="1482.5" y2="176" stroke="#5d6589"/><line x1="1496.2" y1="172" x2="1496.2" y2="176" stroke="#5d6589"/><line x1="1506.9" y1="172" x2="1506.9" y2="176" stroke="#5d6589"/><line x1="1515.6" y1="172" x2="1515.6" y2="176" stroke="#5d6589"/><line x1="1523" y1="172" x2="1523" y2="176" stroke="#5d6589"/><line x1="1529.3" y1="172" x2="1529.3" y2="176" stroke="#5d6589"/><line x1="1535" y1="172" x2="1535" y2="176" stroke="#5d6589"/><line x1="1540" y1="167" x2="1540" y2="181" stroke="#c3cae6" stroke-width="1.3"/><text x="1540" y="196" class="m" font-size="12" fill="#8f98bd" text-anchor="middle">10⁻¹</text><line x1="1573.1" y1="172" x2="1573.1" y2="176" stroke="#5d6589"/><line x1="1592.5" y1="172" x2="1592.5" y2="176" stroke="#5d6589"/><line x1="1606.2" y1="172" x2="1606.2" y2="176" stroke="#5d6589"/><line x1="1616.9" y1="172" x2="1616.9" y2="176" stroke="#5d6589"/><line x1="1625.6" y1="172" x2="1625.6" y2="176" stroke="#5d6589"/><line x1="1633" y1="172" x2="1633" y2="176" stroke="#5d6589"/><line x1="1639.3" y1="172" x2="1639.3" y2="176" stroke="#5d6589"/><line x1="1645" y1="172" x2="1645" y2="176" stroke="#5d6589"/><line x1="1650" y1="167" x2="1650" y2="181" stroke="#c3cae6" stroke-width="1.3"/><text x="1650" y="196" class="m" font-size="12" fill="#8f98bd" text-anchor="middle">10⁰</text><line x1="1683.1" y1="172" x2="1683.1" y2="176" stroke="#5d6589"/><line x1="1702.5" y1="172" x2="1702.5" y2="176" stroke="#5d6589"/><line x1="1716.2" y1="172" x2="1716.2" y2="176" stroke="#5d6589"/><line x1="1726.9" y1="172" x2="1726.9" y2="176" stroke="#5d6589"/><line x1="1735.6" y1="172" x2="1735.6" y2="176" stroke="#5d6589"/><line x1="1743" y1="172" x2="1743" y2="176" stroke="#5d6589"/><line x1="1749.3" y1="172" x2="1749.3" y2="176" stroke="#5d6589"/><line x1="1755" y1="172" x2="1755" y2="176" stroke="#5d6589"/><line x1="1760" y1="167" x2="1760" y2="181" stroke="#c3cae6" stroke-width="1.3"/><text x="1760" y="196" class="m" font-size="12" fill="#8f98bd" text-anchor="middle">10¹</text><line x1="1793.1" y1="172" x2="1793.1" y2="176" stroke="#5d6589"/><line x1="1812.5" y1="172" x2="1812.5" y2="176" stroke="#5d6589"/><line x1="1826.2" y1="172" x2="1826.2" y2="176" stroke="#5d6589"/><line x1="1836.9" y1="172" x2="1836.9" y2="176" stroke="#5d6589"/><line x1="1845.6" y1="172" x2="1845.6" y2="176" stroke="#5d6589"/><line x1="1853" y1="172" x2="1853" y2="176" stroke="#5d6589"/><line x1="1859.3" y1="172" x2="1859.3" y2="176" stroke="#5d6589"/><line x1="1865" y1="172" x2="1865" y2="176" stroke="#5d6589"/><line x1="1870" y1="167" x2="1870" y2="181" stroke="#c3cae6" stroke-width="1.3"/><text x="1870" y="196" class="m" font-size="12" fill="#8f98bd" text-anchor="middle">10²</text><line x1="1903.1" y1="172" x2="1903.1" y2="176" stroke="#5d6589"/><line x1="1922.5" y1="172" x2="1922.5" y2="176" stroke="#5d6589"/><line x1="1936.2" y1="172" x2="1936.2" y2="176" stroke="#5d6589"/><line x1="1946.9" y1="172" x2="1946.9" y2="176" stroke="#5d6589"/><line x1="1955.6" y1="172" x2="1955.6" y2="176" stroke="#5d6589"/><line x1="1963" y1="172" x2="1963" y2="176" stroke="#5d6589"/><line x1="1969.3" y1="172" x2="1969.3" y2="176" stroke="#5d6589"/><line x1="1975" y1="172" x2="1975" y2="176" stroke="#5d6589"/><line x1="1980" y1="167" x2="1980" y2="181" stroke="#c3cae6" stroke-width="1.3"/><text x="1980" y="196" class="m" font-size="12" fill="#8f98bd" text-anchor="middle">10³</text><line x1="2013.1" y1="172" x2="2013.1" y2="176" stroke="#5d6589"/><line x1="2032.5" y1="172" x2="2032.5" y2="176" stroke="#5d6589"/><line x1="2046.2" y1="172" x2="2046.2" y2="176" stroke="#5d6589"/><line x1="2056.9" y1="172" x2="2056.9" y2="176" stroke="#5d6589"/><line x1="2065.6" y1="172" x2="2065.6" y2="176" stroke="#5d6589"/><line x1="2073" y1="172" x2="2073" y2="176" stroke="#5d6589"/><line x1="2079.3" y1="172" x2="2079.3" y2="176" stroke="#5d6589"/><line x1="2085" y1="172" x2="2085" y2="176" stroke="#5d6589"/><line x1="2090" y1="167" x2="2090" y2="181" stroke="#c3cae6" stroke-width="1.3"/><text x="2090" y="196" class="m" font-size="12" fill="#8f98bd" text-anchor="middle">10⁴</text><line x1="2123.1" y1="172" x2="2123.1" y2="176" stroke="#5d6589"/><line x1="2142.5" y1="172" x2="2142.5" y2="176" stroke="#5d6589"/><line x1="2156.2" y1="172" x2="2156.2" y2="176" stroke="#5d6589"/><line x1="2166.9" y1="172" x2="2166.9" y2="176" stroke="#5d6589"/><line x1="2175.6" y1="172" x2="2175.6" y2="176" stroke="#5d6589"/><line x1="2183" y1="172" x2="2183" y2="176" stroke="#5d6589"/><line x1="2189.3" y1="172" x2="2189.3" y2="176" stroke="#5d6589"/><line x1="2195" y1="172" x2="2195" y2="176" stroke="#5d6589"/><line x1="2200" y1="167" x2="2200" y2="181" stroke="#c3cae6" stroke-width="1.3"/><text x="2200" y="196" class="m" font-size="12" fill="#8f98bd" text-anchor="middle">10⁵</text><line x1="2233.1" y1="172" x2="2233.1" y2="176" stroke="#5d6589"/><line x1="2252.5" y1="172" x2="2252.5" y2="176" stroke="#5d6589"/><line x1="2266.2" y1="172" x2="2266.2" y2="176" stroke="#5d6589"/><line x1="2276.9" y1="172" x2="2276.9" y2="176" stroke="#5d6589"/><line x1="2285.6" y1="172" x2="2285.6" y2="176" stroke="#5d6589"/><line x1="2293" y1="172" x2="2293" y2="176" stroke="#5d6589"/><line x1="2299.3" y1="172" x2="2299.3" y2="176" stroke="#5d6589"/><line x1="2305" y1="172" x2="2305" y2="176" stroke="#5d6589"/><line x1="2310" y1="167" x2="2310" y2="181" stroke="#c3cae6" stroke-width="1.3"/><text x="2310" y="196" class="m" font-size="12" fill="#8f98bd" text-anchor="middle">10⁶</text><line x1="2343.1" y1="172" x2="2343.1" y2="176" stroke="#5d6589"/><line x1="2362.5" y1="172" x2="2362.5" y2="176" stroke="#5d6589"/><line x1="2376.2" y1="172" x2="2376.2" y2="176" stroke="#5d6589"/><line x1="2386.9" y1="172" x2="2386.9" y2="176" stroke="#5d6589"/><line x1="2395.6" y1="172" x2="2395.6" y2="176" stroke="#5d6589"/><line x1="2403" y1="172" x2="2403" y2="176" stroke="#5d6589"/><line x1="2409.3" y1="172" x2="2409.3" y2="176" stroke="#5d6589"/><line x1="2415" y1="172" x2="2415" y2="176" stroke="#5d6589"/><line x1="2420" y1="167" x2="2420" y2="181" stroke="#c3cae6" stroke-width="1.3"/><text x="2420" y="196" class="m" font-size="12" fill="#8f98bd" text-anchor="middle">10⁷</text><line x1="2453.1" y1="172" x2="2453.1" y2="176" stroke="#5d6589"/><line x1="2472.5" y1="172" x2="2472.5" y2="176" stroke="#5d6589"/><line x1="2486.2" y1="172" x2="2486.2" y2="176" stroke="#5d6589"/><line x1="2496.9" y1="172" x2="2496.9" y2="176" stroke="#5d6589"/><line x1="2505.6" y1="172" x2="2505.6" y2="176" stroke="#5d6589"/><line x1="2513" y1="172" x2="2513" y2="176" stroke="#5d6589"/><line x1="2519.3" y1="172" x2="2519.3" y2="176" stroke="#5d6589"/><line x1="2525" y1="172" x2="2525" y2="176" stroke="#5d6589"/><line x1="2530" y1="167" x2="2530" y2="181" stroke="#c3cae6" stroke-width="1.3"/><text x="2530" y="196" class="m" font-size="12" fill="#8f98bd" text-anchor="middle">10⁸</text><line x1="2563.1" y1="172" x2="2563.1" y2="176" stroke="#5d6589"/><line x1="2582.5" y1="172" x2="2582.5" y2="176" stroke="#5d6589"/><line x1="2596.2" y1="172" x2="2596.2" y2="176" stroke="#5d6589"/><line x1="2606.9" y1="172" x2="2606.9" y2="176" stroke="#5d6589"/><line x1="2615.6" y1="172" x2="2615.6" y2="176" stroke="#5d6589"/><line x1="2623" y1="172" x2="2623" y2="176" stroke="#5d6589"/><line x1="2629.3" y1="172" x2="2629.3" y2="176" stroke="#5d6589"/><line x1="2635" y1="172" x2="2635" y2="176" stroke="#5d6589"/><line x1="2640" y1="167" x2="2640" y2="181" stroke="#c3cae6" stroke-width="1.3"/><text x="2640" y="196" class="m" font-size="12" fill="#8f98bd" text-anchor="middle">10⁹</text><line x1="2673.1" y1="172" x2="2673.1" y2="176" stroke="#5d6589"/><line x1="2692.5" y1="172" x2="2692.5" y2="176" stroke="#5d6589"/><line x1="2706.2" y1="172" x2="2706.2" y2="176" stroke="#5d6589"/><line x1="2716.9" y1="172" x2="2716.9" y2="176" stroke="#5d6589"/><line x1="2725.6" y1="172" x2="2725.6" y2="176" stroke="#5d6589"/><line x1="2733" y1="172" x2="2733" y2="176" stroke="#5d6589"/><line x1="2739.3" y1="172" x2="2739.3" y2="176" stroke="#5d6589"/><line x1="2745" y1="172" x2="2745" y2="176" stroke="#5d6589"/><line x1="2750" y1="167" x2="2750" y2="181" stroke="#c3cae6" stroke-width="1.3"/><text x="2750" y="196" class="m" font-size="12" fill="#8f98bd" text-anchor="middle">10¹⁰</text><line x1="2783.1" y1="172" x2="2783.1" y2="176" stroke="#5d6589"/><line x1="2802.5" y1="172" x2="2802.5" y2="176" stroke="#5d6589"/><line x1="2816.2" y1="172" x2="2816.2" y2="176" stroke="#5d6589"/><line x1="2826.9" y1="172" x2="2826.9" y2="176" stroke="#5d6589"/><line x1="2835.6" y1="172" x2="2835.6" y2="176" stroke="#5d6589"/><line x1="2843" y1="172" x2="2843" y2="176" stroke="#5d6589"/><line x1="2849.3" y1="172" x2="2849.3" y2="176" stroke="#5d6589"/><line x1="2855" y1="172" x2="2855" y2="176" stroke="#5d6589"/><line x1="2860" y1="167" x2="2860" y2="181" stroke="#c3cae6" stroke-width="1.3"/><text x="2860" y="196" class="m" font-size="12" fill="#8f98bd" text-anchor="middle">10¹¹</text><line x1="2893.1" y1="172" x2="2893.1" y2="176" stroke="#5d6589"/><line x1="2912.5" y1="172" x2="2912.5" y2="176" stroke="#5d6589"/><line x1="2926.2" y1="172" x2="2926.2" y2="176" stroke="#5d6589"/><line x1="2936.9" y1="172" x2="2936.9" y2="176" stroke="#5d6589"/><line x1="2945.6" y1="172" x2="2945.6" y2="176" stroke="#5d6589"/><line x1="2953" y1="172" x2="2953" y2="176" stroke="#5d6589"/><line x1="2959.3" y1="172" x2="2959.3" y2="176" stroke="#5d6589"/><line x1="2965" y1="172" x2="2965" y2="176" stroke="#5d6589"/><line x1="2970" y1="167" x2="2970" y2="181" stroke="#c3cae6" stroke-width="1.3"/><text x="2970" y="196" class="m" font-size="12" fill="#8f98bd" text-anchor="middle">10¹²</text><line x1="3003.1" y1="172" x2="3003.1" y2="176" stroke="#5d6589"/><line x1="3022.5" y1="172" x2="3022.5" y2="176" stroke="#5d6589"/><line x1="3036.2" y1="172" x2="3036.2" y2="176" stroke="#5d6589"/><line x1="3046.9" y1="172" x2="3046.9" y2="176" stroke="#5d6589"/><line x1="3055.6" y1="172" x2="3055.6" y2="176" stroke="#5d6589"/><line x1="3063" y1="172" x2="3063" y2="176" stroke="#5d6589"/><line x1="3069.3" y1="172" x2="3069.3" y2="176" stroke="#5d6589"/><line x1="3075" y1="172" x2="3075" y2="176" stroke="#5d6589"/><line x1="3080" y1="167" x2="3080" y2="181" stroke="#c3cae6" stroke-width="1.3"/><text x="3080" y="196" class="m" font-size="12" fill="#8f98bd" text-anchor="middle">10¹³</text><line x1="3113.1" y1="172" x2="3113.1" y2="176" stroke="#5d6589"/><line x1="3132.5" y1="172" x2="3132.5" y2="176" stroke="#5d6589"/><line x1="3146.2" y1="172" x2="3146.2" y2="176" stroke="#5d6589"/><line x1="3156.9" y1="172" x2="3156.9" y2="176" stroke="#5d6589"/><line x1="3165.6" y1="172" x2="3165.6" y2="176" stroke="#5d6589"/><line x1="3173" y1="172" x2="3173" y2="176" stroke="#5d6589"/><line x1="3179.3" y1="172" x2="3179.3" y2="176" stroke="#5d6589"/><line x1="3185" y1="172" x2="3185" y2="176" stroke="#5d6589"/><line x1="3190" y1="167" x2="3190" y2="181" stroke="#c3cae6" stroke-width="1.3"/><text x="3190" y="196" class="m" font-size="12" fill="#8f98bd" text-anchor="middle">10¹⁴</text><line x1="3223.1" y1="172" x2="3223.1" y2="176" stroke="#5d6589"/><line x1="3242.5" y1="172" x2="3242.5" y2="176" stroke="#5d6589"/><line x1="3256.2" y1="172" x2="3256.2" y2="176" stroke="#5d6589"/><line x1="3266.9" y1="172" x2="3266.9" y2="176" stroke="#5d6589"/><line x1="3275.6" y1="172" x2="3275.6" y2="176" stroke="#5d6589"/><line x1="3283" y1="172" x2="3283" y2="176" stroke="#5d6589"/><line x1="3289.3" y1="172" x2="3289.3" y2="176" stroke="#5d6589"/><line x1="3295" y1="172" x2="3295" y2="176" stroke="#5d6589"/><line x1="3300" y1="167" x2="3300" y2="181" stroke="#c3cae6" stroke-width="1.3"/><text x="3300" y="196" class="m" font-size="12" fill="#8f98bd" text-anchor="middle">10¹⁵</text><line x1="3333.1" y1="172" x2="3333.1" y2="176" stroke="#5d6589"/><line x1="3352.5" y1="172" x2="3352.5" y2="176" stroke="#5d6589"/><line x1="3366.2" y1="172" x2="3366.2" y2="176" stroke="#5d6589"/><line x1="3376.9" y1="172" x2="3376.9" y2="176" stroke="#5d6589"/><line x1="3385.6" y1="172" x2="3385.6" y2="176" stroke="#5d6589"/><line x1="3393" y1="172" x2="3393" y2="176" stroke="#5d6589"/><line x1="3399.3" y1="172" x2="3399.3" y2="176" stroke="#5d6589"/><line x1="3405" y1="172" x2="3405" y2="176" stroke="#5d6589"/><line x1="3410" y1="167" x2="3410" y2="181" stroke="#c3cae6" stroke-width="1.3"/><text x="3410" y="196" class="m" font-size="12" fill="#8f98bd" text-anchor="middle">10¹⁶</text><line x1="3443.1" y1="172" x2="3443.1" y2="176" stroke="#5d6589"/><line x1="3462.5" y1="172" x2="3462.5" y2="176" stroke="#5d6589"/><line x1="3476.2" y1="172" x2="3476.2" y2="176" stroke="#5d6589"/><line x1="3486.9" y1="172" x2="3486.9" y2="176" stroke="#5d6589"/><line x1="3495.6" y1="172" x2="3495.6" y2="176" stroke="#5d6589"/><line x1="3503" y1="172" x2="3503" y2="176" stroke="#5d6589"/><line x1="3509.3" y1="172" x2="3509.3" y2="176" stroke="#5d6589"/><line x1="3515" y1="172" x2="3515" y2="176" stroke="#5d6589"/><line x1="3520" y1="167" x2="3520" y2="181" stroke="#c3cae6" stroke-width="1.3"/><text x="3520" y="196" class="m" font-size="12" fill="#8f98bd" text-anchor="middle">10¹⁷</text><line x1="3553.1" y1="172" x2="3553.1" y2="176" stroke="#5d6589"/><line x1="3572.5" y1="172" x2="3572.5" y2="176" stroke="#5d6589"/><line x1="3586.2" y1="172" x2="3586.2" y2="176" stroke="#5d6589"/><line x1="3596.9" y1="172" x2="3596.9" y2="176" stroke="#5d6589"/><line x1="3605.6" y1="172" x2="3605.6" y2="176" stroke="#5d6589"/><line x1="3613" y1="172" x2="3613" y2="176" stroke="#5d6589"/><line x1="3619.3" y1="172" x2="3619.3" y2="176" stroke="#5d6589"/><line x1="3625" y1="172" x2="3625" y2="176" stroke="#5d6589"/><line x1="3630" y1="167" x2="3630" y2="181" stroke="#c3cae6" stroke-width="1.3"/><text x="3630" y="196" class="m" font-size="12" fill="#8f98bd" text-anchor="middle">10¹⁸</text><line x1="3663.1" y1="172" x2="3663.1" y2="176" stroke="#5d6589"/><line x1="3682.5" y1="172" x2="3682.5" y2="176" stroke="#5d6589"/><line x1="3696.2" y1="172" x2="3696.2" y2="176" stroke="#5d6589"/><line x1="3706.9" y1="172" x2="3706.9" y2="176" stroke="#5d6589"/><line x1="3715.6" y1="172" x2="3715.6" y2="176" stroke="#5d6589"/><line x1="3723" y1="172" x2="3723" y2="176" stroke="#5d6589"/><line x1="3729.3" y1="172" x2="3729.3" y2="176" stroke="#5d6589"/><line x1="3735" y1="172" x2="3735" y2="176" stroke="#5d6589"/><line x1="3740" y1="167" x2="3740" y2="181" stroke="#c3cae6" stroke-width="1.3"/><text x="3740" y="196" class="m" font-size="12" fill="#8f98bd" text-anchor="middle">10¹⁹</text><line x1="3773.1" y1="172" x2="3773.1" y2="176" stroke="#5d6589"/><line x1="3792.5" y1="172" x2="3792.5" y2="176" stroke="#5d6589"/><line x1="3806.2" y1="172" x2="3806.2" y2="176" stroke="#5d6589"/><line x1="3816.9" y1="172" x2="3816.9" y2="176" stroke="#5d6589"/><line x1="3825.6" y1="172" x2="3825.6" y2="176" stroke="#5d6589"/><line x1="3833" y1="172" x2="3833" y2="176" stroke="#5d6589"/><line x1="3839.3" y1="172" x2="3839.3" y2="176" stroke="#5d6589"/><line x1="3845" y1="172" x2="3845" y2="176" stroke="#5d6589"/><line x1="3850" y1="167" x2="3850" y2="181" stroke="#c3cae6" stroke-width="1.3"/><text x="3850" y="196" class="m" font-size="12" fill="#8f98bd" text-anchor="middle">10²⁰</text><line x1="3883.1" y1="172" x2="3883.1" y2="176" stroke="#5d6589"/><line x1="3902.5" y1="172" x2="3902.5" y2="176" stroke="#5d6589"/><line x1="3916.2" y1="172" x2="3916.2" y2="176" stroke="#5d6589"/><line x1="3926.9" y1="172" x2="3926.9" y2="176" stroke="#5d6589"/><line x1="3935.6" y1="172" x2="3935.6" y2="176" stroke="#5d6589"/><line x1="3943" y1="172" x2="3943" y2="176" stroke="#5d6589"/><line x1="3949.3" y1="172" x2="3949.3" y2="176" stroke="#5d6589"/><line x1="3955" y1="172" x2="3955" y2="176" stroke="#5d6589"/><line x1="3960" y1="167" x2="3960" y2="181" stroke="#c3cae6" stroke-width="1.3"/><text x="3960" y="196" class="m" font-size="12" fill="#8f98bd" text-anchor="middle">10²¹</text><line x1="3993.1" y1="172" x2="3993.1" y2="176" stroke="#5d6589"/><line x1="4012.5" y1="172" x2="4012.5" y2="176" stroke="#5d6589"/><line x1="4026.2" y1="172" x2="4026.2" y2="176" stroke="#5d6589"/><line x1="4036.9" y1="172" x2="4036.9" y2="176" stroke="#5d6589"/><line x1="4045.6" y1="172" x2="4045.6" y2="176" stroke="#5d6589"/><line x1="4053" y1="172" x2="4053" y2="176" stroke="#5d6589"/><line x1="4059.3" y1="172" x2="4059.3" y2="176" stroke="#5d6589"/><line x1="4065" y1="172" x2="4065" y2="176" stroke="#5d6589"/><line x1="4070" y1="167" x2="4070" y2="181" stroke="#c3cae6" stroke-width="1.3"/><text x="4070" y="196" class="m" font-size="12" fill="#8f98bd" text-anchor="middle">10²²</text><line x1="4103.1" y1="172" x2="4103.1" y2="176" stroke="#5d6589"/><line x1="4122.5" y1="172" x2="4122.5" y2="176" stroke="#5d6589"/><line x1="4136.2" y1="172" x2="4136.2" y2="176" stroke="#5d6589"/><line x1="4146.9" y1="172" x2="4146.9" y2="176" stroke="#5d6589"/><line x1="4155.6" y1="172" x2="4155.6" y2="176" stroke="#5d6589"/><line x1="4163" y1="172" x2="4163" y2="176" stroke="#5d6589"/><line x1="4169.3" y1="172" x2="4169.3" y2="176" stroke="#5d6589"/><line x1="4175" y1="172" x2="4175" y2="176" stroke="#5d6589"/><line x1="4180" y1="167" x2="4180" y2="181" stroke="#c3cae6" stroke-width="1.3"/><text x="4180" y="196" class="m" font-size="12" fill="#8f98bd" text-anchor="middle">10²³</text><line x1="4213.1" y1="172" x2="4213.1" y2="176" stroke="#5d6589"/><line x1="4232.5" y1="172" x2="4232.5" y2="176" stroke="#5d6589"/><line x1="4246.2" y1="172" x2="4246.2" y2="176" stroke="#5d6589"/><line x1="4256.9" y1="172" x2="4256.9" y2="176" stroke="#5d6589"/><line x1="4265.6" y1="172" x2="4265.6" y2="176" stroke="#5d6589"/><line x1="4273" y1="172" x2="4273" y2="176" stroke="#5d6589"/><line x1="4279.3" y1="172" x2="4279.3" y2="176" stroke="#5d6589"/><line x1="4285" y1="172" x2="4285" y2="176" stroke="#5d6589"/><line x1="4290" y1="167" x2="4290" y2="181" stroke="#c3cae6" stroke-width="1.3"/><text x="4290" y="196" class="m" font-size="12" fill="#8f98bd" text-anchor="middle">10²⁴</text><line x1="4323.1" y1="172" x2="4323.1" y2="176" stroke="#5d6589"/><line x1="4342.5" y1="172" x2="4342.5" y2="176" stroke="#5d6589"/><line x1="4356.2" y1="172" x2="4356.2" y2="176" stroke="#5d6589"/><line x1="4366.9" y1="172" x2="4366.9" y2="176" stroke="#5d6589"/><line x1="4375.6" y1="172" x2="4375.6" y2="176" stroke="#5d6589"/><line x1="4383" y1="172" x2="4383" y2="176" stroke="#5d6589"/><line x1="4389.3" y1="172" x2="4389.3" y2="176" stroke="#5d6589"/><line x1="4395" y1="172" x2="4395" y2="176" stroke="#5d6589"/><line x1="4400" y1="167" x2="4400" y2="181" stroke="#c3cae6" stroke-width="1.3"/><text x="4400" y="196" class="m" font-size="12" fill="#8f98bd" text-anchor="middle">10²⁵</text><line x1="4433.1" y1="172" x2="4433.1" y2="176" stroke="#5d6589"/><line x1="4452.5" y1="172" x2="4452.5" y2="176" stroke="#5d6589"/><line x1="4466.2" y1="172" x2="4466.2" y2="176" stroke="#5d6589"/><line x1="4476.9" y1="172" x2="4476.9" y2="176" stroke="#5d6589"/><line x1="4485.6" y1="172" x2="4485.6" y2="176" stroke="#5d6589"/><line x1="4493" y1="172" x2="4493" y2="176" stroke="#5d6589"/><line x1="4499.3" y1="172" x2="4499.3" y2="176" stroke="#5d6589"/><line x1="4505" y1="172" x2="4505" y2="176" stroke="#5d6589"/><line x1="4510" y1="167" x2="4510" y2="181" stroke="#c3cae6" stroke-width="1.3"/><text x="4510" y="196" class="m" font-size="12" fill="#8f98bd" text-anchor="middle">10²⁶</text><line x1="4543.1" y1="172" x2="4543.1" y2="176" stroke="#5d6589"/><line x1="4562.5" y1="172" x2="4562.5" y2="176" stroke="#5d6589"/><line x1="4576.2" y1="172" x2="4576.2" y2="176" stroke="#5d6589"/><line x1="4586.9" y1="172" x2="4586.9" y2="176" stroke="#5d6589"/><line x1="4595.6" y1="172" x2="4595.6" y2="176" stroke="#5d6589"/><line x1="4603" y1="172" x2="4603" y2="176" stroke="#5d6589"/><line x1="4609.3" y1="172" x2="4609.3" y2="176" stroke="#5d6589"/><line x1="4615" y1="172" x2="4615" y2="176" stroke="#5d6589"/><line x1="4620" y1="167" x2="4620" y2="181" stroke="#c3cae6" stroke-width="1.3"/><text x="4620" y="196" class="m" font-size="12" fill="#8f98bd" text-anchor="middle">10²⁷</text><line x1="24.8" y1="146" x2="24.8" y2="175" stroke="#e9edff" stroke-opacity=".35" stroke-dasharray="1 3"/><circle cx="24.8" cy="176" r="3" fill="#e9edff"/><g transform="translate(24.8 104)"><circle r="13" fill="#ff4f9a" fill-opacity=".25" stroke="#ff4f9a"/><circle cx="-4" cy="-3" r="3" fill="#ff4f9a"/><circle cx="4" cy="-3" r="3" fill="#7cc8ff"/><circle cx="0" cy="4" r="3" fill="#ffc24b"/></g><text x="24.8" y="140" class="s" font-size="12.5" fill="#e9edff" text-anchor="middle" font-weight="700">proton</text><text x="24.8" y="154" class="s" font-size="11" fill="#c3cae6" text-anchor="middle">1.7 fm</text><line x1="552.7" y1="146" x2="552.7" y2="175" stroke="#e9edff" stroke-opacity=".35" stroke-dasharray="1 3"/><circle cx="552.7" cy="176" r="3" fill="#e9edff"/><g transform="translate(552.7 104)"><ellipse rx="16" ry="6" fill="none" stroke="#7cc8ff" transform="rotate(30)"/><ellipse rx="16" ry="6" fill="none" stroke="#7cc8ff" transform="rotate(-30)"/><circle r="3" fill="#ff4f9a"/></g><text x="552.7" y="140" class="s" font-size="12.5" fill="#e9edff" text-anchor="middle" font-weight="700">hydrogen atom</text><text x="552.7" y="154" class="s" font-size="11" fill="#c3cae6" text-anchor="middle">0.1 nm</text><line x1="1088.1" y1="146" x2="1088.1" y2="175" stroke="#e9edff" stroke-opacity=".35" stroke-dasharray="1 3"/><circle cx="1088.1" cy="176" r="3" fill="#e9edff"/><g transform="translate(1088.1 104)"><ellipse rx="16" ry="12" fill="#c0392b"/><ellipse rx="8" ry="5.5" fill="#e0675a"/></g><text x="1088.1" y="140" class="s" font-size="12.5" fill="#e9edff" text-anchor="middle" font-weight="700">red blood cell</text><text x="1088.1" y="154" class="s" font-size="11" fill="#c3cae6" text-anchor="middle">7.8 µm</text><line x1="1675.3" y1="146" x2="1675.3" y2="175" stroke="#ffc24b" stroke-opacity=".35" stroke-dasharray="1 3"/><circle cx="1675.3" cy="176" r="3" fill="#ffc24b"/><g transform="translate(1675.3 104)"><circle cy="-13" r="4" fill="#ffc24b"/><path d="M0 -8V5M0 5l-5 11M0 5l5 11M-7 -3H7" stroke="#ffc24b" stroke-width="2.6" stroke-linecap="round" fill="none"/></g><text x="1675.3" y="140" class="s" font-size="12.5" fill="#ffc24b" text-anchor="middle" font-weight="700">you</text><text x="1675.3" y="154" class="s" font-size="11" fill="#c3cae6" text-anchor="middle">1.7 m</text><line x1="1874.8" y1="146" x2="1874.8" y2="175" stroke="#e9edff" stroke-opacity=".35" stroke-dasharray="1 3"/><circle cx="1874.8" cy="176" r="3" fill="#e9edff"/><g transform="translate(1874.8 104)"><rect x="-3.5" y="-14" width="7" height="26" fill="#eef1fb"/><path d="M-3.5 -14L0 -20L3.5 -14Z" fill="#c9cfe6"/><rect x="-3.5" y="-2" width="7" height="2" fill="#141826"/><path d="M-3.5 12l-3 5h13l-3-5z" fill="#9aa4c8"/></g><text x="1874.8" y="140" class="s" font-size="12.5" fill="#e9edff" text-anchor="middle" font-weight="700">Saturn V</text><text x="1874.8" y="154" class="s" font-size="11" fill="#c3cae6" text-anchor="middle">111 m</text><line x1="2431.6" y1="146" x2="2431.6" y2="175" stroke="#e9edff" stroke-opacity=".35" stroke-dasharray="1 3"/><circle cx="2431.6" cy="176" r="3" fill="#e9edff"/><g transform="translate(2431.6 104)"><circle r="15" fill="#2f6fc2"/><path d="M-9 -6q5 -6 10 -2t3 7q-6 3 -9 -1t-4 -4zM4 5q6 -1 7 4t-6 3z" fill="#4caf6a"/><circle r="15" fill="none" stroke="#9fd0ff" stroke-opacity=".6"/></g><text x="2431.6" y="140" class="s" font-size="12.5" fill="#e9edff" text-anchor="middle" font-weight="700">Earth</text><text x="2431.6" y="154" class="s" font-size="11" fill="#c3cae6" text-anchor="middle">12,742 km</text><line x1="2655.8" y1="146" x2="2655.8" y2="175" stroke="#e9edff" stroke-opacity=".35" stroke-dasharray="1 3"/><circle cx="2655.8" cy="176" r="3" fill="#e9edff"/><g transform="translate(2655.8 104)"><circle r="20" fill="#ff7a3d" opacity=".25"/><circle r="14" fill="#ffc24b"/></g><text x="2655.8" y="140" class="s" font-size="12.5" fill="#e9edff" text-anchor="middle" font-weight="700">the Sun</text><text x="2655.8" y="154" class="s" font-size="11" fill="#c3cae6" text-anchor="middle">1.39 million km</text><line x1="2879.2" y1="146" x2="2879.2" y2="175" stroke="#e9edff" stroke-opacity=".35" stroke-dasharray="1 3"/><circle cx="2879.2" cy="176" r="3" fill="#e9edff"/><g transform="translate(2879.2 104)"><circle cx="-16" r="6" fill="#ffc24b"/><circle cx="16" r="2.5" fill="#6fb4ff"/><path d="M-9 0H13" stroke="#c3cae6" stroke-dasharray="2 2"/></g><text x="2879.2" y="140" class="s" font-size="12.5" fill="#e9edff" text-anchor="middle" font-weight="700">1 AU</text><text x="2879.2" y="154" class="s" font-size="11" fill="#c3cae6" text-anchor="middle">Earth–Sun, 150 million km</text><line x1="3407.4" y1="146" x2="3407.4" y2="175" stroke="#e9edff" stroke-opacity=".35" stroke-dasharray="1 3"/><circle cx="3407.4" cy="176" r="3" fill="#e9edff"/><g transform="translate(3407.4 104)"><path d="M-18 0H14" stroke="#fff3c4" stroke-width="2.5"/><path d="M10 -5L18 0L10 5" fill="none" stroke="#fff3c4" stroke-width="2"/><circle cx="-18" r="3" fill="#fff"/></g><text x="3407.4" y="140" class="s" font-size="12.5" fill="#e9edff" text-anchor="middle" font-weight="700">1 light-year</text><text x="3407.4" y="154" class="s" font-size="11" fill="#c3cae6" text-anchor="middle">9.46 trillion km</text><line x1="3957.3" y1="146" x2="3957.3" y2="175" stroke="#e9edff" stroke-opacity=".35" stroke-dasharray="1 3"/><circle cx="3957.3" cy="176" r="3" fill="#e9edff"/><g transform="translate(3957.3 104)"><ellipse rx="18" ry="7" fill="#b18cff" opacity=".25"/><path d="M0 0c6 -1 10 3 6 6s-16 1 -16 -5s12 -9 19 -3" fill="none" stroke="#b18cff" stroke-width="2"/><circle r="2.5" fill="#fff4d6"/></g><text x="3957.3" y="140" class="s" font-size="12.5" fill="#e9edff" text-anchor="middle" font-weight="700">Milky Way</text><text x="3957.3" y="154" class="s" font-size="11" fill="#c3cae6" text-anchor="middle">100,000 light-years</text><line x1="4613.9" y1="146" x2="4613.9" y2="175" stroke="#e9edff" stroke-opacity=".35" stroke-dasharray="1 3"/><circle cx="4613.9" cy="176" r="3" fill="#e9edff"/><g transform="translate(4613.9 104)"><circle r="16" fill="#1b1540" stroke="#b18cff"/><circle cx="-6.8" cy="1.1" r=".9" fill="#7cc8ff"/><circle cx="-3.4" cy="2.7" r=".9" fill="#7cc8ff"/><circle cx="3.3" cy="-11.3" r=".9" fill="#7cc8ff"/><circle cx="-12.7" cy="8.8" r=".9" fill="#7cc8ff"/><circle cx="-6.3" cy="-6.9" r=".9" fill="#7cc8ff"/><circle cx="12.9" cy="-0.8" r=".9" fill="#7cc8ff"/><circle cx="8.7" cy="-0.6" r=".9" fill="#7cc8ff"/><circle cx="3.6" cy="-9.1" r=".9" fill="#7cc8ff"/><circle cx="3.5" cy="9.6" r=".9" fill="#7cc8ff"/><circle cx="0.6" cy="6.3" r=".9" fill="#7cc8ff"/><circle cx="4.5" cy="-11.3" r=".9" fill="#7cc8ff"/><circle cx="6.7" cy="2.4" r=".9" fill="#7cc8ff"/><circle cx="-5.2" cy="-12.2" r=".9" fill="#7cc8ff"/><circle cx="9.5" cy="-0.7" r=".9" fill="#7cc8ff"/><circle cx="5.7" cy="9.8" r=".9" fill="#7cc8ff"/><circle cx="5.6" cy="10.9" r=".9" fill="#7cc8ff"/><circle cx="-2.7" cy="7.8" r=".9" fill="#7cc8ff"/><circle cx="-1.4" cy="11.3" r=".9" fill="#7cc8ff"/><circle cx="9.9" cy="-10.5" r=".9" fill="#7cc8ff"/><circle cx="-9.5" cy="-7.4" r=".9" fill="#7cc8ff"/><circle cx="12.1" cy="-1.7" r=".9" fill="#7cc8ff"/><circle cx="3.3" cy="-5.2" r=".9" fill="#7cc8ff"/></g><text x="4613.9" y="140" class="s" font-size="12.5" fill="#e9edff" text-anchor="middle" font-weight="700">observable universe</text><text x="4613.9" y="154" class="s" font-size="11" fill="#c3cae6" text-anchor="middle">93 billion light-years</text><g transform="translate(1675.3 72)"><rect x="-38" y="-10" width="76" height="17" rx="8.5" fill="#ffc24b"/><text x="0" y="3" class="m" font-size="9.5" fill="#1a1200" text-anchor="middle" font-weight="800">YOU ARE HERE</text><path d="M-4 7L0 12L4 7Z" fill="#ffc24b"/></g></g></g><rect x="1" y="1" width="998" height="218" fill="url(#edge)" clip-path="url(#cclip)"/><text x="28" y="28" class="m" font-size="11" letter-spacing="1.6" fill="#7cc8ff">COSMIC SCALE · 42 POWERS OF TEN</text><text x="28" y="51" class="s" font-size="18" font-weight="700" fill="#e9edff">From a proton to the observable universe</text><line x1="500" y1="66" x2="500" y2="202" stroke="#7cc8ff" stroke-width="1.5" stroke-opacity=".8"/><path d="M494 206L500 200L506 206Z" fill="#7cc8ff"/><text x="564" y="42" class="s" font-size="11" fill="#8f98bd">← at the cursor</text><defs><clipPath id="cc"><rect x="440" y="28" width="120" height="26"/></clipPath></defs><g class="smil" clip-path="url(#cc)"><g><text x="500" y="47" class="m" font-size="22" fill="#e9edff" text-anchor="middle" font-weight="700">10⁻¹⁵ m</text><text x="500" y="73" class="m" font-size="22" fill="#e9edff" text-anchor="middle" font-weight="700">10⁻¹⁴ m</text><text x="500" y="99" class="m" font-size="22" fill="#e9edff" text-anchor="middle" font-weight="700">10⁻¹³ m</text><text x="500" y="125" class="m" font-size="22" fill="#e9edff" text-anchor="middle" font-weight="700">10⁻¹² m</text><text x="500" y="151" class="m" font-size="22" fill="#e9edff" text-anchor="middle" font-weight="700">10⁻¹¹ m</text><text x="500" y="177" class="m" font-size="22" fill="#e9edff" text-anchor="middle" font-weight="700">10⁻¹⁰ m</text><text x="500" y="203" class="m" font-size="22" fill="#e9edff" text-anchor="middle" font-weight="700">10⁻⁹ m</text><text x="500" y="229" class="m" font-size="22" fill="#e9edff" text-anchor="middle" font-weight="700">10⁻⁸ m</text><text x="500" y="255" class="m" font-size="22" fill="#e9edff" text-anchor="middle" font-weight="700">10⁻⁷ m</text><text x="500" y="281" class="m" font-size="22" fill="#e9edff" text-anchor="middle" font-weight="700">10⁻⁶ m</text><text x="500" y="307" class="m" font-size="22" fill="#e9edff" text-anchor="middle" font-weight="700">10⁻⁵ m</text><text x="500" y="333" class="m" font-size="22" fill="#e9edff" text-anchor="middle" font-weight="700">10⁻⁴ m</text><text x="500" y="359" class="m" font-size="22" fill="#e9edff" text-anchor="middle" font-weight="700">10⁻³ m</text><text x="500" y="385" class="m" font-size="22" fill="#e9edff" text-anchor="middle" font-weight="700">10⁻² m</text><text x="500" y="411" class="m" font-size="22" fill="#e9edff" text-anchor="middle" font-weight="700">10⁻¹ m</text><text x="500" y="437" class="m" font-size="22" fill="#e9edff" text-anchor="middle" font-weight="700">10⁰ m</text><text x="500" y="463" class="m" font-size="22" fill="#e9edff" text-anchor="middle" font-weight="700">10¹ m</text><text x="500" y="489" class="m" font-size="22" fill="#e9edff" text-anchor="middle" font-weight="700">10² m</text><text x="500" y="515" class="m" font-size="22" fill="#e9edff" text-anchor="middle" font-weight="700">10³ m</text><text x="500" y="541" class="m" font-size="22" fill="#e9edff" text-anchor="middle" font-weight="700">10⁴ m</text><text x="500" y="567" class="m" font-size="22" fill="#e9edff" text-anchor="middle" font-weight="700">10⁵ m</text><text x="500" y="593" class="m" font-size="22" fill="#e9edff" text-anchor="middle" font-weight="700">10⁶ m</text><text x="500" y="619" class="m" font-size="22" fill="#e9edff" text-anchor="middle" font-weight="700">10⁷ m</text><text x="500" y="645" class="m" font-size="22" fill="#e9edff" text-anchor="middle" font-weight="700">10⁸ m</text><text x="500" y="671" class="m" font-size="22" fill="#e9edff" text-anchor="middle" font-weight="700">10⁹ m</text><text x="500" y="697" class="m" font-size="22" fill="#e9edff" text-anchor="middle" font-weight="700">10¹⁰ m</text><text x="500" y="723" class="m" font-size="22" fill="#e9edff" text-anchor="middle" font-weight="700">10¹¹ m</text><text x="500" y="749" class="m" font-size="22" fill="#e9edff" text-anchor="middle" font-weight="700">10¹² m</text><text x="500" y="775" class="m" font-size="22" fill="#e9edff" text-anchor="middle" font-weight="700">10¹³ m</text><text x="500" y="801" class="m" font-size="22" fill="#e9edff" text-anchor="middle" font-weight="700">10¹⁴ m</text><text x="500" y="827" class="m" font-size="22" fill="#e9edff" text-anchor="middle" font-weight="700">10¹⁵ m</text><text x="500" y="853" class="m" font-size="22" fill="#e9edff" text-anchor="middle" font-weight="700">10¹⁶ m</text><text x="500" y="879" class="m" font-size="22" fill="#e9edff" text-anchor="middle" font-weight="700">10¹⁷ m</text><text x="500" y="905" class="m" font-size="22" fill="#e9edff" text-anchor="middle" font-weight="700">10¹⁸ m</text><text x="500" y="931" class="m" font-size="22" fill="#e9edff" text-anchor="middle" font-weight="700">10¹⁹ m</text><text x="500" y="957" class="m" font-size="22" fill="#e9edff" text-anchor="middle" font-weight="700">10²⁰ m</text><text x="500" y="983" class="m" font-size="22" fill="#e9edff" text-anchor="middle" font-weight="700">10²¹ m</text><text x="500" y="1009" class="m" font-size="22" fill="#e9edff" text-anchor="middle" font-weight="700">10²² m</text><text x="500" y="1035" class="m" font-size="22" fill="#e9edff" text-anchor="middle" font-weight="700">10²³ m</text><text x="500" y="1061" class="m" font-size="22" fill="#e9edff" text-anchor="middle" font-weight="700">10²⁴ m</text><text x="500" y="1087" class="m" font-size="22" fill="#e9edff" text-anchor="middle" font-weight="700">10²⁵ m</text><text x="500" y="1113" class="m" font-size="22" fill="#e9edff" text-anchor="middle" font-weight="700">10²⁶ m</text><text x="500" y="1139" class="m" font-size="22" fill="#e9edff" text-anchor="middle" font-weight="700">10²⁷ m</text><animateTransform attributeName="transform" type="translate" calcMode="discrete" values="0 0;0 -26;0 -52;0 -78;0 -104;0 -130;0 -156;0 -182;0 -208;0 -234;0 -260;0 -286;0 -312;0 -338;0 -364;0 -390;0 -416;0 -442;0 -468;0 -494;0 -520;0 -546;0 -572;0 -598;0 -624;0 -650;0 -676;0 -702;0 -728;0 -754;0 -780;0 -806;0 -832;0 -858;0 -884;0 -910;0 -936;0 -962;0 -988;0 -1014;0 -1040;0 -1066;0 -1092;0 -1066;0 -1040;0 -1014;0 -988;0 -962;0 -936;0 -910;0 -884;0 -858;0 -832;0 -806;0 -780;0 -754;0 -728;0 -702;0 -676;0 -650;0 -624;0 -598;0 -572;0 -546;0 -520;0 -494;0 -468;0 -442;0 -416;0 -390;0 -364;0 -338;0 -312;0 -286;0 -260;0 -234;0 -208;0 -182;0 -156;0 -130;0 -104;0 -78;0 -52;0 -26;0 0" keyTimes="0;0.0594;0.0748;0.0902;0.1056;0.121;0.1364;0.1518;0.1672;0.1826;0.198;0.2134;0.2288;0.2442;0.2595;0.2749;0.2903;0.3057;0.3211;0.3365;0.3519;0.3673;0.3827;0.3981;0.4135;0.4289;0.4443;0.4597;0.4751;0.4905;0.5058;0.5212;0.5366;0.552;0.5674;0.5828;0.5982;0.6136;0.629;0.6444;0.6598;0.6752;0.6906;0.7698;0.7749;0.7801;0.7852;0.7903;0.7955;0.8006;0.8057;0.8109;0.816;0.8211;0.8263;0.8314;0.8365;0.8416;0.8468;0.8519;0.857;0.8622;0.8673;0.8724;0.8776;0.8827;0.8878;0.893;0.8981;0.9032;0.9084;0.9135;0.9186;0.9237;0.9289;0.934;0.9391;0.9443;0.9494;0.9545;0.9597;0.9648;0.9699;0.9751;0.9802" dur="23.2s" repeatCount="indefinite"/></g></g><g class="still"><text x="500" y="47" class="m" font-size="22" fill="#e9edff" text-anchor="middle" font-weight="700">10⁰ m</text></g></svg>