<svg xmlns="http://www.w3.org/2000/svg" viewBox="0 0 800 360" width="800" height="360" role="img" aria-labelledby="ttl dsc"><title id="ttl">Saturn V staging, Apollo 11</title><desc id="dsc">Animated Saturn V (Apollo 11, AS-506) staging sequence: the stack sheds the S-IC first stage, the launch escape tower and the S-II second stage while a playhead draws altitude and inertial speed against mission time (1 s of animation = 1 min). Event times are Apollo 11 range times from the Saturn V Launch Vehicle Flight Evaluation Report AS-506 (Table 2-2), as used in site/assets/js/launch-physics.js: S-IC outboard engine cutoff T+161.63 s (2 min 42 s), S-IC/S-II separation 162.3 s, S-II ignition 163.0 s, launch escape tower jettison 197.9 s, S-II cutoff 548.22 s (9 min 08 s), S-II/S-IVB separation 549.1 s, S-IVB ignition 552.2 s, S-IVB cutoff 699.33 s (11 min 39 s). Altitude and inertial speed curves are the Cosmic Library ascent model (AscentSim, sampled every 10 s): 64.4 km / 2.60 km/s at S-IC cutoff, 93.4 km / 2.81 km/s at tower jettison, 181.6 km / 6.72 km/s at S-II cutoff; the model reaches orbit at T+712 s vs 699 s flown. Parking orbit 185.9 × 183.2 km (Apollo 11 mission report); 7.79 km/s = √(μ/r) at 184.5 km altitude (Apollo 11 insertion: 25,567 ft/s = 7.79 km/s). Lift-off mass 2,941 t.</desc><style>.s{font-family:"Segoe UI", -apple-system, BlinkMacSystemFont, "Helvetica Neue", Arial, sans-serif}.m{font-family:ui-monospace, SFMono-Regular, Menlo, Consolas, monospace}.smil,.still{}.still{display:none}@media (prefers-reduced-motion:reduce){*{animation:none!important}.smil{display:none}.still{display:inline}}@keyframes sky{0%{opacity:.75}6.114%{opacity:.75}17.031%{opacity:.12}22.489%{opacity:0}100%{opacity:0}}.sky{animation:sky 15.267s linear infinite}@keyframes strm{0%{transform:translateY(0px)}100%{transform:translateY(268px)}}.strm{animation:strm 2.4s linear infinite}.sic{transform-box:fill-box;transform-origin:50% 50%}@keyframes sic{0%{transform:translateY(0px) rotate(0deg);opacity:1}21.648%{transform:translateY(0px) rotate(0deg);opacity:1}28.648%{transform:translateY(150px) rotate(-12deg);opacity:0}97%{transform:translateY(150px) rotate(-12deg);opacity:0}99%{transform:translateY(0px) rotate(0deg);opacity:1}100%{transform:translateY(0px) rotate(0deg);opacity:1}}.sic{animation:sic 15.267s linear infinite}.s2{transform-box:fill-box;transform-origin:50% 50%}@keyframes s2{0%{transform:translateY(0px) rotate(0deg);opacity:1}63.876%{transform:translateY(0px) rotate(0deg);opacity:1}70.876%{transform:translateY(120px) rotate(10deg);opacity:0}97%{transform:translateY(120px) rotate(10deg);opacity:0}99%{transform:translateY(0px) rotate(0deg);opacity:1}100%{transform:translateY(0px) rotate(0deg);opacity:1}}.s2{animation:s2 15.267s linear infinite}.les{transform-box:fill-box;transform-origin:50% 50%}@keyframes les{0%{transform:translateY(0px) rotate(0deg);opacity:1}25.535%{transform:translateY(0px) rotate(0deg);opacity:1}32.535%{transform:translateY(-110px) rotate(25deg);opacity:0}97%{transform:translateY(-110px) rotate(25deg);opacity:0}99%{transform:translateY(0px) rotate(0deg);opacity:1}100%{transform:translateY(0px) rotate(0deg);opacity:1}}.les{animation:les 15.267s linear infinite}.sic,.s2,.les{opacity:0}.f1{transform-box:fill-box;transform-origin:50% 0;opacity:0}@keyframes f1{0%{opacity:0}3.721%{opacity:0}4.221%{opacity:1}4.258%{opacity:1;transform:scaleY(0.9)}5.24%{opacity:1;transform:scaleY(1.08)}6.223%{opacity:1;transform:scaleY(0.9)}7.205%{opacity:1;transform:scaleY(1.08)}8.188%{opacity:1;transform:scaleY(0.9)}9.17%{opacity:1;transform:scaleY(1.08)}10.153%{opacity:1;transform:scaleY(0.9)}11.135%{opacity:1;transform:scaleY(1.08)}12.118%{opacity:1;transform:scaleY(0.9)}13.1%{opacity:1;transform:scaleY(1.08)}14.083%{opacity:1;transform:scaleY(0.9)}15.066%{opacity:1;transform:scaleY(1.08)}16.048%{opacity:1;transform:scaleY(0.9)}17.031%{opacity:1;transform:scaleY(1.08)}18.013%{opacity:1;transform:scaleY(0.9)}18.996%{opacity:1;transform:scaleY(1.08)}19.978%{opacity:1;transform:scaleY(0.9)}20.961%{opacity:1;transform:scaleY(1.08)}21.575%{opacity:1}22.175%{opacity:0}100%{opacity:0}}.f1{animation:f1 15.267s linear infinite}.f2{transform-box:fill-box;transform-origin:50% 0;opacity:0}@keyframes f2{0%{opacity:0}21.625%{opacity:0}22.125%{opacity:1}22.162%{opacity:1;transform:scaleY(0.9)}23.144%{opacity:1;transform:scaleY(1.08)}24.127%{opacity:1;transform:scaleY(0.9)}25.109%{opacity:1;transform:scaleY(1.08)}26.092%{opacity:1;transform:scaleY(0.9)}27.074%{opacity:1;transform:scaleY(1.08)}28.057%{opacity:1;transform:scaleY(0.9)}29.039%{opacity:1;transform:scaleY(1.08)}30.022%{opacity:1;transform:scaleY(0.9)}31.004%{opacity:1;transform:scaleY(1.08)}31.987%{opacity:1;transform:scaleY(0.9)}32.969%{opacity:1;transform:scaleY(1.08)}33.952%{opacity:1;transform:scaleY(0.9)}34.934%{opacity:1;transform:scaleY(1.08)}35.917%{opacity:1;transform:scaleY(0.9)}36.9%{opacity:1;transform:scaleY(1.08)}37.882%{opacity:1;transform:scaleY(0.9)}38.865%{opacity:1;transform:scaleY(1.08)}39.847%{opacity:1;transform:scaleY(0.9)}40.83%{opacity:1;transform:scaleY(1.08)}41.812%{opacity:1;transform:scaleY(0.9)}42.795%{opacity:1;transform:scaleY(1.08)}43.777%{opacity:1;transform:scaleY(0.9)}44.76%{opacity:1;transform:scaleY(1.08)}45.742%{opacity:1;transform:scaleY(0.9)}46.725%{opacity:1;transform:scaleY(1.08)}47.707%{opacity:1;transform:scaleY(0.9)}48.69%{opacity:1;transform:scaleY(1.08)}49.672%{opacity:1;transform:scaleY(0.9)}50.655%{opacity:1;transform:scaleY(1.08)}51.638%{opacity:1;transform:scaleY(0.9)}52.62%{opacity:1;transform:scaleY(1.08)}53.603%{opacity:1;transform:scaleY(0.9)}54.585%{opacity:1;transform:scaleY(1.08)}55.568%{opacity:1;transform:scaleY(0.9)}56.55%{opacity:1;transform:scaleY(1.08)}57.533%{opacity:1;transform:scaleY(0.9)}58.515%{opacity:1;transform:scaleY(1.08)}59.498%{opacity:1;transform:scaleY(0.9)}60.48%{opacity:1;transform:scaleY(1.08)}61.463%{opacity:1;transform:scaleY(0.9)}62.445%{opacity:1;transform:scaleY(1.08)}63.779%{opacity:1}64.379%{opacity:0}100%{opacity:0}}.f2{animation:f2 15.267s linear infinite}.f4{transform-box:fill-box;transform-origin:50% 0;opacity:0}@keyframes f4{0%{opacity:0}64.114%{opacity:0}64.614%{opacity:1}64.651%{opacity:1;transform:scaleY(0.9)}65.633%{opacity:1;transform:scaleY(1.08)}66.616%{opacity:1;transform:scaleY(0.9)}67.598%{opacity:1;transform:scaleY(1.08)}68.581%{opacity:1;transform:scaleY(0.9)}69.563%{opacity:1;transform:scaleY(1.08)}70.546%{opacity:1;transform:scaleY(0.9)}71.528%{opacity:1;transform:scaleY(1.08)}72.511%{opacity:1;transform:scaleY(0.9)}73.493%{opacity:1;transform:scaleY(1.08)}74.476%{opacity:1;transform:scaleY(0.9)}75.459%{opacity:1;transform:scaleY(1.08)}76.441%{opacity:1;transform:scaleY(0.9)}77.424%{opacity:1;transform:scaleY(1.08)}78.406%{opacity:1;transform:scaleY(0.9)}79.389%{opacity:1;transform:scaleY(1.08)}80.276%{opacity:1}80.876%{opacity:0}100%{opacity:0}}.f4{animation:f4 15.267s linear infinite}.ch{stroke-dashoffset:0}@keyframes ch{0%{stroke-dashoffset:516.6}3.93%{stroke-dashoffset:516.6}5.022%{stroke-dashoffset:509.8}6.114%{stroke-dashoffset:502.9}7.205%{stroke-dashoffset:496}8.297%{stroke-dashoffset:489}9.389%{stroke-dashoffset:482.1}10.48%{stroke-dashoffset:475.1}11.572%{stroke-dashoffset:468}12.664%{stroke-dashoffset:460.8}13.755%{stroke-dashoffset:453.4}14.847%{stroke-dashoffset:445.9}15.939%{stroke-dashoffset:438.1}17.031%{stroke-dashoffset:430.1}18.122%{stroke-dashoffset:422}19.214%{stroke-dashoffset:413.5}20.306%{stroke-dashoffset:404.8}21.397%{stroke-dashoffset:395.9}22.489%{stroke-dashoffset:386.9}23.581%{stroke-dashoffset:378.2}24.672%{stroke-dashoffset:369.7}25.764%{stroke-dashoffset:361.4}26.856%{stroke-dashoffset:353.2}27.948%{stroke-dashoffset:345.2}29.039%{stroke-dashoffset:337.2}30.131%{stroke-dashoffset:329.4}31.223%{stroke-dashoffset:321.7}32.314%{stroke-dashoffset:314.1}33.406%{stroke-dashoffset:306.5}34.498%{stroke-dashoffset:299.1}35.59%{stroke-dashoffset:291.8}36.681%{stroke-dashoffset:284.5}37.773%{stroke-dashoffset:277.3}38.865%{stroke-dashoffset:270.1}39.956%{stroke-dashoffset:263}41.048%{stroke-dashoffset:255.9}42.14%{stroke-dashoffset:248.8}43.231%{stroke-dashoffset:241.8}44.323%{stroke-dashoffset:234.8}45.415%{stroke-dashoffset:227.8}46.507%{stroke-dashoffset:220.8}47.598%{stroke-dashoffset:213.9}48.69%{stroke-dashoffset:207}49.782%{stroke-dashoffset:200}50.873%{stroke-dashoffset:193.1}51.965%{stroke-dashoffset:186.2}53.057%{stroke-dashoffset:179.2}54.148%{stroke-dashoffset:172.3}55.24%{stroke-dashoffset:165.4}56.332%{stroke-dashoffset:158.5}57.424%{stroke-dashoffset:151.6}58.515%{stroke-dashoffset:144.7}59.607%{stroke-dashoffset:137.8}60.699%{stroke-dashoffset:130.9}61.79%{stroke-dashoffset:124}62.882%{stroke-dashoffset:117.1}63.974%{stroke-dashoffset:110.2}65.066%{stroke-dashoffset:103.3}66.157%{stroke-dashoffset:96.4}67.249%{stroke-dashoffset:89.6}68.341%{stroke-dashoffset:82.7}69.432%{stroke-dashoffset:75.8}70.524%{stroke-dashoffset:68.9}71.616%{stroke-dashoffset:62}72.707%{stroke-dashoffset:55.1}73.799%{stroke-dashoffset:48.2}74.891%{stroke-dashoffset:41.3}75.983%{stroke-dashoffset:34.4}77.074%{stroke-dashoffset:27.6}78.166%{stroke-dashoffset:20.7}79.258%{stroke-dashoffset:13.8}80.349%{stroke-dashoffset:6.9}81.441%{stroke-dashoffset:0}96.5%{stroke-dashoffset:0}99%{stroke-dashoffset:516.6}100%{stroke-dashoffset:516.6}}.ch{animation:ch 15.267s linear infinite}.cv{stroke-dashoffset:0}@keyframes cv{0%{stroke-dashoffset:508.3}3.93%{stroke-dashoffset:508.3}5.022%{stroke-dashoffset:501.4}6.114%{stroke-dashoffset:494.5}7.205%{stroke-dashoffset:487.6}8.297%{stroke-dashoffset:480.7}9.389%{stroke-dashoffset:473.8}10.48%{stroke-dashoffset:466.8}11.572%{stroke-dashoffset:459.8}12.664%{stroke-dashoffset:452.6}13.755%{stroke-dashoffset:445.4}14.847%{stroke-dashoffset:438}15.939%{stroke-dashoffset:430.3}17.031%{stroke-dashoffset:422.5}18.122%{stroke-dashoffset:414.4}19.214%{stroke-dashoffset:406.2}20.306%{stroke-dashoffset:398}21.397%{stroke-dashoffset:389.5}22.489%{stroke-dashoffset:382.5}23.581%{stroke-dashoffset:375.5}24.672%{stroke-dashoffset:368.6}25.764%{stroke-dashoffset:361.7}26.856%{stroke-dashoffset:354.7}27.948%{stroke-dashoffset:347.8}29.039%{stroke-dashoffset:340.8}30.131%{stroke-dashoffset:333.9}31.223%{stroke-dashoffset:326.9}32.314%{stroke-dashoffset:319.9}33.406%{stroke-dashoffset:312.9}34.498%{stroke-dashoffset:305.9}35.59%{stroke-dashoffset:298.9}36.681%{stroke-dashoffset:291.8}37.773%{stroke-dashoffset:284.8}38.865%{stroke-dashoffset:277.8}39.956%{stroke-dashoffset:270.7}41.048%{stroke-dashoffset:263.7}42.14%{stroke-dashoffset:256.6}43.231%{stroke-dashoffset:249.5}44.323%{stroke-dashoffset:242.4}45.415%{stroke-dashoffset:235.2}46.507%{stroke-dashoffset:228.1}47.598%{stroke-dashoffset:220.9}48.69%{stroke-dashoffset:213.7}49.782%{stroke-dashoffset:206.5}50.873%{stroke-dashoffset:199.3}51.965%{stroke-dashoffset:192}53.057%{stroke-dashoffset:184.7}54.148%{stroke-dashoffset:177.4}55.24%{stroke-dashoffset:170.1}56.332%{stroke-dashoffset:162.9}57.424%{stroke-dashoffset:155.7}58.515%{stroke-dashoffset:148.4}59.607%{stroke-dashoffset:141.1}60.699%{stroke-dashoffset:133.7}61.79%{stroke-dashoffset:126.3}62.882%{stroke-dashoffset:118.8}63.974%{stroke-dashoffset:111.5}65.066%{stroke-dashoffset:104.6}66.157%{stroke-dashoffset:97.6}67.249%{stroke-dashoffset:90.7}68.341%{stroke-dashoffset:83.7}69.432%{stroke-dashoffset:76.8}70.524%{stroke-dashoffset:69.8}71.616%{stroke-dashoffset:62.8}72.707%{stroke-dashoffset:55.9}73.799%{stroke-dashoffset:48.9}74.891%{stroke-dashoffset:41.9}75.983%{stroke-dashoffset:35}77.074%{stroke-dashoffset:28}78.166%{stroke-dashoffset:21}79.258%{stroke-dashoffset:14}80.349%{stroke-dashoffset:7}81.441%{stroke-dashoffset:0}96.5%{stroke-dashoffset:0}99%{stroke-dashoffset:508.3}100%{stroke-dashoffset:508.3}}.cv{animation:cv 15.267s linear infinite}.ph{opacity:0}@keyframes ph{0%{transform:translateX(268px);opacity:1}3.93%{transform:translateX(268px);opacity:1}81.659%{transform:translateX(758.5px);opacity:1}97%{transform:translateX(758.5px);opacity:1}99%{transform:translateX(758.5px);opacity:0}100%{transform:translateX(268px);opacity:0}}.ph{animation:ph 15.267s linear infinite}.cd0{opacity:0}@keyframes cd0{0%{opacity:1}21.575%{opacity:1}21.975%{opacity:0}98.8%{opacity:0}100%{opacity:1}}.cd0{animation:cd0 15.267s linear infinite}.cd1{opacity:0}@keyframes cd1{0%{opacity:0}21.575%{opacity:0}21.975%{opacity:1}25.535%{opacity:1}25.935%{opacity:0}100%{opacity:0}}.cd1{animation:cd1 15.267s linear infinite}.cd2{opacity:0}@keyframes cd2{0%{opacity:0}25.535%{opacity:0}25.935%{opacity:1}63.779%{opacity:1}64.179%{opacity:0}100%{opacity:0}}.cd2{animation:cd2 15.267s linear infinite}.cd3{opacity:0}@keyframes cd3{0%{opacity:0}63.779%{opacity:0}64.179%{opacity:1}80.276%{opacity:1}80.676%{opacity:0}100%{opacity:0}}.cd3{animation:cd3 15.267s linear infinite}@keyframes cd4{0%{opacity:0}80.276%{opacity:0}80.676%{opacity:1}97%{opacity:1}98.8%{opacity:0}100%{opacity:0}}.cd4{animation:cd4 15.267s linear infinite}</style><defs><linearGradient id="cbg" x1="0" y1="0" x2="1" y2="1"><stop offset="0" stop-color="#0b1020"/><stop offset="1" stop-color="#04050a"/></linearGradient><radialGradient id="cglow" cx=".15" cy="0" r=".9"><stop offset="0" stop-color="#b18cff" stop-opacity=".10"/><stop offset="1" stop-color="#b18cff" stop-opacity="0"/></radialGradient><clipPath id="cclip"><rect x="1" y="1" width="798" height="358" rx="15"/></clipPath></defs><rect x=".5" y=".5" width="799" height="359" rx="16" fill="url(#cbg)"/><rect x=".5" y=".5" width="799" height="359" rx="16" fill="url(#cglow)"/><g clip-path="url(#cclip)"><g fill="#dfe8ff"></g></g><rect x=".5" y=".5" width="799" height="359" rx="16" fill="none" stroke="#2a3358" stroke-opacity=".9"/><text x="28" y="36" class="m" font-size="11" letter-spacing="1.6" fill="#7cc8ff">APOLLO 11 · 16 JULY 1969 · SATURN V AS-506</text><text x="28" y="59" class="s" font-size="19" font-weight="700" fill="#e9edff">Three stages, eleven minutes, one orbit</text><defs><linearGradient id="sky" x1="0" y1="0" x2="0" y2="1"><stop offset="0" stop-color="#1b3f7a"/><stop offset="1" stop-color="#5a9ad8"/></linearGradient><linearGradient id="fl" x1="0" y1="0" x2="0" y2="1"><stop offset="0" stop-color="#fff7d6"/><stop offset=".3" stop-color="#ffc24b"/><stop offset="1" stop-color="#ff7a3d" stop-opacity="0"/></linearGradient><linearGradient id="flv" x1="0" y1="0" x2="0" y2="1"><stop offset="0" stop-color="#e8f3ff"/><stop offset=".35" stop-color="#7cc8ff" stop-opacity=".8"/><stop offset="1" stop-color="#7cc8ff" stop-opacity="0"/></linearGradient><clipPath id="col"><rect x="40" y="72" width="176" height="268" rx="10"/></clipPath></defs><g clip-path="url(#col)"><rect class="sky" x="40" y="72" width="176" height="268" fill="url(#sky)" opacity="0"/><g class="strm" fill="#dfe8ff"><circle cx="79.9" cy="329.9" r="0.59" opacity="0.65"/><circle cx="55" cy="138.3" r="1.2" opacity="0.4"/><circle cx="153" cy="195" r="0.82" opacity="0.55"/><circle cx="73.8" cy="294.6" r="0.56" opacity="0.42"/><circle cx="43.5" cy="143.5" r="0.79" opacity="0.75"/><circle cx="106.7" cy="102.5" r="0.68" opacity="0.8"/><circle cx="51.1" cy="238.2" r="0.76" opacity="0.63"/><circle cx="99.6" cy="257.3" r="0.85" opacity="0.62"/><circle cx="198.6" cy="227.9" r="0.6" opacity="0.33"/><circle cx="206.5" cy="203" r="0.64" opacity="0.77"/><circle cx="141.9" cy="267.4" r="1.12" opacity="0.44"/><circle cx="102.8" cy="307.3" r="0.59" opacity="0.68"/><circle cx="57.2" cy="257" r="0.99" opacity="0.77"/><circle cx="188.5" cy="207" r="0.64" opacity="0.38"/><circle cx="133.1" cy="208.6" r="0.55" opacity="0.75"/><circle cx="129.3" cy="259.9" r="0.65" opacity="0.42"/><circle cx="42.1" cy="164" r="0.69" opacity="0.51"/><circle cx="106.3" cy="295.6" r="1.12" opacity="0.39"/><circle cx="109.7" cy="116.5" r="0.96" opacity="0.79"/><circle cx="75.5" cy="277.4" r="0.71" opacity="0.31"/><circle cx="174.5" cy="163.6" r="0.62" opacity="0.52"/><circle cx="80.8" cy="181.9" r="0.81" opacity="0.51"/><circle cx="143.6" cy="149.4" r="0.57" opacity="0.34"/><circle cx="58.7" cy="211.6" r="0.75" opacity="0.7"/><circle cx="128.9" cy="261.8" r="1.19" opacity="0.33"/><circle cx="43" cy="109.6" r="0.77" opacity="0.59"/><circle cx="170.9" cy="166.2" r="1.18" opacity="0.3"/><circle cx="187.1" cy="128.3" r="1.11" opacity="0.32"/><circle cx="209.9" cy="275.5" r="1.19" opacity="0.59"/><circle cx="71.3" cy="331.9" r="0.81" opacity="0.34"/><circle cx="146.6" cy="205.3" r="0.83" opacity="0.38"/><circle cx="61.5" cy="227.6" r="0.82" opacity="0.36"/><circle cx="117.3" cy="266.4" r="1" opacity="0.54"/><circle cx="109.3" cy="168.7" r="0.66" opacity="0.4"/><g transform="translate(0 -268)"><circle cx="79.9" cy="329.9" r="0.59" opacity="0.65"/><circle cx="55" cy="138.3" r="1.2" opacity="0.4"/><circle cx="153" cy="195" r="0.82" opacity="0.55"/><circle cx="73.8" cy="294.6" r="0.56" opacity="0.42"/><circle cx="43.5" cy="143.5" r="0.79" opacity="0.75"/><circle cx="106.7" cy="102.5" r="0.68" opacity="0.8"/><circle cx="51.1" cy="238.2" r="0.76" opacity="0.63"/><circle cx="99.6" cy="257.3" r="0.85" opacity="0.62"/><circle cx="198.6" cy="227.9" r="0.6" opacity="0.33"/><circle cx="206.5" cy="203" r="0.64" opacity="0.77"/><circle cx="141.9" cy="267.4" r="1.12" opacity="0.44"/><circle cx="102.8" cy="307.3" r="0.59" opacity="0.68"/><circle cx="57.2" cy="257" r="0.99" opacity="0.77"/><circle cx="188.5" cy="207" r="0.64" opacity="0.38"/><circle cx="133.1" cy="208.6" r="0.55" opacity="0.75"/><circle cx="129.3" cy="259.9" r="0.65" opacity="0.42"/><circle cx="42.1" cy="164" r="0.69" opacity="0.51"/><circle cx="106.3" cy="295.6" r="1.12" opacity="0.39"/><circle cx="109.7" cy="116.5" r="0.96" opacity="0.79"/><circle cx="75.5" cy="277.4" r="0.71" opacity="0.31"/><circle cx="174.5" cy="163.6" r="0.62" opacity="0.52"/><circle cx="80.8" cy="181.9" r="0.81" opacity="0.51"/><circle cx="143.6" cy="149.4" r="0.57" opacity="0.34"/><circle cx="58.7" cy="211.6" r="0.75" opacity="0.7"/><circle cx="128.9" cy="261.8" r="1.19" opacity="0.33"/><circle cx="43" cy="109.6" r="0.77" opacity="0.59"/><circle cx="170.9" cy="166.2" r="1.18" opacity="0.3"/><circle cx="187.1" cy="128.3" r="1.11" opacity="0.32"/><circle cx="209.9" cy="275.5" r="1.19" opacity="0.59"/><circle cx="71.3" cy="331.9" r="0.81" opacity="0.34"/><circle cx="146.6" cy="205.3" r="0.83" opacity="0.38"/><circle cx="61.5" cy="227.6" r="0.82" opacity="0.36"/><circle cx="117.3" cy="266.4" r="1" opacity="0.54"/><circle cx="109.3" cy="168.7" r="0.66" opacity="0.4"/></g></g></g><rect x="40" y="72" width="176" height="268" rx="10" fill="none" stroke="#2a3358"/><g clip-path="url(#col)"><g class="sic"><g class="f1"><path d="M110.9 322Q120 392 129.1 322Z" fill="url(#fl)"/></g><rect x="109.9" y="238" width="20.2" height="84" fill="#eef1fb"/><rect x="109.9" y="240" width="20.2" height="6" fill="#141826"/><rect x="109.9" y="306" width="20.2" height="7" fill="#141826"/><path d="M109.9 314l-5 8h5zM130.1 314l5 8h-5z" fill="#c9cfe6"/><rect x="114.95" y="275.8" width="10.1" height="18.48" fill="#141826" transform="translate(5.05 0)"/><text x="137.1" y="280" class="m" font-size="11" fill="#ff7a3d" font-weight="700">S-IC</text></g><g class="s2"><g class="f2"><path d="M111.9 238.0Q120 284.0 128.1 238.0Z" fill="url(#flv)"/></g><rect x="109.9" y="188.2" width="20.2" height="49.8" fill="#eef1fb"/><rect x="109.9" y="233" width="20.2" height="5" fill="#b8bfd8"/><rect x="109.9" y="191.2" width="20.2" height="3" fill="#141826"/><text x="137.1" y="217.1" class="m" font-size="11" fill="#7cc8ff" font-weight="700">S-II</text></g><g class="s4"><g class="f4"><path d="M117 187.2Q120 218.2 123 187.2Z" fill="url(#flv)"/></g><path d="M109.9 188.2L113.4 183.2V152.6H126.6V183.2L130.1 188.2Z" fill="#eef1fb"/><rect x="113.4" y="176.2" width="13.2" height="3" fill="#141826"/><rect x="113.4" y="151.2" width="13.2" height="1.4" fill="#8e97b9"/><path d="M113.4 151.2L116.1 134.2H123.9L126.6 151.2Z" fill="#dfe4f4"/><rect x="116.1" y="119.2" width="7.8" height="15" fill="#eef1fb"/><path d="M116.1 119.2L120 110.8L123.9 119.2Z" fill="#c9cfe6"/><text x="134.1" y="174.4" class="m" font-size="11" fill="#4ef0b8" font-weight="700">S-IVB</text><text x="128.1" y="124.8" class="m" font-size="10" fill="#c3cae6">CSM</text></g><g class="les"><path d="M120 110.8v-17" stroke="#dfe4f4" stroke-width="2.2"/><path d="M118.2 96.8h3.6l-1.8 -6z" fill="#ff6a5a"/></g></g><line x1="268" y1="168" x2="268" y2="298" stroke="#161d36"/><text x="268" y="313" class="m" font-size="11" fill="#8f98bd" text-anchor="middle">0</text><line x1="309.3" y1="168" x2="309.3" y2="298" stroke="#161d36"/><line x1="350.7" y1="168" x2="350.7" y2="298" stroke="#161d36"/><text x="350.7" y="313" class="m" font-size="11" fill="#8f98bd" text-anchor="middle">2</text><line x1="392" y1="168" x2="392" y2="298" stroke="#161d36"/><line x1="433.3" y1="168" x2="433.3" y2="298" stroke="#161d36"/><text x="433.3" y="313" class="m" font-size="11" fill="#8f98bd" text-anchor="middle">4</text><line x1="474.7" y1="168" x2="474.7" y2="298" stroke="#161d36"/><line x1="516" y1="168" x2="516" y2="298" stroke="#161d36"/><text x="516" y="313" class="m" font-size="11" fill="#8f98bd" text-anchor="middle">6</text><line x1="557.3" y1="168" x2="557.3" y2="298" stroke="#161d36"/><line x1="598.7" y1="168" x2="598.7" y2="298" stroke="#161d36"/><text x="598.7" y="313" class="m" font-size="11" fill="#8f98bd" text-anchor="middle">8</text><line x1="640" y1="168" x2="640" y2="298" stroke="#161d36"/><line x1="681.3" y1="168" x2="681.3" y2="298" stroke="#161d36"/><text x="681.3" y="313" class="m" font-size="11" fill="#8f98bd" text-anchor="middle">10</text><line x1="722.7" y1="168" x2="722.7" y2="298" stroke="#161d36"/><line x1="764" y1="168" x2="764" y2="298" stroke="#161d36"/><text x="764" y="313" class="m" font-size="11" fill="#8f98bd" text-anchor="middle">12</text><line x1="268" y1="298" x2="764" y2="298" stroke="#161d36"/><text x="262" y="302" class="m" font-size="10.5" fill="#7cc8ff" text-anchor="end">0</text><line x1="268" y1="233" x2="764" y2="233" stroke="#161d36"/><text x="262" y="237" class="m" font-size="10.5" fill="#7cc8ff" text-anchor="end">100</text><line x1="268" y1="168" x2="764" y2="168" stroke="#161d36"/><text x="262" y="172" class="m" font-size="10.5" fill="#7cc8ff" text-anchor="end">200</text><text x="770" y="237" class="m" font-size="10.5" fill="#ff7a3d">4</text><text x="770" y="172" class="m" font-size="10.5" fill="#ff7a3d">8</text><path d="M268 164V298H768" stroke="#46507a" fill="none"/><text x="262" y="163" class="s" font-size="10.5" fill="#7cc8ff" text-anchor="middle">altitude km</text><text x="772" y="163" class="s" font-size="10.5" fill="#ff7a3d" text-anchor="middle">km/s</text><text x="764" y="328" class="s" font-size="11" fill="#c3cae6" text-anchor="end">minutes after liftoff →</text><path class="ch" d="M268 298L274.9 297.9L281.8 297.7L288.7 297.3L295.6 296.6L302.4 295.7L309.3 294.4L316.2 292.7L323.1 290.5L330 287.9L336.9 284.9L343.8 281.4L350.7 277.3L357.6 272.9L364.4 268L371.3 262.7L378.2 257.1L385.1 251.3L392 246L398.9 241L405.8 236.3L412.7 232L419.6 227.8L426.4 223.8L433.3 220.1L440.2 216.6L447.1 213.4L454 210.3L460.9 207.6L467.8 205.1L474.7 202.6L481.6 200.5L488.4 198.6L495.3 196.7L502.2 195L509.1 193.5L516 192.2L522.9 190.9L529.8 189.7L536.7 188.6L543.6 187.6L550.4 186.8L557.3 185.9L564.2 185.2L571.1 184.5L578 183.9L584.9 183.3L591.8 182.8L598.7 182.3L605.6 181.8L612.4 181.5L619.3 181.1L626.2 180.7L633.1 180.4L640 180.2L646.9 179.9L653.8 179.7L660.7 179.6L667.6 179.5L674.4 179.4L681.3 179.4L688.2 179.4L695.1 179.3L702 179.3L708.9 179.2L715.8 179.2L722.7 179.2L729.6 179.2L736.4 179.2L743.3 179.1L750.2 179.1L757.1 179.1" fill="none" stroke="#7cc8ff" stroke-width="2.4" stroke-linejoin="round" stroke-dasharray="516.6 526.6"/><path class="cv" d="M268 291.7L274.9 291.7L281.8 291.6L288.7 291.5L295.6 291.2L302.4 290.5L309.3 289.5L316.2 288L323.1 286.2L330 283.8L336.9 281.1L343.8 277.8L350.7 274.1L357.6 269.7L364.4 265.3L371.3 260.9L378.2 255.9L385.1 254.7L392 253.9L398.9 253.1L405.8 252.2L412.7 251.4L419.6 250.5L426.4 249.5L433.3 248.4L440.2 247.3L447.1 246.1L454 244.9L460.9 243.7L467.8 242.3L474.7 241L481.6 239.5L488.4 238.1L495.3 236.6L502.2 235L509.1 233.4L516 231.7L522.9 229.9L529.8 228.1L536.7 226.2L543.6 224.2L550.4 222.2L557.3 220L564.2 217.8L571.1 215.4L578 213L584.9 210.5L591.8 208.3L598.7 206.1L605.6 203.8L612.4 201.5L619.3 199L626.2 196.4L633.1 193.7L640 190.9L646.9 188.4L653.8 187.8L660.7 186.8L667.6 185.9L674.4 184.9L681.3 183.9L688.2 182.9L695.1 181.9L702 180.8L708.9 179.7L715.8 178.6L722.7 177.5L729.6 176.4L736.4 175.2L743.3 174L750.2 172.8L757.1 171.6" fill="none" stroke="#ff7a3d" stroke-width="2.4" stroke-linejoin="round" stroke-dasharray="508.3 518.3"/><line x1="379.8" y1="166" x2="379.8" y2="298" stroke="#ff7a3d" stroke-opacity=".55" stroke-dasharray="2 3"/><line x1="404.3" y1="166" x2="404.3" y2="298" stroke="#8f98bd" stroke-opacity=".55" stroke-dasharray="2 3"/><line x1="646.3" y1="166" x2="646.3" y2="298" stroke="#7cc8ff" stroke-opacity=".55" stroke-dasharray="2 3"/><line x1="749.8" y1="166" x2="749.8" y2="298" stroke="#4ef0b8" stroke-opacity=".55" stroke-dasharray="2 3"/><text x="376.8" y="163" class="s" font-size="10.5" fill="#ff7a3d" text-anchor="end">S-IC off</text><text x="407.3" y="163" class="s" font-size="10.5" fill="#8f98bd">tower off</text><text x="643.3" y="163" class="s" font-size="10.5" fill="#7cc8ff" text-anchor="end">S-II off</text><text x="746.8" y="163" class="s" font-size="10.5" fill="#4ef0b8" text-anchor="end">orbit</text><line class="ph" x1="0" y1="164" x2="0" y2="302" stroke="#fff" stroke-opacity=".7"/><g class="cd0"><text x="268" y="94" class="m" font-size="13" fill="#ff7a3d" font-weight="700">T+0 s</text><text x="388" y="94" class="s" font-size="15" fill="#e9edff" font-weight="700">Liftoff</text><text x="388" y="114" class="m" font-size="13" fill="#c3cae6">5 F-1 engines · 2,941 t</text></g><g class="cd1"><text x="268" y="94" class="m" font-size="13" fill="#ff7a3d" font-weight="700">T+2 min 42 s</text><text x="388" y="94" class="s" font-size="15" fill="#e9edff" font-weight="700">S-IC cutoff &amp; staging</text><text x="388" y="114" class="m" font-size="13" fill="#c3cae6">64 km · 2.60 km/s</text></g><g class="cd2"><text x="268" y="94" class="m" font-size="13" fill="#7cc8ff" font-weight="700">T+3 min 18 s</text><text x="388" y="94" class="s" font-size="15" fill="#e9edff" font-weight="700">S-II burning · escape tower off</text><text x="388" y="114" class="m" font-size="13" fill="#c3cae6">93 km · 2.81 km/s</text></g><g class="cd3"><text x="268" y="94" class="m" font-size="13" fill="#7cc8ff" font-weight="700">T+9 min 08 s</text><text x="388" y="94" class="s" font-size="15" fill="#e9edff" font-weight="700">S-II cutoff · S-IVB lights</text><text x="388" y="114" class="m" font-size="13" fill="#c3cae6">182 km · 6.72 km/s</text></g><g class="cd4"><text x="268" y="94" class="m" font-size="13" fill="#4ef0b8" font-weight="700">T+11 min 39 s</text><text x="388" y="94" class="s" font-size="15" fill="#e9edff" font-weight="700">S-IVB cutoff: in orbit</text><text x="388" y="114" class="m" font-size="13" fill="#c3cae6">186 × 183 km · 7.79 km/s</text></g><text x="28" y="348" class="s" font-size="10.5" fill="#8f98bd">Times: AS-506 flight evaluation report · altitude &amp; inertial speed: the site's ascent model</text><text x="772" y="348" class="s" font-size="10.5" fill="#8f98bd" text-anchor="end">1 s = 1 min</text></svg>