<svg xmlns="http://www.w3.org/2000/svg" xmlns:xlink="http://www.w3.org/1999/xlink" viewBox="0 0 400 250" width="400" height="250" role="img" aria-labelledby="ext exd"><title id="ext">Experiments · Cosmic Library</title><desc id="exd">Experiments (Build): 20 builds from $0 to a custom circuit board. Animated card: Five stacked levels of builds light up from the bottom: kitchen table, garage and backyard, first real rockets, avionics and research grade.</desc><style>*{transform-origin:0 0}.sans{font-family:"Segoe UI", -apple-system, BlinkMacSystemFont, "Helvetica Neue", Arial, sans-serif}.mono{font-family:ui-monospace, SFMono-Regular, Menlo, Consolas, monospace}.serif{font-family:Georgia, "Times New Roman", Times, serif}@keyframes tw{0%{opacity:1}50%{opacity:0.25}100%{opacity:1}}.t0{animation:tw 2.4s ease-in-out infinite}.t1{animation:tw 3.5s ease-in-out -0.73s infinite}.t2{animation:tw 4.6s ease-in-out -1.46s infinite}@keyframes lv0{0%{opacity:0}6%{opacity:0}10%{opacity:1}88%{opacity:1}95%{opacity:0}100%{opacity:0}}.lv0{animation:lv0 10s linear infinite}@keyframes lv1{0%{opacity:0}17%{opacity:0}21%{opacity:1}88%{opacity:1}95%{opacity:0}100%{opacity:0}}.lv1{animation:lv1 10s linear infinite}@keyframes lv2{0%{opacity:0}28%{opacity:0}32%{opacity:1}88%{opacity:1}95%{opacity:0}100%{opacity:0}}.lv2{animation:lv2 10s linear infinite}@keyframes lv3{0%{opacity:0}39%{opacity:0}43%{opacity:1}88%{opacity:1}95%{opacity:0}100%{opacity:0}}.lv3{animation:lv3 10s linear infinite}@keyframes lv4{0%{opacity:0}50%{opacity:0}54%{opacity:1}88%{opacity:1}95%{opacity:0}100%{opacity:0}}.lv4{animation:lv4 10s linear infinite}@keyframes cl{0%{transform:translateY(0);opacity:0}4%{transform:translateY(0);opacity:1}10%{transform:translateY(0px)}17%{transform:translateY(-25px)}21%{transform:translateY(-25px)}28%{transform:translateY(-50px)}32%{transform:translateY(-50px)}39%{transform:translateY(-75px)}43%{transform:translateY(-75px)}50%{transform:translateY(-100px)}54%{transform:translateY(-100px)}84%{transform:translateY(-100px);opacity:1}92%{transform:translateY(-150px);opacity:0}100%{transform:translateY(0);opacity:0}}.cl{animation:cl 10s ease-in-out infinite}@keyframes fk{0%{transform:scale(1,1)}25%{transform:scale(.82,1.22)}50%{transform:scale(1.08,.86)}75%{transform:scale(.9,1.14)}100%{transform:scale(1,1)}}.fk{animation:fk 0.16s linear infinite}@keyframes beam{0%{stroke-dashoffset:100}100%{stroke-dashoffset:0}}.beam{animation:beam 9s linear infinite}@media (prefers-reduced-motion:reduce){*{animation:none!important}.rm-hide{display:none}}</style><defs><clipPath id="card"><rect width="400" height="250" rx="18"/></clipPath><linearGradient id="cbg" x1="0" y1="0" x2="0" y2="1"><stop offset="0" stop-color="#0b1020"/><stop offset="1" stop-color="#04050a"/></linearGradient><radialGradient id="acc" cx="1" cy="0" r="1"><stop offset="0" stop-color="#4ef0b8" stop-opacity=".16"/><stop offset=".6" stop-color="#4ef0b8" stop-opacity="0"/></radialGradient><linearGradient id="scr" x1="0" y1="0" x2="0" y2="1"><stop offset="0" stop-color="#04050a" stop-opacity="0"/><stop offset=".5" stop-color="#04050a" stop-opacity=".82"/><stop offset="1" stop-color="#04050a" stop-opacity=".94"/></linearGradient><linearGradient id="flm" x1="0" y1="0" x2="0" y2="1"><stop offset="0" stop-color="#fff3c4"/><stop offset=".3" stop-color="#ffc24b"/><stop offset=".7" stop-color="#ff7a3d"/><stop offset="1" stop-color="#ff4f9a" stop-opacity="0"/></linearGradient><linearGradient id="shine" x1="0" y1="0" x2="0" y2="1"><stop offset="0" stop-color="#fff" stop-opacity=".18"/><stop offset=".5" stop-color="#fff" stop-opacity="0"/></linearGradient></defs><g clip-path="url(#card)"><rect width="400" height="250" fill="url(#cbg)"/><rect width="400" height="250" fill="url(#acc)"/><g class="t0" fill="#fff"><circle cx="114.7" cy="92.1" r="0.43" opacity="0.83"/><circle cx="68.2" cy="112.3" r="0.89" fill="#e2d4ff" opacity="0.95"/><circle cx="388.3" cy="139.2" r="0.49" opacity="0.57"/><circle cx="61.9" cy="125.6" r="0.67" opacity="0.39"/><circle cx="359.7" cy="23.2" r="0.66" opacity="0.35"/><circle cx="318.9" cy="17.7" r="0.43" opacity="0.9"/><circle cx="137.5" cy="61" r="0.7" fill="#e2d4ff" opacity="0.76"/><circle cx="169.5" cy="85.6" r="1.24" opacity="0.58"/></g><g class="t1" fill="#fff"><circle cx="315.8" cy="22.5" r="0.36" opacity="0.92"/><circle cx="99" cy="147.3" r="0.59" fill="#ffe7c2" opacity="0.56"/><circle cx="315.7" cy="155.6" r="0.71" fill="#cfe8ff" opacity="0.85"/><circle cx="395.4" cy="21.2" r="0.39" opacity="0.44"/><circle cx="174.5" cy="58.9" r="0.48" opacity="0.78"/><circle cx="368.6" cy="35.8" r="0.71" fill="#cfe8ff" opacity="0.72"/><circle cx="391.2" cy="143.2" r="0.35" fill="#e2d4ff" opacity="0.46"/><circle cx="306.6" cy="82.8" r="0.47" opacity="0.76"/><circle cx="163.3" cy="23.9" r="0.36" opacity="0.87"/></g><g class="t2" fill="#fff"><circle cx="272.3" cy="114.2" r="1.14" opacity="0.6"/><circle cx="364.3" cy="114.8" r="0.41" fill="#ffe7c2" opacity="0.97"/><circle cx="267.7" cy="141.9" r="0.77" opacity="0.79"/><circle cx="398.7" cy="98.1" r="0.71" opacity="0.84"/><circle cx="278.3" cy="40" r="1.01" fill="#e2d4ff" opacity="0.9"/><circle cx="120.6" cy="10.9" r="0.55" opacity="0.81"/><circle cx="211.5" cy="50.5" r="0.88" opacity="0.49"/><circle cx="242.4" cy="74.8" r="0.79" opacity="0.45"/><circle cx="202.4" cy="160.7" r="0.5" opacity="0.95"/></g><rect x="68" y="150" width="276" height="21" rx="6" fill="#4ef0b8" fill-opacity=".05" stroke="#4ef0b8" stroke-opacity=".25"/><g class="lv0"><rect x="68" y="150" width="276" height="21" rx="6" fill="#4ef0b8" fill-opacity=".2" stroke="#4ef0b8" stroke-width="1.3"/><rect x="68" y="150" width="276" height="21" rx="6" fill="url(#shine)"/></g><text class="sans" x="78" y="164.5" font-size="12" fill="#e9edff"><tspan font-weight="700" fill="#4ef0b8">0</tspan>  Kitchen table</text><text class="mono" x="335" y="164.5" text-anchor="end" font-size="10.5" fill="#c3cae6">under $10</text><rect x="81" y="125" width="250" height="21" rx="6" fill="#7cc8ff" fill-opacity=".05" stroke="#7cc8ff" stroke-opacity=".25"/><g class="lv1"><rect x="81" y="125" width="250" height="21" rx="6" fill="#7cc8ff" fill-opacity=".2" stroke="#7cc8ff" stroke-width="1.3"/><rect x="81" y="125" width="250" height="21" rx="6" fill="url(#shine)"/></g><text class="sans" x="91" y="139.5" font-size="12" fill="#e9edff"><tspan font-weight="700" fill="#7cc8ff">1</tspan>  Garage &amp; backyard</text><text class="mono" x="322" y="139.5" text-anchor="end" font-size="10.5" fill="#c3cae6">$10–50</text><rect x="94" y="100" width="224" height="21" rx="6" fill="#b18cff" fill-opacity=".05" stroke="#b18cff" stroke-opacity=".25"/><g class="lv2"><rect x="94" y="100" width="224" height="21" rx="6" fill="#b18cff" fill-opacity=".2" stroke="#b18cff" stroke-width="1.3"/><rect x="94" y="100" width="224" height="21" rx="6" fill="url(#shine)"/></g><text class="sans" x="104" y="114.5" font-size="12" fill="#e9edff"><tspan font-weight="700" fill="#b18cff">2</tspan>  First real rockets</text><text class="mono" x="309" y="114.5" text-anchor="end" font-size="10.5" fill="#c3cae6">$50–150</text><rect x="107" y="75" width="198" height="21" rx="6" fill="#ff4f9a" fill-opacity=".05" stroke="#ff4f9a" stroke-opacity=".25"/><g class="lv3"><rect x="107" y="75" width="198" height="21" rx="6" fill="#ff4f9a" fill-opacity=".2" stroke="#ff4f9a" stroke-width="1.3"/><rect x="107" y="75" width="198" height="21" rx="6" fill="url(#shine)"/></g><text class="sans" x="117" y="89.5" font-size="12" fill="#e9edff"><tspan font-weight="700" fill="#ff4f9a">3</tspan>  Avionics</text><text class="mono" x="296" y="89.5" text-anchor="end" font-size="10.5" fill="#c3cae6">$100–300</text><rect x="120" y="50" width="172" height="21" rx="6" fill="#ff7a3d" fill-opacity=".05" stroke="#ff7a3d" stroke-opacity=".25"/><g class="lv4"><rect x="120" y="50" width="172" height="21" rx="6" fill="#ff7a3d" fill-opacity=".2" stroke="#ff7a3d" stroke-width="1.3"/><rect x="120" y="50" width="172" height="21" rx="6" fill="url(#shine)"/></g><text class="sans" x="130" y="64.5" font-size="12" fill="#e9edff"><tspan font-weight="700" fill="#ff7a3d">4</tspan>  Research grade</text><text class="mono" x="283" y="64.5" text-anchor="end" font-size="10.5" fill="#c3cae6">$150+</text><g class="cl" style="transform:translateY(-100px)"><g transform="translate(368 160)"><g transform="translate(0 9)"><g class="fk"><path d="M-2.6 0Q-3.2 3.6 0 12.8Q3.2 3.6 2.6 0Z" fill="url(#flm)"/><path d="M-1.3 0Q-1.2 4 0 8Q1.2 4 1.3 0Z" fill="#fff3d6"/></g></g><path d="M-3 9V-4Q-3-9 0-12Q3-9 3-4V9Z" fill="#eef2ff"/><path d="M-3 4L-6 10H-3ZM3 4L6 10H3Z" fill="#cfd5e8"/></g></g><rect y="150" width="400" height="100" fill="url(#scr)"/></g><g transform="translate(14 14)"><rect width="79.5" height="25" rx="12.5" fill="#04050a" fill-opacity=".88"/><rect width="79.5" height="25" rx="12.5" fill="#4ef0b8" fill-opacity=".14" stroke="#4ef0b8" stroke-opacity=".6"/><circle cx="12.5" cy="12.5" r="3.4" fill="#4ef0b8"/><text class="sans" x="21.5" y="17" font-size="12" font-weight="700" letter-spacing="1.5" fill="#4ef0b8">BUILD</text></g><text class="mono" x="384" y="31" text-anchor="end" font-size="11" fill="#5d6589">experiments.html</text><text class="sans" x="20" y="212" font-size="24" font-weight="700" letter-spacing="-.2" fill="#e9edff">Experiments</text><text class="sans" x="20" y="236" font-size="15" fill="#8f98bd">20 builds from $0 to a custom circuit board</text><g transform="translate(312 192)"><rect width="72" height="27" rx="13.5" fill="#04050a" fill-opacity=".6" stroke="#4ef0b8" stroke-opacity=".55"/><text class="sans" x="13" y="18.5" font-size="13" font-weight="600" fill="#4ef0b8">Open</text><path d="M51 17.5L59 9.5M53.5 9.5H59V15" fill="none" stroke="#4ef0b8" stroke-width="1.7" stroke-linecap="round" stroke-linejoin="round"/></g><rect x=".5" y=".5" width="399" height="249" rx="17.5" fill="none" stroke="#96aaff" stroke-opacity=".2"/><path class="beam rm-hide" d="M18 0.8H382A17.2 17.2 0 0 1 399.2 18V232A17.2 17.2 0 0 1 382 249.2H18A17.2 17.2 0 0 1 0.8 232V18A17.2 17.2 0 0 1 18 0.8Z" pathLength="100" fill="none" stroke="#4ef0b8" stroke-width="1.5" stroke-dasharray="9 91" stroke-linecap="round" opacity=".85"/></svg>
