<svg xmlns="http://www.w3.org/2000/svg" xmlns:xlink="http://www.w3.org/1999/xlink" viewBox="0 0 400 250" width="400" height="250" role="img" aria-labelledby="hat had"><title id="hat">Rocket hangar · Cosmic Library</title><desc id="had">Rocket hangar (Fly): Every major rocket, side by side to scale. Animated card: Rockets grow to true scale next to the Statue of Liberty: a V-2, a two-stage kerosene rocket, the N1, Saturn V at 111 m and Starship at 124 m.</desc><style>*{transform-origin:0 0}.sans{font-family:"Segoe UI", -apple-system, BlinkMacSystemFont, "Helvetica Neue", Arial, sans-serif}.mono{font-family:ui-monospace, SFMono-Regular, Menlo, Consolas, monospace}.serif{font-family:Georgia, "Times New Roman", Times, serif}@keyframes tw{0%{opacity:1}50%{opacity:0.25}100%{opacity:1}}.t0{animation:tw 2.4s ease-in-out infinite}.t1{animation:tw 3.5s ease-in-out -0.73s infinite}.t2{animation:tw 4.6s ease-in-out -1.46s infinite}@keyframes hz{0%{opacity:.25}50%{opacity:.5}100%{opacity:.25}}.hz{animation:hz 6s ease-in-out infinite}@keyframes g0{0%{transform:scaleY(0)}6%{transform:scaleY(0);animation-timing-function:cubic-bezier(.3,1.35,.5,1)}20%{transform:scaleY(1)}88%{transform:scaleY(1);animation-timing-function:ease-in}95%{transform:scaleY(0)}100%{transform:scaleY(0)}}.g0{animation:g0 8s linear infinite}@keyframes g1{0%{transform:scaleY(0)}14%{transform:scaleY(0);animation-timing-function:cubic-bezier(.3,1.35,.5,1)}28%{transform:scaleY(1)}88%{transform:scaleY(1);animation-timing-function:ease-in}95%{transform:scaleY(0)}100%{transform:scaleY(0)}}.g1{animation:g1 8s linear infinite}@keyframes g2{0%{transform:scaleY(0)}22%{transform:scaleY(0);animation-timing-function:cubic-bezier(.3,1.35,.5,1)}36%{transform:scaleY(1)}88%{transform:scaleY(1);animation-timing-function:ease-in}95%{transform:scaleY(0)}100%{transform:scaleY(0)}}.g2{animation:g2 8s linear infinite}@keyframes l2{0%{opacity:0}34%{opacity:0}40%{opacity:1}86%{opacity:1}90%{opacity:0}100%{opacity:0}}.l2{animation:l2 8s linear infinite}@keyframes g3{0%{transform:scaleY(0)}30%{transform:scaleY(0);animation-timing-function:cubic-bezier(.3,1.35,.5,1)}44%{transform:scaleY(1)}88%{transform:scaleY(1);animation-timing-function:ease-in}95%{transform:scaleY(0)}100%{transform:scaleY(0)}}.g3{animation:g3 8s linear infinite}@keyframes l3{0%{opacity:0}42%{opacity:0}48%{opacity:1}86%{opacity:1}90%{opacity:0}100%{opacity:0}}.l3{animation:l3 8s linear infinite}@keyframes g4{0%{transform:scaleY(0)}38%{transform:scaleY(0);animation-timing-function:cubic-bezier(.3,1.35,.5,1)}52%{transform:scaleY(1)}88%{transform:scaleY(1);animation-timing-function:ease-in}95%{transform:scaleY(0)}100%{transform:scaleY(0)}}.g4{animation:g4 8s linear infinite}@keyframes l4{0%{opacity:0}50%{opacity:0}56%{opacity:1}86%{opacity:1}90%{opacity:0}100%{opacity:0}}.l4{animation:l4 8s linear infinite}@keyframes beam{0%{stroke-dashoffset:100}100%{stroke-dashoffset:0}}.beam{animation:beam 9s linear infinite}@media (prefers-reduced-motion:reduce){*{animation:none!important}.rm-hide{display:none}}</style><defs><clipPath id="card"><rect width="400" height="250" rx="18"/></clipPath><linearGradient id="cbg" x1="0" y1="0" x2="0" y2="1"><stop offset="0" stop-color="#0b1020"/><stop offset="1" stop-color="#04050a"/></linearGradient><radialGradient id="acc" cx="1" cy="0" r="1"><stop offset="0" stop-color="#ff7a3d" stop-opacity=".16"/><stop offset=".6" stop-color="#ff7a3d" stop-opacity="0"/></radialGradient><linearGradient id="scr" x1="0" y1="0" x2="0" y2="1"><stop offset="0" stop-color="#04050a" stop-opacity="0"/><stop offset=".5" stop-color="#04050a" stop-opacity=".82"/><stop offset="1" stop-color="#04050a" stop-opacity=".94"/></linearGradient><linearGradient id="dawn" x1="0" y1="0" x2="0" y2="1"><stop offset="0" stop-color="#ffc24b" stop-opacity="0"/><stop offset="1" stop-color="#ff9a5c" stop-opacity=".16"/></linearGradient><linearGradient id="steel" x1="0" y1="0" x2="1" y2="0"><stop offset="0" stop-color="#e6e9f2"/><stop offset=".6" stop-color="#b9bfd0"/><stop offset="1" stop-color="#7d8499"/></linearGradient></defs><g clip-path="url(#card)"><rect width="400" height="250" fill="url(#cbg)"/><rect width="400" height="250" fill="url(#acc)"/><g class="t0" fill="#fff"><circle cx="354.5" cy="56.6" r="0.41" opacity="0.73"/><circle cx="229.7" cy="53.9" r="0.59" opacity="0.52"/><circle cx="245.9" cy="6.6" r="0.35" opacity="0.75"/><circle cx="156.4" cy="54.8" r="0.71" fill="#e2d4ff" opacity="0.93"/><circle cx="317.5" cy="58.2" r="0.87" fill="#cfe8ff" opacity="0.91"/><circle cx="138.5" cy="38.9" r="0.65" opacity="0.51"/><circle cx="377.2" cy="82.8" r="0.52" opacity="0.95"/><circle cx="71.1" cy="58.6" r="0.48" fill="#cfe8ff" opacity="0.64"/><circle cx="361.5" cy="84" r="1.05" opacity="0.97"/><circle cx="221.1" cy="13.2" r="0.35" fill="#ffe7c2" opacity="0.41"/><circle cx="270.6" cy="0" r="1.05" opacity="0.54"/><circle cx="255.1" cy="48.2" r="0.56" opacity="0.73"/><circle cx="57.7" cy="1.2" r="0.36" fill="#e2d4ff" opacity="0.52"/><circle cx="22.9" cy="56.3" r="0.38" opacity="0.9"/><circle cx="77.5" cy="11.6" r="1.08" opacity="0.84"/><circle cx="300.6" cy="90.1" r="0.46" fill="#e2d4ff" opacity="0.39"/><circle cx="96.8" cy="52.8" r="0.37" fill="#ffe7c2" opacity="0.95"/><circle cx="398.7" cy="61.1" r="0.37" opacity="0.91"/><circle cx="270.1" cy="106.6" r="0.49" fill="#e2d4ff" opacity="0.49"/><circle cx="276.4" cy="93.4" r="0.43" fill="#cfe8ff" opacity="0.96"/></g><g class="t1" fill="#fff"><circle cx="25.3" cy="51" r="0.39" opacity="0.59"/><circle cx="145" cy="36.4" r="0.58" fill="#e2d4ff" opacity="0.89"/><circle cx="64.9" cy="101.5" r="0.37" fill="#cfe8ff" opacity="0.46"/><circle cx="172.2" cy="77.2" r="0.47" opacity="0.37"/><circle cx="197.4" cy="74.5" r="1.21" opacity="0.4"/><circle cx="27.1" cy="54.6" r="0.35" opacity="0.92"/><circle cx="372.3" cy="86.4" r="0.48" opacity="0.74"/></g><g class="t2" fill="#fff"><circle cx="28.7" cy="25.7" r="0.41" opacity="0.53"/><circle cx="371.8" cy="26.6" r="0.38" opacity="0.43"/><circle cx="7.2" cy="1.7" r="0.59" opacity="0.97"/><circle cx="327.4" cy="51.8" r="0.35" fill="#cfe8ff" opacity="0.38"/><circle cx="244.3" cy="99.8" r="0.35" opacity="0.96"/></g><rect y="110" width="400" height="64" fill="url(#dawn)"/><rect y="174" width="400" height="76" fill="#070913"/><path d="M0 174H400" stroke="#96aaff" stroke-opacity=".3"/><g stroke="#96aaff" stroke-opacity=".08"><path d="M80 174L-220 250"/><path d="M100 174L-150 250"/><path d="M120 174L-80 250"/><path d="M140 174L-10 250"/><path d="M160 174L60 250"/><path d="M180 174L130 250"/><path d="M200 174L200 250"/><path d="M220 174L270 250"/><path d="M240 174L340 250"/><path d="M260 174L410 250"/><path d="M280 174L480 250"/><path d="M300 174L550 250"/><path d="M320 174L620 250"/><path d="M0 183H400M0 196H400M0 216H400"/></g><path d="M84 76.3H392" stroke="#ffc24b" stroke-opacity=".38" stroke-dasharray="3 4"/><text class="mono" x="86" y="71.3" font-size="10.5" fill="#ffc24b" opacity=".85">93 m</text><g transform="translate(62 174)"><path d="M-22 0H22L18-7H-18Z" fill="#8c7b61"/><path d="M-13-7H13L10.5-30L12-32L9-47H-9L-12-32L-10.5-30Z" fill="#a8977a"/><path d="M-9-47H9V-45H-9Z" fill="#7d6d55"/><g fill="#6fc2a8"><path d="M-7-47H7L6-60L4.6-72L3-78H-3L-4.6-72L-6-60Z"/><circle cy="-81" r="3"/><path d="M-3.2-75L-7-91H-4.6L-1.2-76Z"/><path d="M3-66L7-64L6.2-60L2.6-61Z"/><path d="M-8.4-92H-3.4L-4.2-95H-7.6Z"/></g><path d="M0-84L0-88M-2.6-83.4L-4.6-87M2.6-83.4L4.6-87M-3.8-81.5L-6.6-83M3.8-81.5L6.6-83" stroke="#6fc2a8" stroke-width=".9"/><ellipse cx="-5.9" cy="-97.5" rx="1.8" ry="2.6" fill="#ffc24b"/><ellipse class="hz" cx="-5.9" cy="-97.5" rx="6" ry="6" fill="#ffc24b" opacity=".3"/></g><g transform="translate(118 174)"><g class="g0"><path d="M-1.6 0V-11Q-1.6-14 0-15Q1.6-14 1.6-11V0Z" fill="#e9edff"/><path d="M-1.6-5H0V0H-1.6ZM0-10H1.6V-5H0Z" fill="#141827"/><path d="M-1.6-3L-4 0H-1.6ZM1.6-3L4 0H1.6Z" fill="#141827"/></g></g><g transform="translate(160 174)"><g class="g1"><rect x="-2.1" y="-67.5" width="4.2" height="67.5" fill="#eef1fb"/><path d="M-2.1 -67.5Q-2.1 -73.5 0 -73.5Q2.1 -73.5 2.1 -67.5Z" fill="#eef1fb"/><rect x="-2.1" y="-42.629999999999995" width="4.2" height="3" fill="#232838"/><rect x="-2.1" y="-3" width="4.2" height="3" fill="#8f98bd"/></g></g><g transform="translate(206 174)"><g class="g2"><path d="M-9 0L-6 -49.612500000000004L-4 -68.355L-3 -90.405Q-3 -104.7375 0 -110.25Q3 -104.7375 3 -90.405L4 -68.355L6 -49.612500000000004L9 0Z" fill="#dfe3ee"/><path d="M-9 0L-6 -49.612500000000004H6L9 0Z" fill="#cfd5e3"/><path d="M-6.6 -41.895H6.6M-5.2 -55.125H5.2" stroke="#3a3f52" stroke-width="1.4"/></g></g><text class="l2 mono" x="214" y="75.8" font-size="10.5" fill="#c3cae6">105 m</text><g transform="translate(258 174)"><g class="g3"><path d="M0 -116.13V-108.13" stroke="#dfe4f4" stroke-width="1"/><path d="M-3.5 -101.13L0 -108.13L3.5 -101.13Z" fill="#dfe4f4"/><rect x="-3.5" y="-101.13" width="7" height="34.839" fill="#f2f4fb"/><path d="M-3.5 -66.291L-5.3 -61.291H5.3L3.5 -66.291Z" fill="#f2f4fb"/><rect x="-5.3" y="-61.291" width="10.6" height="61.291" fill="#f2f4fb"/><rect x="-5.3" y="-45.2907" width="10.6" height="3" fill="#141827"/><rect x="-5.3" y="-22" width="2.6" height="12" fill="#141827"/><rect x="2.7" y="-34" width="2.6" height="12" fill="#141827"/><rect x="-3.5" y="-86.13" width="7" height="3" fill="#141827"/><path d="M-5.3-9L-8.5 0H-5.3ZM5.3-9L8.5 0H5.3Z" fill="#dfe4f4"/></g></g><text class="l3 mono" x="266.5" y="69.9" font-size="10.5" fill="#c3cae6">111 m</text><g transform="translate(320 174)"><g class="g4"><path d="M-4.7 0V-118.20000000000002Q-4.7 -128.20000000000002 0 -130.20000000000002Q4.7 -128.20000000000002 4.7 -118.20000000000002V0Z" fill="url(#steel)"/><path d="M-4.7 -52.08000000000001V-118.20000000000002Q-4.7 -128.20000000000002 0 -130.20000000000002V-52.08000000000001Z" fill="#1d2130"/><path d="M-4.7 -52.08000000000001H4.7" stroke="#6b7288" stroke-width=".8"/><path d="M-4.7 -116.20000000000002L-8 -110.20000000000002V-106.20000000000002H-4.7ZM4.7 -116.20000000000002L8 -110.20000000000002V-106.20000000000002H4.7Z" fill="#8f98bd"/><path d="M-4.7 -58.59000000000001L-8 -53.382000000000005H-4.7ZM4.7 -58.59000000000001L8 -53.382000000000005H4.7Z" fill="#8f98bd"/><rect x="-6.5" y="-49.476000000000006" width="1.8" height="2.5" fill="#6b7288"/><rect x="4.7" y="-49.476000000000006" width="1.8" height="2.5" fill="#6b7288"/></g></g><text class="l4 mono" x="329.7" y="55.8" font-size="10.5" fill="#c3cae6">124 m</text><rect y="150" width="400" height="100" fill="url(#scr)"/></g><g transform="translate(14 14)"><rect width="60.9" height="25" rx="12.5" fill="#04050a" fill-opacity=".88"/><rect width="60.9" height="25" rx="12.5" fill="#ff7a3d" fill-opacity=".14" stroke="#ff7a3d" stroke-opacity=".6"/><circle cx="12.5" cy="12.5" r="3.4" fill="#ff7a3d"/><text class="sans" x="21.5" y="17" font-size="12" font-weight="700" letter-spacing="1.5" fill="#ff7a3d">FLY</text></g><text class="mono" x="384" y="31" text-anchor="end" font-size="11" fill="#5d6589">hangar.html</text><text class="sans" x="20" y="212" font-size="24" font-weight="700" letter-spacing="-.2" fill="#e9edff">Rocket hangar</text><text class="sans" x="20" y="236" font-size="15" fill="#8f98bd">Every major rocket, side by side to scale</text><g transform="translate(312 192)"><rect width="72" height="27" rx="13.5" fill="#04050a" fill-opacity=".6" stroke="#ff7a3d" stroke-opacity=".55"/><text class="sans" x="13" y="18.5" font-size="13" font-weight="600" fill="#ff7a3d">Open</text><path d="M51 17.5L59 9.5M53.5 9.5H59V15" fill="none" stroke="#ff7a3d" stroke-width="1.7" stroke-linecap="round" stroke-linejoin="round"/></g><rect x=".5" y=".5" width="399" height="249" rx="17.5" fill="none" stroke="#96aaff" stroke-opacity=".2"/><path class="beam rm-hide" d="M18 0.8H382A17.2 17.2 0 0 1 399.2 18V232A17.2 17.2 0 0 1 382 249.2H18A17.2 17.2 0 0 1 0.8 232V18A17.2 17.2 0 0 1 18 0.8Z" pathLength="100" fill="none" stroke="#ff7a3d" stroke-width="1.5" stroke-dasharray="9 91" stroke-linecap="round" opacity=".85"/></svg>
