<svg xmlns="http://www.w3.org/2000/svg" xmlns:xlink="http://www.w3.org/1999/xlink" viewBox="0 0 400 250" width="400" height="250" role="img" aria-labelledby="pyt pyd"><title id="pyt">Python toolkit · Cosmic Library</title><desc id="pyd">Python toolkit (Compute): 7 simulations and 52 physics tests. Animated card: A terminal types python simulations/run.py rocket, then plots the ascent curves of Saturn V and Falcon 9.</desc><style>*{transform-origin:0 0}.sans{font-family:"Segoe UI", -apple-system, BlinkMacSystemFont, "Helvetica Neue", Arial, sans-serif}.mono{font-family:ui-monospace, SFMono-Regular, Menlo, Consolas, monospace}.serif{font-family:Georgia, "Times New Roman", Times, serif}@keyframes tw{0%{opacity:1}50%{opacity:0.25}100%{opacity:1}}.t0{animation:tw 2.4s ease-in-out infinite}.t1{animation:tw 3.5s ease-in-out -0.73s infinite}.t2{animation:tw 4.6s ease-in-out -1.46s infinite}@keyframes ty{0%{transform:translateX(0)}4%{transform:translateX(0)}26%{transform:translateX(232px)}100%{transform:translateX(232px)}}.ty{animation:ty 10s steps(32) infinite}@keyframes cb{0%{opacity:1}50%{opacity:0}100%{opacity:1}}.cb{animation:cb 0.9s steps(1) infinite}@keyframes o1{0%{opacity:0.0}28%{opacity:0.0}30%{opacity:1.0}94%{opacity:1.0}96%{opacity:0.0}100%{opacity:0.0}}.o1{animation:o1 10s linear infinite}@keyframes cv{0%{stroke-dashoffset:1;opacity:1}34%{stroke-dashoffset:1}62%{stroke-dashoffset:0}94%{stroke-dashoffset:0;opacity:1}97%{opacity:0}100%{stroke-dashoffset:1;opacity:0}}@keyframes cv2{0%{stroke-dashoffset:1;opacity:1}40%{stroke-dashoffset:1}66%{stroke-dashoffset:0}94%{stroke-dashoffset:0;opacity:1}97%{opacity:0}100%{stroke-dashoffset:1;opacity:0}}.cv{animation:cv 10s ease-out infinite}.cv2{animation:cv2 10s ease-out infinite}@keyframes o2{0%{opacity:0.0}62%{opacity:0.0}64%{opacity:1.0}94%{opacity:1.0}96%{opacity:0.0}100%{opacity:0.0}}.o2{animation:o2 10s linear infinite}@keyframes beam{0%{stroke-dashoffset:100}100%{stroke-dashoffset:0}}.beam{animation:beam 9s linear infinite}@media (prefers-reduced-motion:reduce){*{animation:none!important}.rm-hide{display:none}}</style><defs><clipPath id="card"><rect width="400" height="250" rx="18"/></clipPath><linearGradient id="cbg" x1="0" y1="0" x2="0" y2="1"><stop offset="0" stop-color="#0b1020"/><stop offset="1" stop-color="#04050a"/></linearGradient><radialGradient id="acc" cx="1" cy="0" r="1"><stop offset="0" stop-color="#ffc24b" stop-opacity=".16"/><stop offset=".6" stop-color="#ffc24b" stop-opacity="0"/></radialGradient><linearGradient id="scr" x1="0" y1="0" x2="0" y2="1"><stop offset="0" stop-color="#04050a" stop-opacity="0"/><stop offset=".5" stop-color="#04050a" stop-opacity=".82"/><stop offset="1" stop-color="#04050a" stop-opacity=".94"/></linearGradient></defs><g clip-path="url(#card)"><rect width="400" height="250" fill="url(#cbg)"/><rect width="400" height="250" fill="url(#acc)"/><g class="t0" fill="#fff"><circle cx="56.3" cy="153.8" r="0.36" opacity="0.46"/><circle cx="180" cy="88.6" r="0.61" fill="#ffe7c2" opacity="0.64"/><circle cx="232.2" cy="26.3" r="0.63" opacity="0.98"/><circle cx="107.1" cy="170.3" r="1.04" opacity="0.83"/><circle cx="201.3" cy="88.4" r="0.44" opacity="0.68"/><circle cx="137.6" cy="109.5" r="1.02" opacity="0.83"/></g><g class="t1" fill="#fff"><circle cx="13" cy="43.9" r="1.08" fill="#e2d4ff" opacity="0.73"/><circle cx="269.6" cy="82.9" r="0.57" opacity="0.74"/><circle cx="220.4" cy="68.9" r="0.76" fill="#ffe7c2" opacity="0.92"/><circle cx="343.6" cy="59.2" r="0.39" fill="#e2d4ff" opacity="0.8"/></g><g class="t2" fill="#fff"><circle cx="358.6" cy="48" r="0.39" opacity="0.4"/><circle cx="101.3" cy="159.9" r="0.37" opacity="0.79"/><circle cx="387.7" cy="31.5" r="0.58" fill="#cfe8ff" opacity="0.55"/><circle cx="21.6" cy="137" r="0.35" opacity="0.9"/><circle cx="308" cy="30.4" r="0.36" opacity="0.83"/><circle cx="215.2" cy="55.5" r="0.87" opacity="0.79"/></g><rect x="24" y="46" width="352" height="134" rx="10" fill="#060913" stroke="#96aaff" stroke-opacity=".28"/><path d="M24 68H376" stroke="#96aaff" stroke-opacity=".18"/><circle cx="38" cy="57" r="3.5" fill="#ff4f9a" opacity=".8"/><circle cx="50" cy="57" r="3.5" fill="#ffc24b" opacity=".8"/><circle cx="62" cy="57" r="3.5" fill="#4ef0b8" opacity=".8"/><text class="mono" x="200.0" y="61" text-anchor="middle" font-size="10" fill="#5d6589">cosmic-library — bash</text><text class="mono" x="36" y="88" font-size="12" fill="#4ef0b8">$</text><text class="mono" x="50" y="88" font-size="12" fill="#e9edff" textLength="232" lengthAdjust="spacingAndGlyphs">python simulations/run.py rocket</text><clipPath id="ln"><rect x="49" y="74" width="244" height="20"/></clipPath><g clip-path="url(#ln)"><g class="ty" style="transform:translateX(232px)"><rect x="50" y="76" width="236" height="16" fill="#060913"/><rect class="cb" x="50" y="77" width="7" height="14" fill="#7cc8ff" opacity=".85"/></g></g><g class="o1"><text class="mono" x="36" y="106" font-size="11" fill="#8f98bd">2-D ascent · gravity turn · Mach-dependent drag</text></g><path d="M46 116V168H252" fill="none" stroke="#96aaff" stroke-opacity=".4"/><path class="cv" d="M46 168L52.7 164.7L59.3 161.6L66 158.6L72.7 155.7L79.3 152.9L86 150.3L92.7 147.8L99.3 145.4L106 143.2L112.7 141.1L119.3 139.1L126 137.2L132.7 135.5L139.3 133.8L146 132.3L152.7 130.9L159.3 129.6L166 128.5L172.7 127.4L179.3 126.5L186 125.6L192.7 124.9L199.3 124.3L206 123.7L212.7 123.3L219.3 122.9L226 122.7L232.7 122.5L239.3 122.4L246 122.4" pathLength="1" stroke-dasharray="1 1" fill="none" stroke="#7cc8ff" stroke-width="2" stroke-linecap="round"/><path class="cv2" d="M46 168L50.1 165.7L54.3 163.5L58.4 161.4L62.5 159.3L66.7 157.5L70.8 155.7L74.9 154L79.1 152.4L83.2 150.9L87.3 149.5L91.5 148.2L95.6 147L99.7 145.9L103.9 144.8L108 143.9L112.1 143L116.3 142.2L120.4 141.5L124.5 140.9L128.7 140.4L132.8 139.9L136.9 139.5L141.1 139.1L145.2 138.9L149.3 138.6L153.5 138.5L157.6 138.4L161.7 138.3L165.9 138.2L170 138.2" pathLength="1" stroke-dasharray="1 1" fill="none" stroke="#ff7a3d" stroke-width="2" stroke-linecap="round"/><g class="o2"><text class="mono" x="258" y="126" font-size="10.5" fill="#7cc8ff">Saturn V</text><text class="mono" x="180" y="150.2" font-size="10.5" fill="#ff7a3d">Falcon 9</text><text class="mono" x="258" y="164" font-size="10.5" fill="#4ef0b8">✓ saved</text></g><rect y="150" width="400" height="100" fill="url(#scr)"/></g><g transform="translate(14 14)"><rect width="98.1" height="25" rx="12.5" fill="#04050a" fill-opacity=".88"/><rect width="98.1" height="25" rx="12.5" fill="#ffc24b" fill-opacity=".14" stroke="#ffc24b" stroke-opacity=".6"/><circle cx="12.5" cy="12.5" r="3.4" fill="#ffc24b"/><text class="sans" x="21.5" y="17" font-size="12" font-weight="700" letter-spacing="1.5" fill="#ffc24b">COMPUTE</text></g><text class="mono" x="384" y="31" text-anchor="end" font-size="11" fill="#5d6589">simulations/</text><text class="sans" x="20" y="212" font-size="24" font-weight="700" letter-spacing="-.2" fill="#e9edff">Python toolkit</text><text class="sans" x="20" y="236" font-size="15" fill="#8f98bd">7 simulations and 52 physics tests</text><g transform="translate(312 192)"><rect width="72" height="27" rx="13.5" fill="#04050a" fill-opacity=".6" stroke="#ffc24b" stroke-opacity=".55"/><text class="sans" x="13" y="18.5" font-size="13" font-weight="600" fill="#ffc24b">Open</text><path d="M51 17.5L59 9.5M53.5 9.5H59V15" fill="none" stroke="#ffc24b" stroke-width="1.7" stroke-linecap="round" stroke-linejoin="round"/></g><rect x=".5" y=".5" width="399" height="249" rx="17.5" fill="none" stroke="#96aaff" stroke-opacity=".2"/><path class="beam rm-hide" d="M18 0.8H382A17.2 17.2 0 0 1 399.2 18V232A17.2 17.2 0 0 1 382 249.2H18A17.2 17.2 0 0 1 0.8 232V18A17.2 17.2 0 0 1 18 0.8Z" pathLength="100" fill="none" stroke="#ffc24b" stroke-width="1.5" stroke-dasharray="9 91" stroke-linecap="round" opacity=".85"/></svg>
