<svg xmlns="http://www.w3.org/2000/svg" xmlns:xlink="http://www.w3.org/1999/xlink" viewBox="0 0 400 250" width="400" height="250" role="img" aria-labelledby="sht shd"><title id="sht">Endeavour · Cosmic Library</title><desc id="shd">Endeavour (Fly): The Space Shuttle in Los Angeles. Animated card: The Space Shuttle orbiter, seen from above over the blue curve of the Earth, opens and closes its payload bay doors.</desc><style>*{transform-origin:0 0}.sans{font-family:"Segoe UI", -apple-system, BlinkMacSystemFont, "Helvetica Neue", Arial, sans-serif}.mono{font-family:ui-monospace, SFMono-Regular, Menlo, Consolas, monospace}.serif{font-family:Georgia, "Times New Roman", Times, serif}@keyframes tw{0%{opacity:1}50%{opacity:0.25}100%{opacity:1}}.t0{animation:tw 2.4s ease-in-out infinite}.t1{animation:tw 3.5s ease-in-out -0.73s infinite}.t2{animation:tw 4.6s ease-in-out -1.46s infinite}@keyframes dA{0%{transform:scaleY(1)}12%{transform:scaleY(1);animation-timing-function:ease-in}24%{transform:scaleY(0)}76%{transform:scaleY(0);animation-timing-function:ease-out}88%{transform:scaleY(1)}100%{transform:scaleY(1)}}@keyframes rA{0%{transform:scaleY(0)}24%{transform:scaleY(0);animation-timing-function:ease-out}36%{transform:scaleY(1)}64%{transform:scaleY(1);animation-timing-function:ease-in}76%{transform:scaleY(0)}100%{transform:scaleY(0)}}.dA{animation:dA 8s linear infinite}.rA{animation:rA 8s linear infinite}@keyframes flt{0%{transform:translate(0,0) rotate(0)}50%{transform:translate(4px,-3px) rotate(1.5deg)}100%{transform:translate(0,0) rotate(0)}}.flt{animation:flt 8s ease-in-out infinite}@keyframes cl{0%{transform:translateX(0)}100%{transform:translateX(-200px)}}.cl{animation:cl 40s linear infinite}@keyframes beam{0%{stroke-dashoffset:100}100%{stroke-dashoffset:0}}.beam{animation:beam 9s linear infinite}@media (prefers-reduced-motion:reduce){*{animation:none!important}.rm-hide{display:none}}</style><defs><clipPath id="card"><rect width="400" height="250" rx="18"/></clipPath><linearGradient id="cbg" x1="0" y1="0" x2="0" y2="1"><stop offset="0" stop-color="#0b1020"/><stop offset="1" stop-color="#04050a"/></linearGradient><radialGradient id="acc" cx="1" cy="0" r="1"><stop offset="0" stop-color="#ff7a3d" stop-opacity=".16"/><stop offset=".6" stop-color="#ff7a3d" stop-opacity="0"/></radialGradient><linearGradient id="scr" x1="0" y1="0" x2="0" y2="1"><stop offset="0" stop-color="#04050a" stop-opacity="0"/><stop offset=".5" stop-color="#04050a" stop-opacity=".82"/><stop offset="1" stop-color="#04050a" stop-opacity=".94"/></linearGradient><radialGradient id="ea" gradientUnits="userSpaceOnUse" cx="60" cy="300" r="320"><stop offset=".55" stop-color="#1d5fb0"/><stop offset=".88" stop-color="#0d3570"/><stop offset="1" stop-color="#07183a"/></radialGradient><radialGradient id="atm" gradientUnits="userSpaceOnUse" cx="110" cy="430" r="316"><stop offset=".94" stop-color="#7cc8ff" stop-opacity="0"/><stop offset=".95" stop-color="#9bd6ff" stop-opacity=".55"/><stop offset="1" stop-color="#7cc8ff" stop-opacity="0"/></radialGradient><clipPath id="ec"><circle cx="110" cy="430" r="300"/></clipPath><linearGradient id="rad" x1="0" y1="0" x2="0" y2="1"><stop offset="0" stop-color="#cbe9ff"/><stop offset="1" stop-color="#8fc6f0"/></linearGradient><linearGradient id="gold2" x1="0" y1="0" x2="0" y2="1"><stop offset="0" stop-color="#ffe08a"/><stop offset="1" stop-color="#b9822a"/></linearGradient></defs><g clip-path="url(#card)"><rect width="400" height="250" fill="url(#cbg)"/><rect width="400" height="250" fill="url(#acc)"/><g class="t0" fill="#fff"><circle cx="55.4" cy="63.5" r="0.39" fill="#cfe8ff" opacity="0.47"/><circle cx="370.3" cy="13.9" r="0.47" fill="#cfe8ff" opacity="0.85"/><circle cx="116.4" cy="32.6" r="0.7" fill="#cfe8ff" opacity="0.61"/><circle cx="342.9" cy="69.9" r="0.77" opacity="0.92"/><circle cx="346.5" cy="35" r="0.41" fill="#ffe7c2" opacity="0.76"/><circle cx="317.2" cy="85.7" r="0.37" opacity="0.82"/><circle cx="220.9" cy="44" r="0.56" opacity="0.44"/><circle cx="73.1" cy="101.6" r="0.38" opacity="0.69"/><circle cx="292.3" cy="21.1" r="0.54" opacity="0.77"/><circle cx="386.9" cy="139.9" r="1.22" opacity="0.48"/><circle cx="376.4" cy="87.3" r="0.6" fill="#e2d4ff" opacity="0.61"/><circle cx="190.4" cy="95.1" r="0.9" opacity="0.91"/><circle cx="144.3" cy="60.7" r="1.23" opacity="0.88"/><circle cx="190.5" cy="27.2" r="0.85" fill="#cfe8ff" opacity="0.75"/></g><g class="t1" fill="#fff"><circle cx="70.2" cy="103.3" r="0.36" fill="#e2d4ff" opacity="0.99"/><circle cx="150.8" cy="44" r="0.84" fill="#ffe7c2" opacity="0.63"/><circle cx="85" cy="30.7" r="1.17" fill="#e2d4ff" opacity="0.5"/><circle cx="323.1" cy="56" r="0.59" fill="#cfe8ff" opacity="0.85"/><circle cx="387.4" cy="128.6" r="0.67" fill="#e2d4ff" opacity="0.94"/><circle cx="24.1" cy="15.4" r="0.51" opacity="0.76"/><circle cx="279.2" cy="13.5" r="0.35" opacity="0.56"/><circle cx="260.8" cy="132" r="0.48" opacity="0.35"/><circle cx="69" cy="106.3" r="0.52" fill="#e2d4ff" opacity="0.65"/><circle cx="81.2" cy="54" r="0.35" fill="#ffe7c2" opacity="0.77"/><circle cx="93.2" cy="158.2" r="1.1" fill="#ffe7c2" opacity="0.59"/></g><g class="t2" fill="#fff"><circle cx="238.7" cy="68.4" r="0.35" opacity="0.37"/><circle cx="285.4" cy="113.5" r="0.85" opacity="0.61"/><circle cx="82.7" cy="50.6" r="0.35" opacity="0.96"/><circle cx="178.5" cy="34.2" r="0.42" opacity="0.6"/><circle cx="107.9" cy="11.9" r="0.86" opacity="0.73"/><circle cx="100.4" cy="109.2" r="1.03" fill="#e2d4ff" opacity="0.47"/><circle cx="305.8" cy="131.1" r="0.44" opacity="0.43"/><circle cx="244.5" cy="57.6" r="0.63" opacity="0.68"/><circle cx="99.7" cy="141.2" r="0.36" opacity="0.89"/><circle cx="366.4" cy="160.6" r="0.45" opacity="0.41"/><circle cx="129.3" cy="151.5" r="0.79" opacity="0.88"/><circle cx="249.9" cy="27.2" r="0.52" opacity="0.46"/><circle cx="306.5" cy="101.1" r="0.45" opacity="0.58"/><circle cx="344.2" cy="163.5" r="1.01" opacity="0.88"/><circle cx="2.2" cy="20.6" r="0.36" fill="#e2d4ff" opacity="0.6"/></g><circle cx="110" cy="430" r="316" fill="url(#atm)"/><circle cx="110" cy="430" r="300" fill="url(#ea)"/><g clip-path="url(#ec)"><g class="cl" fill="#fff" opacity=".22"><g><ellipse cx="92.6" cy="181.1" rx="12.2" ry="3.7"/><ellipse cx="1.3" cy="195.3" rx="24.4" ry="2.2"/><ellipse cx="110.9" cy="207.8" rx="10.7" ry="2.8"/><ellipse cx="140.7" cy="189.7" rx="21.6" ry="2.3"/><ellipse cx="47.6" cy="152.2" rx="18.1" ry="3.8"/><ellipse cx="118.1" cy="225.2" rx="16.1" ry="3.5"/><ellipse cx="20.3" cy="172" rx="20.8" ry="3.5"/><ellipse cx="84.4" cy="149.6" rx="14.3" ry="2.4"/><ellipse cx="56.2" cy="229" rx="13.2" ry="3.8"/><ellipse cx="175.9" cy="146" rx="16.1" ry="3"/><ellipse cx="4.7" cy="186.7" rx="24.5" ry="2.2"/><ellipse cx="119.4" cy="153.3" rx="19.3" ry="3.8"/><ellipse cx="40.6" cy="140.9" rx="11.3" ry="3.1"/><ellipse cx="3.5" cy="149.3" rx="17.9" ry="3.8"/><ellipse cx="84" cy="183.8" rx="20.2" ry="2.2"/><ellipse cx="116" cy="159" rx="19.7" ry="3.9"/></g><g transform="translate(200 0)"><ellipse cx="92.6" cy="181.1" rx="12.2" ry="3.7"/><ellipse cx="1.3" cy="195.3" rx="24.4" ry="2.2"/><ellipse cx="110.9" cy="207.8" rx="10.7" ry="2.8"/><ellipse cx="140.7" cy="189.7" rx="21.6" ry="2.3"/><ellipse cx="47.6" cy="152.2" rx="18.1" ry="3.8"/><ellipse cx="118.1" cy="225.2" rx="16.1" ry="3.5"/><ellipse cx="20.3" cy="172" rx="20.8" ry="3.5"/><ellipse cx="84.4" cy="149.6" rx="14.3" ry="2.4"/><ellipse cx="56.2" cy="229" rx="13.2" ry="3.8"/><ellipse cx="175.9" cy="146" rx="16.1" ry="3"/><ellipse cx="4.7" cy="186.7" rx="24.5" ry="2.2"/><ellipse cx="119.4" cy="153.3" rx="19.3" ry="3.8"/><ellipse cx="40.6" cy="140.9" rx="11.3" ry="3.1"/><ellipse cx="3.5" cy="149.3" rx="17.9" ry="3.8"/><ellipse cx="84" cy="183.8" rx="20.2" ry="2.2"/><ellipse cx="116" cy="159" rx="19.7" ry="3.9"/></g></g></g><g transform="translate(250 92) rotate(-12)"><g class="flt"><path d="M30-14L-38-56L-60-56L-66-16V16L-60 56L-38 56L30 14Z" fill="#dfe4f2"/><path d="M30-14L-38-56M30 14L-38 56" stroke="#2a2f40" stroke-width="2.2"/><path d="M-62-56V-16M-62 56V16" stroke="#aab3d4" stroke-width="1"/><path d="M-74-15H60Q88-12 97 0Q88 12 60 15H-74Z" fill="#f2f4fb"/><path d="M86-6Q97 0 86 6Q90 0 86-6Z" fill="#2a2f40"/><path d="M66-7L76-5V5L66 7Z" fill="#1b2236"/><rect x="-84" y="-14" width="10" height="7" rx="2" fill="#cfd5e8"/><rect x="-84" y="7" width="10" height="7" rx="2" fill="#cfd5e8"/><path d="M-86-4H-74V4H-86Z" fill="#3a3f52"/><path d="M-72 0H-40" stroke="#b9c0d6" stroke-width="3" stroke-linecap="round"/><rect x="-50" y="-13" width="92" height="26" fill="#1b2236"/><path d="M-40-13V13M-24-13V13M-8-13V13M8-13V13M24-13V13" stroke="#2c3550" stroke-width="1"/><rect x="-20" y="-7" width="34" height="14" rx="3" fill="url(#gold2)"/><rect x="-17" y="-12" width="10" height="5" fill="#2d4f9e" stroke="#7cc8ff" stroke-width=".4"/><rect x="-17" y="7" width="10" height="5" fill="#2d4f9e" stroke="#7cc8ff" stroke-width=".4"/><g transform="translate(0 -13)"><g class="rA" style="transform:scaleY(1)"><rect x="-50" y="-13" width="92" height="13" fill="url(#rad)"/><path d="M-50-6.5H42M-27-13V0M-4-13V0M19-13V0" stroke="#5aa9e6" stroke-opacity=".5" stroke-width=".6"/></g><g class="dA" style="transform:scaleY(0)"><rect x="-50" y="0" width="92" height="13" fill="#e9edff"/><path d="M-27 0V13M-4 0V13M19 0V13" stroke="#aab3d4" stroke-width=".6"/></g></g><g transform="translate(0 13)"><g class="rA" style="transform:scaleY(1)"><rect x="-50" y="0" width="92" height="13" fill="url(#rad)"/><path d="M-50 6.5H42M-27 0V13M-4 0V13M19 0V13" stroke="#5aa9e6" stroke-opacity=".5" stroke-width=".6"/></g><g class="dA" style="transform:scaleY(0)"><rect x="-50" y="-13" width="92" height="13" fill="#dfe4f2"/><path d="M-27-13V0M-4-13V0M19-13V0" stroke="#aab3d4" stroke-width=".6"/></g></g></g></g><rect y="150" width="400" height="100" fill="url(#scr)"/></g><g transform="translate(14 14)"><rect width="60.9" height="25" rx="12.5" fill="#04050a" fill-opacity=".88"/><rect width="60.9" height="25" rx="12.5" fill="#ff7a3d" fill-opacity=".14" stroke="#ff7a3d" stroke-opacity=".6"/><circle cx="12.5" cy="12.5" r="3.4" fill="#ff7a3d"/><text class="sans" x="21.5" y="17" font-size="12" font-weight="700" letter-spacing="1.5" fill="#ff7a3d">FLY</text></g><text class="mono" x="384" y="31" text-anchor="end" font-size="11" fill="#5d6589">shuttle.html</text><text class="sans" x="20" y="212" font-size="24" font-weight="700" letter-spacing="-.2" fill="#e9edff">Endeavour</text><text class="sans" x="20" y="236" font-size="15" fill="#8f98bd">The Space Shuttle in Los Angeles</text><g transform="translate(312 192)"><rect width="72" height="27" rx="13.5" fill="#04050a" fill-opacity=".6" stroke="#ff7a3d" stroke-opacity=".55"/><text class="sans" x="13" y="18.5" font-size="13" font-weight="600" fill="#ff7a3d">Open</text><path d="M51 17.5L59 9.5M53.5 9.5H59V15" fill="none" stroke="#ff7a3d" stroke-width="1.7" stroke-linecap="round" stroke-linejoin="round"/></g><rect x=".5" y=".5" width="399" height="249" rx="17.5" fill="none" stroke="#96aaff" stroke-opacity=".2"/><path class="beam rm-hide" d="M18 0.8H382A17.2 17.2 0 0 1 399.2 18V232A17.2 17.2 0 0 1 382 249.2H18A17.2 17.2 0 0 1 0.8 232V18A17.2 17.2 0 0 1 18 0.8Z" pathLength="100" fill="none" stroke="#ff7a3d" stroke-width="1.5" stroke-dasharray="9 91" stroke-linecap="round" opacity=".85"/></svg>
