<svg xmlns="http://www.w3.org/2000/svg" xmlns:xlink="http://www.w3.org/1999/xlink" viewBox="0 0 400 250" width="400" height="250" role="img" aria-labelledby="skt skd"><title id="skt">Night sky · Cosmic Library</title><desc id="skd">Night sky (Explore): A planetarium for your location, tonight. Animated card: A night sky over a dark horizon: the Big Dipper and Cassiopeia draw themselves star by star, and the pointer stars lead to Polaris.</desc><style>*{transform-origin:0 0}.sans{font-family:"Segoe UI", -apple-system, BlinkMacSystemFont, "Helvetica Neue", Arial, sans-serif}.mono{font-family:ui-monospace, SFMono-Regular, Menlo, Consolas, monospace}.serif{font-family:Georgia, "Times New Roman", Times, serif}@keyframes tw{0%{opacity:1}50%{opacity:0.25}100%{opacity:1}}.t0{animation:tw 2.4s ease-in-out infinite}.t1{animation:tw 3.5s ease-in-out -0.73s infinite}.t2{animation:tw 4.6s ease-in-out -1.46s infinite}@keyframes dr{0%{stroke-dashoffset:1;opacity:1}6%{stroke-dashoffset:1}30%{stroke-dashoffset:0}88%{stroke-dashoffset:0;opacity:1}96%{stroke-dashoffset:0;opacity:0}100%{stroke-dashoffset:1;opacity:0}}@keyframes dc{0%{stroke-dashoffset:1;opacity:1}30%{stroke-dashoffset:1}46%{stroke-dashoffset:0}88%{stroke-dashoffset:0;opacity:1}96%{stroke-dashoffset:0;opacity:0}100%{stroke-dashoffset:1;opacity:0}}@keyframes dp{0%{stroke-dashoffset:1;opacity:1}46%{stroke-dashoffset:1}60%{stroke-dashoffset:0}88%{stroke-dashoffset:0;opacity:1}96%{stroke-dashoffset:0;opacity:0}100%{stroke-dashoffset:1;opacity:0}}.ldr{animation:dr 10s ease-in-out infinite}.ldc{animation:dc 10s ease-in-out infinite}.ldp{animation:dp 10s ease-in-out infinite}@keyframes la{0%{opacity:0.0}26%{opacity:0.0}30%{opacity:1.0}88%{opacity:1.0}92%{opacity:0.0}100%{opacity:0.0}}@keyframes lb{0%{opacity:0.0}42%{opacity:0.0}46%{opacity:1.0}88%{opacity:1.0}92%{opacity:0.0}100%{opacity:0.0}}@keyframes lc{0%{opacity:0.0}56%{opacity:0.0}60%{opacity:1.0}88%{opacity:1.0}92%{opacity:0.0}100%{opacity:0.0}}.la{animation:la 10s linear infinite}.lb{animation:lb 10s linear infinite}.lc{animation:lc 10s linear infinite}@keyframes bs{0%{transform:scale(1);opacity:1}50%{transform:scale(.6);opacity:.55}100%{transform:scale(1);opacity:1}}@keyframes met{0%{transform:translate(0,0);opacity:0}70%{transform:translate(0,0);opacity:0}71%{opacity:1}76%{transform:translate(-70px,34px);opacity:0}100%{transform:translate(-70px,34px);opacity:0}}.met{animation:met 7.3s ease-in infinite}.b0{animation:bs 2.2s ease-in-out infinite}.b1{animation:bs 2.75s ease-in-out -0.37s infinite}.b2{animation:bs 3.3s ease-in-out -0.74s infinite}.b3{animation:bs 3.85s ease-in-out -1.11s infinite}.b4{animation:bs 4.4s ease-in-out -1.48s infinite}.b5{animation:bs 2.2s ease-in-out -1.85s infinite}.b6{animation:bs 2.75s ease-in-out -2.22s infinite}.b7{animation:bs 3.3s ease-in-out -2.59s infinite}.b8{animation:bs 3.85s ease-in-out -2.96s infinite}.b9{animation:bs 4.4s ease-in-out -3.33s infinite}.b10{animation:bs 2.2s ease-in-out -1.5s infinite}.b11{animation:bs 2.75s ease-in-out -1.32s infinite}.b12{animation:bs 3.3s ease-in-out -1.14s infinite}@keyframes beam{0%{stroke-dashoffset:100}100%{stroke-dashoffset:0}}.beam{animation:beam 9s linear infinite}@media (prefers-reduced-motion:reduce){*{animation:none!important}.rm-hide{display:none}}</style><defs><clipPath id="card"><rect width="400" height="250" rx="18"/></clipPath><linearGradient id="cbg" x1="0" y1="0" x2="0" y2="1"><stop offset="0" stop-color="#0b1020"/><stop offset="1" stop-color="#04050a"/></linearGradient><radialGradient id="acc" cx="1" cy="0" r="1"><stop offset="0" stop-color="#7cc8ff" stop-opacity=".16"/><stop offset=".6" stop-color="#7cc8ff" stop-opacity="0"/></radialGradient><linearGradient id="scr" x1="0" y1="0" x2="0" y2="1"><stop offset="0" stop-color="#04050a" stop-opacity="0"/><stop offset=".5" stop-color="#04050a" stop-opacity=".82"/><stop offset="1" stop-color="#04050a" stop-opacity=".94"/></linearGradient><linearGradient id="ns" x1="0" y1="0" x2="0" y2="1"><stop offset="0" stop-color="#03050d"/><stop offset=".7" stop-color="#0b1430"/><stop offset="1" stop-color="#1c2c58"/></linearGradient><radialGradient id="mw"><stop offset="0" stop-color="#d9d0ff" stop-opacity=".14"/><stop offset="1" stop-color="#b18cff" stop-opacity="0"/></radialGradient><radialGradient id="sg"><stop offset="0" stop-color="#cfe8ff" stop-opacity=".8"/><stop offset="1" stop-color="#7cc8ff" stop-opacity="0"/></radialGradient><linearGradient id="mt" x1="0" y1="0" x2="1" y2="0"><stop offset="0" stop-color="#fff"/><stop offset="1" stop-color="#7cc8ff" stop-opacity="0"/></linearGradient></defs><g clip-path="url(#card)"><rect width="400" height="250" fill="url(#cbg)"/><rect width="400" height="250" fill="url(#acc)"/><g class="t0" fill="#fff"><circle cx="349.6" cy="109.8" r="1.12" fill="#e2d4ff" opacity="0.65"/><circle cx="180.5" cy="6.5" r="0.35" opacity="0.87"/><circle cx="307.9" cy="80.9" r="0.39" fill="#e2d4ff" opacity="0.54"/><circle cx="272" cy="92.1" r="0.5" opacity="0.91"/><circle cx="76.7" cy="74.9" r="0.74" fill="#cfe8ff" opacity="0.51"/><circle cx="316.6" cy="26.5" r="0.38" opacity="0.97"/><circle cx="264.4" cy="111" r="0.37" fill="#ffe7c2" opacity="0.46"/><circle cx="255.5" cy="143" r="0.58" fill="#ffe7c2" opacity="0.67"/><circle cx="220.1" cy="166.1" r="0.38" opacity="0.88"/><circle cx="112.5" cy="30.4" r="0.92" opacity="0.46"/><circle cx="157" cy="128.7" r="0.68" opacity="0.99"/><circle cx="300.3" cy="4.8" r="0.63" opacity="0.95"/><circle cx="330.4" cy="132.9" r="1.07" fill="#ffe7c2" opacity="0.8"/><circle cx="381.3" cy="59" r="1.24" opacity="0.39"/><circle cx="339.9" cy="55.3" r="0.58" opacity="0.65"/><circle cx="309" cy="88.6" r="0.39" opacity="0.38"/><circle cx="281.3" cy="64.2" r="0.52" fill="#cfe8ff" opacity="0.79"/></g><g class="t1" fill="#fff"><circle cx="224.5" cy="103.6" r="0.5" fill="#e2d4ff" opacity="0.93"/><circle cx="187.8" cy="156.9" r="0.44" opacity="0.85"/><circle cx="321.5" cy="74.3" r="0.42" opacity="0.9"/><circle cx="394.2" cy="116.1" r="1.24" opacity="0.78"/><circle cx="114.6" cy="165.5" r="0.47" opacity="0.45"/><circle cx="335.7" cy="24.4" r="1.06" fill="#ffe7c2" opacity="0.59"/><circle cx="31.2" cy="105.9" r="0.56" opacity="0.46"/><circle cx="389.8" cy="86.9" r="0.47" fill="#cfe8ff" opacity="0.71"/><circle cx="220.3" cy="76.4" r="1.05" opacity="0.77"/><circle cx="1.5" cy="167.2" r="0.45" opacity="0.65"/><circle cx="32.8" cy="4.7" r="0.73" fill="#cfe8ff" opacity="0.81"/><circle cx="155.7" cy="101.4" r="1.01" opacity="0.6"/><circle cx="215.4" cy="126.8" r="0.95" opacity="0.54"/><circle cx="89.7" cy="121.8" r="0.7" fill="#cfe8ff" opacity="0.38"/><circle cx="208" cy="5.6" r="0.35" opacity="0.46"/><circle cx="342.4" cy="64.1" r="1.23" opacity="0.67"/><circle cx="139.2" cy="30.3" r="0.5" fill="#ffe7c2" opacity="0.96"/><circle cx="192.6" cy="136.8" r="1.15" fill="#ffe7c2" opacity="0.63"/><circle cx="289" cy="94.2" r="0.38" fill="#e2d4ff" opacity="0.62"/><circle cx="210.7" cy="96" r="0.41" fill="#cfe8ff" opacity="0.67"/><circle cx="397" cy="66.8" r="0.41" opacity="0.89"/><circle cx="280.3" cy="48.1" r="0.4" fill="#ffe7c2" opacity="0.85"/><circle cx="352.5" cy="120.6" r="0.77" fill="#cfe8ff" opacity="0.93"/><circle cx="364" cy="47.3" r="0.37" opacity="0.35"/><circle cx="359.3" cy="61.5" r="0.36" fill="#ffe7c2" opacity="0.96"/><circle cx="114.4" cy="85.9" r="0.54" fill="#ffe7c2" opacity="0.94"/><circle cx="32.4" cy="30.4" r="0.35" opacity="0.91"/></g><g class="t2" fill="#fff"><circle cx="311.3" cy="45.2" r="0.72" fill="#cfe8ff" opacity="0.93"/><circle cx="221.6" cy="167.8" r="0.59" opacity="0.94"/><circle cx="280.9" cy="82.2" r="1.19" opacity="0.55"/><circle cx="176.2" cy="40.2" r="0.69" fill="#e2d4ff" opacity="0.36"/><circle cx="157.1" cy="80.9" r="0.45" fill="#e2d4ff" opacity="0.86"/><circle cx="395.6" cy="135" r="0.99" opacity="0.67"/><circle cx="381.5" cy="90.3" r="1.05" fill="#cfe8ff" opacity="0.42"/><circle cx="295.2" cy="118.1" r="0.96" fill="#e2d4ff" opacity="0.53"/><circle cx="48.7" cy="34.7" r="0.55" opacity="0.96"/><circle cx="165.6" cy="89.5" r="0.35" fill="#e2d4ff" opacity="0.85"/><circle cx="45.5" cy="95.8" r="0.35" fill="#e2d4ff" opacity="0.82"/><circle cx="366.1" cy="26.7" r="0.91" fill="#ffe7c2" opacity="0.54"/><circle cx="0.6" cy="132.2" r="0.96" fill="#cfe8ff" opacity="0.76"/><circle cx="191.5" cy="169.8" r="1.19" opacity="0.38"/><circle cx="121.2" cy="36.4" r="1.18" opacity="0.81"/><circle cx="104.7" cy="49.6" r="0.39" opacity="1"/><circle cx="99.7" cy="56.5" r="0.61" opacity="0.97"/><circle cx="175.1" cy="152.9" r="0.84" fill="#ffe7c2" opacity="0.51"/><circle cx="270" cy="127.9" r="0.58" fill="#cfe8ff" opacity="0.46"/><circle cx="101.4" cy="43.4" r="0.39" opacity="0.53"/><circle cx="24.3" cy="92.5" r="0.43" fill="#cfe8ff" opacity="0.41"/><circle cx="377.1" cy="108.3" r="0.5" fill="#ffe7c2" opacity="0.9"/><circle cx="204.7" cy="98.6" r="1.15" opacity="0.86"/><circle cx="395.2" cy="3" r="0.45" opacity="0.63"/><circle cx="141.3" cy="117.4" r="0.4" opacity="0.41"/><circle cx="187.6" cy="142.6" r="0.48" opacity="0.75"/></g><rect width="400" height="180" fill="url(#ns)"/><ellipse cx="220" cy="110" rx="240" ry="36" fill="url(#mw)" transform="rotate(-28 220 110)"/><g fill="none" stroke="#7cc8ff" stroke-width="1.1" stroke-opacity=".75" stroke-linejoin="round"><path class="ldr" d="M124.4 44.9L146.5 56.7L161 73.6L171.6 96.2L189.3 115.6L171 128L149.6 107.9L171.6 96.2" pathLength="1" stroke-dasharray="1 1"/><path class="ldc" d="M304 104L319 120L334 107L350 123L366 101" pathLength="1" stroke-dasharray="1 1"/></g><path class="ldp" d="M171 128L254 72" pathLength="1" stroke-dasharray="1 1" stroke="#ffc24b" stroke-opacity=".55" stroke-width=".9"/><g transform="translate(189.3 115.6)"><g class="b0"><circle r="5" fill="url(#sg)"/><circle r="1.7" fill="#fff"/></g></g><g transform="translate(171 128)"><g class="b1"><circle r="5" fill="url(#sg)"/><circle r="1.7" fill="#fff"/></g></g><g transform="translate(149.6 107.9)"><g class="b2"><circle r="5" fill="url(#sg)"/><circle r="1.7" fill="#fff"/></g></g><g transform="translate(171.6 96.2)"><g class="b3"><circle r="5" fill="url(#sg)"/><circle r="1.7" fill="#fff"/></g></g><g transform="translate(161 73.6)"><g class="b4"><circle r="5" fill="url(#sg)"/><circle r="1.7" fill="#fff"/></g></g><g transform="translate(146.5 56.7)"><g class="b5"><circle r="5" fill="url(#sg)"/><circle r="1.7" fill="#fff"/></g></g><g transform="translate(124.4 44.9)"><g class="b6"><circle r="5" fill="url(#sg)"/><circle r="1.7" fill="#fff"/></g></g><g transform="translate(304 104)"><g class="b7"><circle r="5" fill="url(#sg)"/><circle r="1.7" fill="#fff"/></g></g><g transform="translate(319 120)"><g class="b8"><circle r="5" fill="url(#sg)"/><circle r="1.7" fill="#fff"/></g></g><g transform="translate(334 107)"><g class="b9"><circle r="5" fill="url(#sg)"/><circle r="1.7" fill="#fff"/></g></g><g transform="translate(350 123)"><g class="b10"><circle r="5" fill="url(#sg)"/><circle r="1.7" fill="#fff"/></g></g><g transform="translate(366 101)"><g class="b11"><circle r="5" fill="url(#sg)"/><circle r="1.7" fill="#fff"/></g></g><g transform="translate(254 72)"><g class="b12"><circle r="7" fill="url(#sg)"/><circle r="2.3" fill="#fff"/></g></g><text class="la mono" x="110.4" y="152" font-size="10.5" letter-spacing="1.6" fill="#7cc8ff">URSA MAJOR</text><text class="lb mono" x="334" y="141" text-anchor="middle" font-size="10.5" letter-spacing="1.6" fill="#7cc8ff">CASSIOPEIA</text><text class="lc mono" x="264" y="65" font-size="10.5" letter-spacing="1.6" fill="#ffc24b">POLARIS</text><g transform="translate(150 30)"><path class="met rm-hide" d="M0 0L36-17" stroke="url(#mt)" stroke-width="1.2" style="opacity:0"/></g><path d="M0 170Q40 160 80 166T160 162Q210 170 250 164T330 168T400 160V250H0Z" fill="#020309"/><g fill="#020309"><path d="M60 176L52.3 176L60 154L67.7 176Z"/><path d="M72 176L66.4 176L72 160L77.6 176Z"/><path d="M356 176L349.0 176L356 156L363.0 176Z"/><path d="M368 176L358.9 176L368 150L377.1 176Z"/><path d="M380 176L374.75 176L380 161L385.25 176Z"/><path d="M286 170V160H306V170Z"/><path d="M286 160A10 10 0 0 1 306 160Z"/></g><path d="M296 150L310 142" stroke="#020309" stroke-width="2.5"/><rect y="150" width="400" height="100" fill="url(#scr)"/></g><g transform="translate(14 14)"><rect width="98.1" height="25" rx="12.5" fill="#04050a" fill-opacity=".88"/><rect width="98.1" height="25" rx="12.5" fill="#7cc8ff" fill-opacity=".14" stroke="#7cc8ff" stroke-opacity=".6"/><circle cx="12.5" cy="12.5" r="3.4" fill="#7cc8ff"/><text class="sans" x="21.5" y="17" font-size="12" font-weight="700" letter-spacing="1.5" fill="#7cc8ff">EXPLORE</text></g><text class="mono" x="384" y="31" text-anchor="end" font-size="11" fill="#5d6589">sky.html</text><text class="sans" x="20" y="212" font-size="24" font-weight="700" letter-spacing="-.2" fill="#e9edff">Night sky</text><text class="sans" x="20" y="236" font-size="15" fill="#8f98bd">A planetarium for your location, tonight</text><g transform="translate(312 192)"><rect width="72" height="27" rx="13.5" fill="#04050a" fill-opacity=".6" stroke="#7cc8ff" stroke-opacity=".55"/><text class="sans" x="13" y="18.5" font-size="13" font-weight="600" fill="#7cc8ff">Open</text><path d="M51 17.5L59 9.5M53.5 9.5H59V15" fill="none" stroke="#7cc8ff" stroke-width="1.7" stroke-linecap="round" stroke-linejoin="round"/></g><rect x=".5" y=".5" width="399" height="249" rx="17.5" fill="none" stroke="#96aaff" stroke-opacity=".2"/><path class="beam rm-hide" d="M18 0.8H382A17.2 17.2 0 0 1 399.2 18V232A17.2 17.2 0 0 1 382 249.2H18A17.2 17.2 0 0 1 0.8 232V18A17.2 17.2 0 0 1 18 0.8Z" pathLength="100" fill="none" stroke="#7cc8ff" stroke-width="1.5" stroke-dasharray="9 91" stroke-linecap="round" opacity=".85"/></svg>
