<svg xmlns="http://www.w3.org/2000/svg" xmlns:xlink="http://www.w3.org/1999/xlink" viewBox="0 0 400 250" width="400" height="250" role="img" aria-labelledby="sot sod"><title id="sot">Solar observatory · Cosmic Library</title><desc id="sod">Solar observatory (Explore): Today's real Sun from SDO, SOHO and GOES. Animated card: The real Sun as the Solar Dynamics Observatory sees it, cycling through its channels: gold AIA 171 Å (about 600,000 K), bronze 193 Å (1.6 million K), red 304 Å (50,000 K), teal 131 Å (10 million K, flares) and the grey visible-light HMI disc with sunspots, with the same active regions in every view.</desc><style>*{transform-origin:0 0}.sans{font-family:"Segoe UI", -apple-system, BlinkMacSystemFont, "Helvetica Neue", Arial, sans-serif}.mono{font-family:ui-monospace, SFMono-Regular, Menlo, Consolas, monospace}.serif{font-family:Georgia, "Times New Roman", Times, serif}@keyframes tw{0%{opacity:1}50%{opacity:0.25}100%{opacity:1}}.t0{animation:tw 2.4s ease-in-out infinite}.t1{animation:tw 3.5s ease-in-out -0.73s infinite}.t2{animation:tw 4.6s ease-in-out -1.46s infinite}@keyframes ch0{0%{opacity:1}17.8%{opacity:1}20%{opacity:0}97.8%{opacity:0}100%{opacity:1}}.ch0{animation:ch0 12.5s linear infinite}@keyframes ch1{0%{opacity:0}17.8%{opacity:0}20%{opacity:1}37.8%{opacity:1}40%{opacity:0}100%{opacity:0}}.ch1{animation:ch1 12.5s linear infinite}@keyframes ch2{0%{opacity:0}37.8%{opacity:0}40%{opacity:1}57.8%{opacity:1}60%{opacity:0}100%{opacity:0}}.ch2{animation:ch2 12.5s linear infinite}@keyframes ch3{0%{opacity:0}57.8%{opacity:0}60%{opacity:1}77.8%{opacity:1}80%{opacity:0}100%{opacity:0}}.ch3{animation:ch3 12.5s linear infinite}@keyframes ch4{0%{opacity:0}77.8%{opacity:0}80%{opacity:1}97.8%{opacity:1}100%{opacity:0}}.ch4{animation:ch4 12.5s linear infinite}@keyframes hl{0%{transform:translateY(0)}17.8%{transform:translateY(0px)}20%{transform:translateY(19px)}37.8%{transform:translateY(19px)}40%{transform:translateY(38px)}57.8%{transform:translateY(38px)}60%{transform:translateY(57px)}77.8%{transform:translateY(57px)}80%{transform:translateY(76px)}97.8%{transform:translateY(76px)}100%{transform:translateY(0)}}.hl{animation:hl 12.5s ease-in-out infinite}@keyframes rot{0%{transform:rotate(0)}100%{transform:rotate(360deg)}}@keyframes beam{0%{stroke-dashoffset:100}100%{stroke-dashoffset:0}}.beam{animation:beam 9s linear infinite}@keyframes lv{0%{opacity:1}50%{opacity:.25}100%{opacity:1}}.live{animation:lv 1.6s ease-in-out infinite}@media (prefers-reduced-motion:reduce){*{animation:none!important}.rm-hide{display:none}}</style><defs><clipPath id="card"><rect width="400" height="250" rx="18"/></clipPath><linearGradient id="cbg" x1="0" y1="0" x2="0" y2="1"><stop offset="0" stop-color="#0b1020"/><stop offset="1" stop-color="#04050a"/></linearGradient><radialGradient id="acc" cx="1" cy="0" r="1"><stop offset="0" stop-color="#7cc8ff" stop-opacity=".16"/><stop offset=".6" stop-color="#7cc8ff" stop-opacity="0"/></radialGradient><linearGradient id="scr" x1="0" y1="0" x2="0" y2="1"><stop offset="0" stop-color="#04050a" stop-opacity="0"/><stop offset=".5" stop-color="#04050a" stop-opacity=".82"/><stop offset="1" stop-color="#04050a" stop-opacity=".94"/></linearGradient><radialGradient id="sd0" cx=".46" cy=".44" r=".62"><stop offset="0" stop-color="#f4cf62"/><stop offset=".78" stop-color="#f4cf62" stop-opacity=".9"/><stop offset="1" stop-color="#5c3d08"/></radialGradient><radialGradient id="cr0"><stop offset=".6" stop-color="#f4cf62" stop-opacity=".55"/><stop offset=".8" stop-color="#f4cf62" stop-opacity=".12"/><stop offset="1" stop-color="#f4cf62" stop-opacity="0"/></radialGradient><radialGradient id="sd1" cx=".46" cy=".44" r=".62"><stop offset="0" stop-color="#d49a55"/><stop offset=".78" stop-color="#d49a55" stop-opacity=".9"/><stop offset="1" stop-color="#4a2a0c"/></radialGradient><radialGradient id="cr1"><stop offset=".6" stop-color="#d49a55" stop-opacity=".55"/><stop offset=".8" stop-color="#d49a55" stop-opacity=".12"/><stop offset="1" stop-color="#d49a55" stop-opacity="0"/></radialGradient><radialGradient id="sd2" cx=".46" cy=".44" r=".62"><stop offset="0" stop-color="#ff6a3a"/><stop offset=".78" stop-color="#ff6a3a" stop-opacity=".9"/><stop offset="1" stop-color="#5a0c02"/></radialGradient><radialGradient id="cr2"><stop offset=".6" stop-color="#ff6a3a" stop-opacity=".55"/><stop offset=".8" stop-color="#ff6a3a" stop-opacity=".12"/><stop offset="1" stop-color="#ff6a3a" stop-opacity="0"/></radialGradient><radialGradient id="sd3" cx=".46" cy=".44" r=".62"><stop offset="0" stop-color="#48c4c8"/><stop offset=".78" stop-color="#48c4c8" stop-opacity=".9"/><stop offset="1" stop-color="#062e33"/></radialGradient><radialGradient id="cr3"><stop offset=".6" stop-color="#48c4c8" stop-opacity=".55"/><stop offset=".8" stop-color="#48c4c8" stop-opacity=".12"/><stop offset="1" stop-color="#48c4c8" stop-opacity="0"/></radialGradient><radialGradient id="sd4" cx=".46" cy=".44" r=".62"><stop offset="0" stop-color="#e9e6df"/><stop offset=".78" stop-color="#e9e6df" stop-opacity=".9"/><stop offset="1" stop-color="#6d6a64"/></radialGradient><clipPath id="sdc"><circle cx="294" cy="104" r="60"/></clipPath><filter id="tex" x="0" y="0" width="1" height="1"><feTurbulence type="fractalNoise" baseFrequency=".09" numOctaves="3" seed="8"/><feColorMatrix values="0 0 0 0 1 0 0 0 0 1 0 0 0 0 1 0 0 0 1.6 -.72"/></filter></defs><g clip-path="url(#card)"><rect width="400" height="250" fill="url(#cbg)"/><rect width="400" height="250" fill="url(#acc)"/><g class="t0" fill="#fff"><circle cx="158.4" cy="74.3" r="0.38" opacity="0.94"/><circle cx="357.7" cy="172.5" r="0.47" opacity="0.48"/><circle cx="275.4" cy="96.8" r="0.83" opacity="0.57"/><circle cx="149" cy="159.6" r="0.35" opacity="0.44"/><circle cx="27.7" cy="55.6" r="0.73" fill="#cfe8ff" opacity="0.76"/><circle cx="127.7" cy="131.4" r="0.49" opacity="0.78"/><circle cx="229.4" cy="31.4" r="0.67" opacity="0.83"/><circle cx="195.6" cy="96.8" r="0.67" opacity="0.52"/><circle cx="0.5" cy="133.3" r="0.4" fill="#cfe8ff" opacity="0.86"/><circle cx="197.7" cy="112.6" r="0.39" opacity="0.53"/><circle cx="395.4" cy="78.4" r="0.4" opacity="0.89"/></g><g class="t1" fill="#fff"><circle cx="288.7" cy="102.5" r="1.02" opacity="0.48"/><circle cx="275.3" cy="172.1" r="0.47" opacity="0.59"/><circle cx="159.6" cy="114.9" r="1.24" opacity="0.58"/><circle cx="63.7" cy="162.2" r="0.38" opacity="0.91"/><circle cx="359.6" cy="36.4" r="0.79" fill="#e2d4ff" opacity="0.98"/><circle cx="131.4" cy="147.4" r="0.87" opacity="0.69"/><circle cx="145.9" cy="139.1" r="0.53" opacity="0.49"/><circle cx="319.3" cy="162" r="0.56" opacity="0.67"/><circle cx="120.4" cy="68.5" r="1.25" fill="#ffe7c2" opacity="0.38"/><circle cx="104.1" cy="108.1" r="0.75" fill="#cfe8ff" opacity="0.74"/></g><g class="t2" fill="#fff"><circle cx="119" cy="51.3" r="0.75" opacity="0.97"/><circle cx="186.1" cy="165" r="0.37" fill="#e2d4ff" opacity="0.64"/><circle cx="169.6" cy="130.7" r="0.8" fill="#ffe7c2" opacity="0.87"/><circle cx="166.3" cy="118.6" r="1.21" opacity="0.65"/><circle cx="216" cy="139.7" r="0.61" fill="#cfe8ff" opacity="0.92"/><circle cx="349.3" cy="40.9" r="0.42" opacity="0.94"/><circle cx="257.4" cy="146.6" r="0.5" opacity="0.94"/><circle cx="82.1" cy="45.8" r="0.54" opacity="0.72"/><circle cx="14.5" cy="73.9" r="0.46" opacity="0.46"/></g><g class="hl"><rect x="20" y="55" width="174" height="20" rx="10" fill="#fff" fill-opacity=".07" stroke="#fff" stroke-opacity=".2"/></g><circle cx="31" cy="66" r="4.2" fill="#f0c24a"/><text class="mono" x="42" y="70" font-size="11.5" fill="#c3cae6">AIA 171 Å</text><text class="sans" x="186" y="70" font-size="11.5" fill="#8f98bd" text-anchor="end">600,000 K</text><circle cx="31" cy="85" r="4.2" fill="#c98a3a"/><text class="mono" x="42" y="89" font-size="11.5" fill="#c3cae6">AIA 193 Å</text><text class="sans" x="186" y="89" font-size="11.5" fill="#8f98bd" text-anchor="end">1.6 million K</text><circle cx="31" cy="104" r="4.2" fill="#ff5a2a"/><text class="mono" x="42" y="108" font-size="11.5" fill="#c3cae6">AIA 304 Å</text><text class="sans" x="186" y="108" font-size="11.5" fill="#8f98bd" text-anchor="end">50,000 K</text><circle cx="31" cy="123" r="4.2" fill="#2fb3b8"/><text class="mono" x="42" y="127" font-size="11.5" fill="#c3cae6">AIA 131 Å</text><text class="sans" x="186" y="127" font-size="11.5" fill="#8f98bd" text-anchor="end">10 million K</text><circle cx="31" cy="142" r="4.2" fill="#bdbab3"/><text class="mono" x="42" y="146" font-size="11.5" fill="#c3cae6">HMI 6173 Å</text><text class="sans" x="186" y="146" font-size="11.5" fill="#8f98bd" text-anchor="end">5,800 K</text><g class="ch0" style="opacity:1"><circle cx="294" cy="104" r="93.0" fill="url(#cr0)"/><circle cx="294" cy="104" r="60" fill="url(#sd0)"/><g clip-path="url(#sdc)"><rect x="234" y="44" width="120" height="120" filter="url(#tex)" opacity=".5"/></g><path d="M258 88Q272 72 286 88M263.6 90Q272 78 280.4 90M300.8 116Q312 103.2 323.2 116M305.3 118Q312 108 318.7 118M279.6 130Q288 120.4 296.4 130M283 132Q288 124 293 132M321 80Q328 72 335 80M323.8 82Q328 75 332.2 82" fill="none" stroke="#ffe9a0" stroke-width="2.2" stroke-linecap="round" opacity=".9"/><circle cx="294" cy="104" r="59" fill="none" stroke="#ffe9a0" stroke-opacity=".45" stroke-width="2"/></g><g class="ch1" style="opacity:0"><circle cx="294" cy="104" r="93.0" fill="url(#cr1)"/><circle cx="294" cy="104" r="60" fill="url(#sd1)"/><g clip-path="url(#sdc)"><rect x="234" y="44" width="120" height="120" filter="url(#tex)" opacity=".5"/></g><path d="M258 88Q272 72 286 88M263.6 90Q272 78 280.4 90M300.8 116Q312 103.2 323.2 116M305.3 118Q312 108 318.7 118M279.6 130Q288 120.4 296.4 130M283 132Q288 124 293 132M321 80Q328 72 335 80M323.8 82Q328 75 332.2 82" fill="none" stroke="#f6d3a2" stroke-width="2.2" stroke-linecap="round" opacity=".9"/><circle cx="294" cy="104" r="59" fill="none" stroke="#f6d3a2" stroke-opacity=".45" stroke-width="2"/></g><g class="ch2" style="opacity:0"><circle cx="294" cy="104" r="93.0" fill="url(#cr2)"/><circle cx="294" cy="104" r="60" fill="url(#sd2)"/><g clip-path="url(#sdc)"><rect x="234" y="44" width="120" height="120" filter="url(#tex)" opacity=".5"/></g><path d="M258 88Q272 72 286 88M263.6 90Q272 78 280.4 90M300.8 116Q312 103.2 323.2 116M305.3 118Q312 108 318.7 118M279.6 130Q288 120.4 296.4 130M283 132Q288 124 293 132M321 80Q328 72 335 80M323.8 82Q328 75 332.2 82" fill="none" stroke="#ffb08a" stroke-width="2.2" stroke-linecap="round" opacity=".9"/><circle cx="294" cy="104" r="59" fill="none" stroke="#ffb08a" stroke-opacity=".45" stroke-width="2"/><path d="M238 78C208 60 212 100 235 96" fill="none" stroke="#ffb08a" stroke-width="3.5" stroke-linecap="round" opacity=".85"/></g><g class="ch3" style="opacity:0"><circle cx="294" cy="104" r="93.0" fill="url(#cr3)"/><circle cx="294" cy="104" r="60" fill="url(#sd3)"/><g clip-path="url(#sdc)"><rect x="234" y="44" width="120" height="120" filter="url(#tex)" opacity=".5"/></g><path d="M258 88Q272 72 286 88M263.6 90Q272 78 280.4 90M300.8 116Q312 103.2 323.2 116M305.3 118Q312 108 318.7 118M279.6 130Q288 120.4 296.4 130M283 132Q288 124 293 132M321 80Q328 72 335 80M323.8 82Q328 75 332.2 82" fill="none" stroke="#b6fbff" stroke-width="2.2" stroke-linecap="round" opacity=".9"/><circle cx="294" cy="104" r="59" fill="none" stroke="#b6fbff" stroke-opacity=".45" stroke-width="2"/></g><g class="ch4" style="opacity:0"><circle cx="294" cy="104" r="60" fill="url(#sd4)"/><g transform="translate(272 89)"><ellipse rx="5" ry="3.8" fill="#6d6a64"/><ellipse rx="2.4" ry="1.9" fill="#1f1d1a"/></g><g transform="translate(312 117)"><ellipse rx="4" ry="3" fill="#6d6a64"/><ellipse rx="1.9" ry="1.5" fill="#1f1d1a"/></g><g transform="translate(288 131)"><ellipse rx="3" ry="2.3" fill="#6d6a64"/><ellipse rx="1.4" ry="1.1" fill="#1f1d1a"/></g><g transform="translate(328 81)"><ellipse rx="2.5" ry="1.9" fill="#6d6a64"/><ellipse rx="1.2" ry="0.9" fill="#1f1d1a"/></g></g><rect y="150" width="400" height="100" fill="url(#scr)"/></g><g transform="translate(14 14)"><rect width="98.1" height="25" rx="12.5" fill="#04050a" fill-opacity=".88"/><rect width="98.1" height="25" rx="12.5" fill="#7cc8ff" fill-opacity=".14" stroke="#7cc8ff" stroke-opacity=".6"/><circle cx="12.5" cy="12.5" r="3.4" fill="#7cc8ff"/><text class="sans" x="21.5" y="17" font-size="12" font-weight="700" letter-spacing="1.5" fill="#7cc8ff">EXPLORE</text></g><g transform="translate(119.1 14)"><rect width="58" height="25" rx="12.5" fill="#04050a" fill-opacity=".88"/><rect width="58" height="25" rx="12.5" fill="#ff4f9a" fill-opacity=".12" stroke="#ff4f9a" stroke-opacity=".5"/><circle class="live" cx="13" cy="12.5" r="3.4" fill="#ff4f9a"/><text class="sans" x="22" y="17" font-size="12" font-weight="700" letter-spacing="1.2" fill="#ff4f9a">LIVE</text></g><text class="mono" x="384" y="31" text-anchor="end" font-size="11" fill="#5d6589">solar-observatory.html</text><text class="sans" x="20" y="212" font-size="24" font-weight="700" letter-spacing="-.2" fill="#e9edff">Solar observatory</text><text class="sans" x="20" y="236" font-size="15" fill="#8f98bd">Today's real Sun from SDO, SOHO and GOES</text><g transform="translate(312 192)"><rect width="72" height="27" rx="13.5" fill="#04050a" fill-opacity=".6" stroke="#7cc8ff" stroke-opacity=".55"/><text class="sans" x="13" y="18.5" font-size="13" font-weight="600" fill="#7cc8ff">Open</text><path d="M51 17.5L59 9.5M53.5 9.5H59V15" fill="none" stroke="#7cc8ff" stroke-width="1.7" stroke-linecap="round" stroke-linejoin="round"/></g><rect x=".5" y=".5" width="399" height="249" rx="17.5" fill="none" stroke="#96aaff" stroke-opacity=".2"/><path class="beam rm-hide" d="M18 0.8H382A17.2 17.2 0 0 1 399.2 18V232A17.2 17.2 0 0 1 382 249.2H18A17.2 17.2 0 0 1 0.8 232V18A17.2 17.2 0 0 1 18 0.8Z" pathLength="100" fill="none" stroke="#7cc8ff" stroke-width="1.5" stroke-dasharray="9 91" stroke-linecap="round" opacity=".85"/></svg>
