<svg xmlns="http://www.w3.org/2000/svg" xmlns:xlink="http://www.w3.org/1999/xlink" viewBox="0 0 1000 40" width="1000" height="40" role="img" aria-labelledby="cot cod"><title id="cot">Comet divider</title><desc id="cod">A comet crosses the strip heading toward the Sun's glow at the right, its straight blue ion tail and curved yellow dust tail pointing away from the Sun.</desc><style>*{transform-origin:0 0}.sans{font-family:"Segoe UI", -apple-system, BlinkMacSystemFont, "Helvetica Neue", Arial, sans-serif}.mono{font-family:ui-monospace, SFMono-Regular, Menlo, Consolas, monospace}.serif{font-family:Georgia, "Times New Roman", Times, serif}@keyframes tw{0%{opacity:1}50%{opacity:0.25}100%{opacity:1}}.t0{animation:tw 2.4s ease-in-out infinite}.t1{animation:tw 3.5s ease-in-out -0.73s infinite}.t2{animation:tw 4.6s ease-in-out -1.46s infinite}@keyframes cm{0%{transform:translate(-160px,16px)}100%{transform:translate(1180px,24px)}}.cm{animation:cm 13s linear infinite}@keyframes fl{0%{opacity:.75}50%{opacity:1}100%{opacity:.75}}.ion{animation:fl 0.8s ease-in-out infinite}@media (prefers-reduced-motion:reduce){*{animation:none!important}.rm-hide{display:none}}</style><defs><linearGradient id="fd" x1="0" y1="0" x2="1" y2="0"><stop offset="0" stop-color="#fff" stop-opacity="0"/><stop offset=".22" stop-color="#fff"/><stop offset=".78" stop-color="#fff"/><stop offset="1" stop-color="#fff" stop-opacity="0"/></linearGradient><mask id="fm" maskUnits="userSpaceOnUse" x="0" y="0" width="1000" height="40"><rect width="1000" height="40" fill="url(#fd)"/></mask><clipPath id="cl"><rect width="1000" height="40" rx="20"/></clipPath><linearGradient id="ion" x1="1" y1="0" x2="0" y2="0"><stop offset="0" stop-color="#bfe3ff" stop-opacity=".9"/><stop offset="1" stop-color="#7cc8ff" stop-opacity="0"/></linearGradient><linearGradient id="dust" x1="1" y1="0" x2="0" y2="0"><stop offset="0" stop-color="#fff3c4" stop-opacity=".8"/><stop offset="1" stop-color="#ffc24b" stop-opacity="0"/></linearGradient><radialGradient id="sun" cx="1" cy=".5" r="1"><stop offset="0" stop-color="#ffc24b" stop-opacity=".35"/><stop offset="1" stop-color="#ffc24b" stop-opacity="0"/></radialGradient></defs><g mask="url(#fm)"><g clip-path="url(#cl)"><rect width="1000" height="40" fill="#070a16"/><g class="t0" fill="#fff"><circle cx="423.7" cy="21.2" r="0.31" opacity="0.52"/><circle cx="421.2" cy="20.5" r="0.71" opacity="0.85"/><circle cx="238" cy="21.8" r="0.96" opacity="0.96"/><circle cx="449.3" cy="1.4" r="0.59" fill="#cfe8ff" opacity="0.37"/><circle cx="749" cy="13.8" r="1.06" fill="#cfe8ff" opacity="0.67"/><circle cx="75.9" cy="18.6" r="0.32" fill="#ffe7c2" opacity="0.97"/><circle cx="91.7" cy="22.3" r="0.61" fill="#e2d4ff" opacity="0.71"/><circle cx="964.9" cy="29.1" r="0.43" opacity="0.97"/><circle cx="988.3" cy="10.9" r="0.37" opacity="0.86"/><circle cx="992" cy="28.8" r="0.32" fill="#e2d4ff" opacity="0.54"/><circle cx="462.7" cy="4.8" r="0.53" fill="#ffe7c2" opacity="0.35"/><circle cx="259.3" cy="34" r="0.34" fill="#ffe7c2" opacity="0.38"/><circle cx="654.8" cy="6.8" r="1.06" opacity="0.99"/><circle cx="569.8" cy="30.8" r="0.82" opacity="0.56"/><circle cx="222.5" cy="23.5" r="1" opacity="0.7"/><circle cx="498.2" cy="0.7" r="0.93" fill="#cfe8ff" opacity="0.88"/><circle cx="390.5" cy="39" r="0.71" opacity="0.82"/><circle cx="602.4" cy="2.5" r="0.55" fill="#e2d4ff" opacity="0.65"/><circle cx="927.8" cy="16.9" r="0.65" opacity="0.43"/><circle cx="780.7" cy="5.6" r="0.98" opacity="0.98"/><circle cx="6.9" cy="36.8" r="0.97" opacity="0.78"/><circle cx="176.1" cy="8.7" r="0.3" opacity="0.52"/><circle cx="34.5" cy="6.7" r="0.36" opacity="0.44"/><circle cx="820.2" cy="26.8" r="0.31" fill="#cfe8ff" opacity="0.84"/><circle cx="357.8" cy="8.2" r="0.47" opacity="0.85"/><circle cx="711.1" cy="5.9" r="0.59" fill="#cfe8ff" opacity="0.65"/></g><g class="t1" fill="#fff"><circle cx="924.9" cy="37.9" r="0.92" opacity="0.36"/><circle cx="221" cy="18.2" r="0.3" opacity="0.99"/><circle cx="783.1" cy="23.6" r="0.62" opacity="0.98"/><circle cx="565.5" cy="34.4" r="1.05" opacity="0.78"/><circle cx="573" cy="32.6" r="0.32" fill="#ffe7c2" opacity="0.73"/><circle cx="280.6" cy="23.6" r="0.31" opacity="0.7"/><circle cx="549" cy="10.3" r="0.31" opacity="0.81"/><circle cx="687.2" cy="38.9" r="0.8" opacity="0.7"/><circle cx="609.8" cy="2.1" r="0.35" opacity="0.76"/><circle cx="337.9" cy="27.5" r="0.31" fill="#e2d4ff" opacity="0.97"/><circle cx="749.2" cy="16.1" r="0.78" opacity="0.46"/><circle cx="456.8" cy="16.5" r="0.64" fill="#cfe8ff" opacity="0.58"/><circle cx="477.8" cy="22.2" r="0.34" opacity="0.8"/><circle cx="611" cy="5.6" r="0.7" fill="#ffe7c2" opacity="0.93"/><circle cx="744.8" cy="37" r="0.36" opacity="0.58"/><circle cx="161.8" cy="12.6" r="0.42" opacity="0.56"/><circle cx="472.5" cy="6.4" r="0.98" opacity="0.51"/><circle cx="918.8" cy="39.3" r="0.62" fill="#cfe8ff" opacity="0.99"/><circle cx="840.2" cy="15.7" r="0.4" opacity="0.83"/><circle cx="750.2" cy="24.3" r="0.5" opacity="0.9"/><circle cx="17.9" cy="5.8" r="0.3" fill="#e2d4ff" opacity="0.71"/><circle cx="809.6" cy="20.9" r="0.5" opacity="0.9"/><circle cx="656.8" cy="4" r="0.55" opacity="0.42"/></g><g class="t2" fill="#fff"><circle cx="675.7" cy="6.5" r="0.79" fill="#e2d4ff" opacity="0.56"/><circle cx="195.6" cy="4.6" r="0.3" opacity="0.72"/><circle cx="253.1" cy="16.9" r="0.94" fill="#ffe7c2" opacity="0.85"/><circle cx="892.3" cy="32.6" r="0.93" fill="#cfe8ff" opacity="0.4"/><circle cx="745.7" cy="21.8" r="0.42" opacity="0.85"/><circle cx="745.8" cy="38.2" r="0.42" opacity="0.66"/><circle cx="226.5" cy="2.5" r="0.92" fill="#cfe8ff" opacity="0.86"/><circle cx="273.7" cy="37.2" r="0.31" opacity="0.62"/><circle cx="217.3" cy="10.6" r="0.86" fill="#e2d4ff" opacity="0.59"/><circle cx="275.6" cy="14.5" r="0.31" opacity="0.47"/><circle cx="395.7" cy="27.2" r="0.35" opacity="0.76"/><circle cx="350.5" cy="6.4" r="0.33" fill="#cfe8ff" opacity="0.99"/><circle cx="831" cy="1.6" r="0.4" opacity="0.84"/><circle cx="35.1" cy="11.8" r="0.81" fill="#cfe8ff" opacity="0.88"/><circle cx="268.6" cy="11.4" r="0.47" fill="#e2d4ff" opacity="0.96"/><circle cx="295.2" cy="38.5" r="0.3" fill="#e2d4ff" opacity="0.45"/><circle cx="955.3" cy="23.3" r="0.83" opacity="0.82"/><circle cx="35.3" cy="10.6" r="0.51" fill="#cfe8ff" opacity="1"/><circle cx="600.1" cy="15.4" r="0.3" fill="#cfe8ff" opacity="0.87"/><circle cx="8.4" cy="19.9" r="0.44" opacity="0.79"/><circle cx="558.7" cy="31.7" r="0.37" opacity="0.85"/></g><rect x="760" width="240" height="40" fill="url(#sun)"/><g class="cm" style="transform:translate(560px,20px)"><path d="M0 0L-150 -5L-150 3Z" fill="url(#ion)" class="ion"/><path d="M0 0Q-60 6 -120 14L-118 6Q-60 2 0 -1Z" fill="url(#dust)"/><circle r="7" fill="#bfe3ff" opacity=".25"/><circle r="3" fill="#fff"/></g></g></g></svg>
