<svg xmlns="http://www.w3.org/2000/svg" xmlns:xlink="http://www.w3.org/1999/xlink" viewBox="0 0 1000 150" width="1000" height="150" role="img" aria-labelledby="obst obsd"><title id="obst">Observe the real sky · Cosmic Library</title><desc id="obsd">Section banner: Observe the real sky. Real Telescopes · Live Data. Today's Sun, every wavelength, real telescopes. Animation: The night sky wheels slowly around Polaris, with faint star trails, above an optical observatory dome whose slit glows and three radio dishes that nod.</desc><style>*{transform-origin:0 0}.sans{font-family:"Segoe UI", -apple-system, BlinkMacSystemFont, "Helvetica Neue", Arial, sans-serif}.mono{font-family:ui-monospace, SFMono-Regular, Menlo, Consolas, monospace}.serif{font-family:Georgia, "Times New Roman", Times, serif}@keyframes tw{0%{opacity:1}50%{opacity:0.25}100%{opacity:1}}.t0{animation:tw 2.6s ease-in-out infinite}.t1{animation:tw 3.7s ease-in-out -0.73s infinite}.t2{animation:tw 4.8s ease-in-out -1.46s infinite}@keyframes shm{0%{transform:translateX(0)}100%{transform:translateX(-1200px)}}.shm{animation:shm 12s linear infinite}@keyframes ebl{0%{transform:scaleX(.2)}50%{transform:scaleX(1)}100%{transform:scaleX(.2)}}.ebl{animation:ebl 6s ease-in-out infinite}@keyframes beam{0%{stroke-dashoffset:100}100%{stroke-dashoffset:0}}.beam{animation:beam 12s linear infinite}@keyframes sky{0%{transform:rotate(0)}100%{transform:rotate(-360deg)}}.sky{animation:sky 80s linear infinite}@keyframes ds{0%{transform:rotate(-40deg)}50%{transform:rotate(-8deg)}100%{transform:rotate(-40deg)}}.ds{animation:ds 9s ease-in-out infinite}.ds2{animation:ds 9s ease-in-out -3.5s infinite}@keyframes sl{0%{opacity:.35}50%{opacity:1}100%{opacity:.35}}.sl{animation:sl 3.2s ease-in-out infinite}@media (prefers-reduced-motion:reduce){*{animation:none!important}.rm-hide{display:none}}</style><defs><clipPath id="card"><rect width="1000" height="150" rx="18"/></clipPath><linearGradient id="cbg" x1="0" y1="0" x2="1" y2="1"><stop offset="0" stop-color="#0b1020"/><stop offset="1" stop-color="#04050a"/></linearGradient><radialGradient id="acc" cx=".82" cy=".2" r=".7"><stop offset="0" stop-color="#4ef0b8" stop-opacity=".15"/><stop offset=".7" stop-color="#4ef0b8" stop-opacity="0"/></radialGradient><radialGradient id="acc2" cx=".05" cy="1" r=".5"><stop offset="0" stop-color="#b18cff" stop-opacity=".10"/><stop offset="1" stop-color="#b18cff" stop-opacity="0"/></radialGradient><clipPath id="ttl"><text x="42" y="100" class="sans" font-size="46" font-weight="800" letter-spacing="-1">Observe the real sky</text></clipPath><linearGradient id="shim" gradientUnits="userSpaceOnUse" x1="0" y1="0" x2="1200" y2="0" spreadMethod="repeat"><stop offset="0" stop-color="#ffffff"/><stop offset=".2" stop-color="#4ef0b8"/><stop offset=".42" stop-color="#b18cff"/><stop offset=".6" stop-color="#4ef0b8"/><stop offset=".8" stop-color="#ffffff"/><stop offset="1" stop-color="#ffffff"/></linearGradient><linearGradient id="sfade" gradientUnits="userSpaceOnUse" x1="540" y1="0" x2="620" y2="0"><stop offset="0" stop-color="#fff" stop-opacity="0"/><stop offset="1" stop-color="#fff"/></linearGradient><mask id="smask" maskUnits="userSpaceOnUse" x="0" y="0" width="1000" height="150"><rect width="1000" height="150" fill="url(#sfade)"/></mask></defs><g clip-path="url(#card)"><rect width="1000" height="150" fill="url(#cbg)"/><rect width="1000" height="150" fill="url(#acc)"/><rect width="1000" height="150" fill="url(#acc2)"/><g class="t0" fill="#fff"><circle cx="41" cy="4.9" r="0.69" opacity="0.76"/><circle cx="454.5" cy="33.4" r="0.39" opacity="0.82"/><circle cx="217.5" cy="86.2" r="0.88" fill="#cfe8ff" opacity="0.49"/><circle cx="205.9" cy="29.2" r="0.4" opacity="0.73"/><circle cx="916.1" cy="41" r="0.7" fill="#e2d4ff" opacity="0.9"/><circle cx="211.2" cy="60.3" r="1" fill="#ffe7c2" opacity="0.7"/><circle cx="745.6" cy="94.8" r="0.35" fill="#cfe8ff" opacity="0.79"/><circle cx="276.4" cy="44.5" r="1.11" fill="#e2d4ff" opacity="0.71"/><circle cx="615.1" cy="138.9" r="0.52" opacity="0.43"/><circle cx="148.6" cy="11.2" r="0.46" opacity="0.94"/><circle cx="510.4" cy="143.8" r="0.6" fill="#ffe7c2" opacity="0.55"/><circle cx="698.1" cy="76" r="0.55" fill="#e2d4ff" opacity="0.45"/><circle cx="350.7" cy="141" r="0.44" opacity="0.79"/><circle cx="685.6" cy="81.7" r="0.55" opacity="0.51"/><circle cx="802.7" cy="147.5" r="1.12" opacity="0.66"/><circle cx="971.7" cy="57.9" r="0.36" opacity="0.76"/><circle cx="904.2" cy="93.5" r="0.48" opacity="0.45"/><circle cx="727.8" cy="125.5" r="0.94" fill="#e2d4ff" opacity="0.84"/><circle cx="193.1" cy="30" r="0.36" opacity="0.59"/><circle cx="326.9" cy="11.1" r="0.36" fill="#e2d4ff" opacity="0.42"/><circle cx="528.3" cy="52.4" r="1.01" opacity="0.86"/><circle cx="965.8" cy="100.7" r="0.4" opacity="0.61"/><circle cx="374" cy="69.5" r="1.06" fill="#ffe7c2" opacity="0.42"/><circle cx="181.8" cy="122.3" r="0.38" fill="#e2d4ff" opacity="0.69"/><circle cx="294.1" cy="21" r="0.36" opacity="0.99"/></g><g class="t1" fill="#fff"><circle cx="360.7" cy="29.5" r="0.99" fill="#e2d4ff" opacity="0.91"/><circle cx="62.2" cy="37.8" r="0.84" fill="#ffe7c2" opacity="0.85"/><circle cx="648.4" cy="124.8" r="1.07" fill="#cfe8ff" opacity="0.77"/><circle cx="167.1" cy="140.7" r="0.39" fill="#e2d4ff" opacity="0.42"/><circle cx="612.5" cy="99.3" r="0.35" opacity="0.65"/><circle cx="793.3" cy="37.5" r="0.61" opacity="0.67"/><circle cx="187.4" cy="25.5" r="0.77" opacity="0.57"/><circle cx="788" cy="2" r="0.7" opacity="0.49"/><circle cx="930.5" cy="21.7" r="0.81" opacity="0.69"/><circle cx="847.7" cy="53.5" r="0.38" opacity="0.72"/><circle cx="14.5" cy="98" r="0.39" fill="#ffe7c2" opacity="0.98"/><circle cx="222.3" cy="10.6" r="0.45" fill="#ffe7c2" opacity="0.76"/><circle cx="46.8" cy="83.8" r="0.41" opacity="0.76"/><circle cx="756.4" cy="111.5" r="0.53" opacity="0.47"/><circle cx="851.7" cy="60.6" r="1.1" fill="#e2d4ff" opacity="0.65"/><circle cx="25.8" cy="134.7" r="0.4" fill="#ffe7c2" opacity="0.4"/><circle cx="24.8" cy="65.5" r="0.67" opacity="0.45"/><circle cx="102.8" cy="108.3" r="1.1" fill="#cfe8ff" opacity="0.83"/></g><g class="t2" fill="#fff"><circle cx="723.3" cy="67.3" r="0.36" fill="#cfe8ff" opacity="0.5"/><circle cx="664.9" cy="101.2" r="1.14" opacity="0.39"/><circle cx="184.8" cy="41.2" r="0.46" opacity="0.7"/><circle cx="674.1" cy="105.6" r="0.35" fill="#cfe8ff" opacity="0.82"/><circle cx="494.7" cy="68.2" r="0.46" opacity="0.39"/><circle cx="347" cy="91" r="1.02" fill="#e2d4ff" opacity="0.56"/><circle cx="93.7" cy="92.2" r="0.63" opacity="0.84"/><circle cx="682" cy="25.5" r="1.12" fill="#ffe7c2" opacity="0.51"/><circle cx="651.7" cy="84.3" r="0.35" opacity="0.45"/><circle cx="582.4" cy="91.4" r="1.03" opacity="0.93"/><circle cx="280" cy="39.2" r="0.36" fill="#e2d4ff" opacity="0.87"/><circle cx="55.9" cy="90" r="0.91" opacity="0.39"/><circle cx="774" cy="36.9" r="0.35" opacity="0.61"/><circle cx="760.7" cy="35.9" r="0.35" opacity="0.67"/><circle cx="174.6" cy="8.7" r="0.8" opacity="0.6"/><circle cx="152.5" cy="63.5" r="0.86" fill="#ffe7c2" opacity="0.59"/><circle cx="221.4" cy="143.6" r="0.37" fill="#ffe7c2" opacity="0.71"/><circle cx="847.6" cy="91.7" r="1.13" fill="#cfe8ff" opacity="0.44"/><circle cx="68.8" cy="51.9" r="0.6" opacity="0.59"/></g><g mask="url(#smask)"><g transform="translate(820.01944 14)"><g class="sky"><g fill="#eaf4ff"><circle cx="-137" cy="-37" r="1.45" opacity="0.46"/><circle cx="82.2" cy="15.2" r="0.63" opacity="0.36"/><circle cx="-61.6" cy="-5.3" r="1.59" opacity="0.8"/><circle cx="-109.5" cy="74.4" r="1.26" opacity="0.56"/><circle cx="19.2" cy="-29.7" r="1.18" opacity="0.42"/><circle cx="28.4" cy="19.2" r="1.55" opacity="0.42"/><circle cx="207" cy="-40.1" r="0.54" opacity="0.6"/><circle cx="141.9" cy="-81.7" r="0.71" opacity="0.52"/><circle cx="86.5" cy="27.6" r="1.24" opacity="0.88"/><circle cx="146.5" cy="35.5" r="1.28" opacity="0.83"/><circle cx="-104.3" cy="193.5" r="1.41" opacity="0.76"/><circle cx="-193.2" cy="-50.3" r="0.76" opacity="0.65"/><circle cx="-106.9" cy="-241.9" r="0.88" opacity="0.88"/><circle cx="268.5" cy="75.5" r="0.67" opacity="0.5"/><circle cx="0.4" cy="-16.6" r="1.21" opacity="0.7"/><circle cx="-203.9" cy="257.3" r="0.72" opacity="0.42"/><circle cx="63.1" cy="-102.2" r="1.17" opacity="0.39"/><circle cx="143" cy="44.5" r="1.19" opacity="0.43"/><circle cx="-43.2" cy="-53.9" r="1.42" opacity="0.75"/><circle cx="-64.4" cy="-83.4" r="0.8" opacity="0.35"/><circle cx="-37.5" cy="-91.7" r="1.19" opacity="0.48"/><circle cx="135.6" cy="-244.2" r="0.81" opacity="0.97"/><circle cx="87.7" cy="37.9" r="1.06" opacity="0.91"/><circle cx="-194.2" cy="-58.2" r="1.04" opacity="0.53"/><circle cx="-88.1" cy="61.4" r="1.1" opacity="0.96"/><circle cx="-0.5" cy="35.1" r="1.54" opacity="0.78"/><circle cx="-33.3" cy="12.8" r="1.22" opacity="0.94"/><circle cx="31.7" cy="-22.3" r="1.35" opacity="0.53"/><circle cx="82.9" cy="-161.6" r="0.77" opacity="0.81"/><circle cx="170.4" cy="84.2" r="0.8" opacity="0.62"/><circle cx="52.9" cy="-19.5" r="0.78" opacity="0.5"/><circle cx="-198.9" cy="-34.8" r="0.85" opacity="0.56"/><circle cx="143" cy="-91.7" r="0.59" opacity="0.94"/><circle cx="-126.2" cy="-283.4" r="1.38" opacity="0.6"/><circle cx="-15.2" cy="-317.8" r="1.26" opacity="0.64"/><circle cx="-29.5" cy="-76.7" r="1.31" opacity="0.35"/><circle cx="-108.2" cy="-24.7" r="0.73" opacity="0.43"/><circle cx="71.4" cy="7" r="0.63" opacity="0.6"/><circle cx="-110.7" cy="-130.9" r="0.84" opacity="0.43"/><circle cx="-205.9" cy="-224.5" r="1.25" opacity="0.8"/><circle cx="-95.1" cy="-63.5" r="0.85" opacity="0.77"/><circle cx="270.7" cy="27.8" r="1.38" opacity="0.43"/><circle cx="15.2" cy="7.8" r="1.12" opacity="0.91"/><circle cx="167.8" cy="256.2" r="0.97" opacity="0.96"/><circle cx="135.7" cy="-261.1" r="0.77" opacity="0.53"/><circle cx="-5" cy="59.2" r="0.95" opacity="0.87"/><circle cx="104.5" cy="195.7" r="0.7" opacity="0.64"/><circle cx="-290.7" cy="51" r="1.37" opacity="0.8"/><circle cx="-291.1" cy="6.7" r="0.92" opacity="0.65"/><circle cx="-47.8" cy="262.7" r="0.71" opacity="0.89"/><circle cx="-103.8" cy="-127.9" r="0.69" opacity="0.38"/><circle cx="-75.5" cy="35.9" r="0.54" opacity="0.53"/><circle cx="-287.8" cy="120.1" r="0.51" opacity="0.87"/><circle cx="50.3" cy="95.5" r="1.2" opacity="0.78"/><circle cx="-28.3" cy="-111.6" r="1.46" opacity="0.57"/><circle cx="170" cy="5.8" r="1.15" opacity="0.54"/><circle cx="11.2" cy="-219.2" r="0.87" opacity="0.78"/><circle cx="151.9" cy="272.3" r="1.38" opacity="0.66"/><circle cx="279.8" cy="138.2" r="0.92" opacity="0.46"/><circle cx="72.8" cy="-60.1" r="1.08" opacity="0.58"/><circle cx="301" cy="103.1" r="0.52" opacity="0.85"/><circle cx="94.1" cy="-164.4" r="1.05" opacity="0.96"/><circle cx="15.5" cy="116.5" r="1.47" opacity="0.7"/><circle cx="21.5" cy="1.4" r="0.52" opacity="0.82"/><circle cx="163.1" cy="140.2" r="1.38" opacity="0.85"/><circle cx="-187.7" cy="-100" r="0.98" opacity="0.8"/><circle cx="121.6" cy="-60" r="1.15" opacity="0.79"/><circle cx="304.7" cy="-32.1" r="1.09" opacity="0.42"/><circle cx="156.1" cy="-87.5" r="0.73" opacity="0.52"/><circle cx="11" cy="98.9" r="1.39" opacity="0.7"/><circle cx="-39.1" cy="-2.8" r="1.27" opacity="0.37"/><circle cx="74.1" cy="6.5" r="1.27" opacity="0.61"/><circle cx="0.3" cy="16.4" r="0.71" opacity="0.72"/><circle cx="-129.8" cy="70.4" r="0.86" opacity="0.38"/><circle cx="-77.1" cy="-86.3" r="1.09" opacity="0.73"/><circle cx="60.4" cy="16.3" r="1.34" opacity="0.81"/><circle cx="215.2" cy="-51.7" r="0.84" opacity="0.83"/><circle cx="-84.3" cy="-60.4" r="1.5" opacity="0.65"/><circle cx="206.9" cy="-16.3" r="1.04" opacity="0.51"/><circle cx="-144.5" cy="-280.5" r="0.86" opacity="0.53"/><circle cx="16.3" cy="9.8" r="1.58" opacity="0.71"/><circle cx="15.6" cy="259" r="1.42" opacity="0.81"/><circle cx="-289" cy="27" r="1.51" opacity="0.72"/><circle cx="48.6" cy="-31.4" r="0.83" opacity="0.95"/><circle cx="-151.1" cy="109.7" r="1.07" opacity="0.59"/><circle cx="35.3" cy="10.4" r="0.59" opacity="0.94"/><circle cx="121.6" cy="17.4" r="0.94" opacity="0.76"/><circle cx="183.2" cy="-110" r="0.89" opacity="0.97"/><circle cx="8.6" cy="13.2" r="1.04" opacity="0.77"/><circle cx="31.3" cy="-141.4" r="1.1" opacity="0.35"/></g><g fill="none" stroke="#7cc8ff" stroke-opacity=".22" stroke-width="1.4"><circle r="40" stroke-dasharray="20 36"/><circle r="75" stroke-dasharray="37.5 67.5"/><circle r="110" stroke-dasharray="55 99"/><circle r="150" stroke-dasharray="75 135"/></g></g><path d="M0 -6L1.2 -1.2L6 0L1.2 1.2L0 6L-1.2 1.2L-6 0L-1.2 -1.2Z" fill="#fff6d8"/></g><path d="M530.01944 136Q690.01944 126 820.01944 133T1030.01944 132V160H530.01944Z" fill="#070912"/><path d="M530.01944 136Q690.01944 126 820.01944 133T1030.01944 132" fill="none" stroke="#4ef0b8" stroke-opacity=".35"/><rect x="680.01944" y="112" width="60" height="22" fill="#10152a" stroke="#96aaff" stroke-opacity=".3"/><path d="M680.01944 112A30 30 0 0 1 740.01944 112Z" fill="#1a2140" stroke="#cfd5e8" stroke-opacity=".7" stroke-width="1.4"/><path class="sl" d="M704.01944 83H716.01944V112H704.01944Z" fill="#ffc24b" opacity=".6"/><path d="M841.26944 136L850.01944 106.0L858.76944 136" fill="none" stroke="#8f98bd" stroke-width="2"/><g transform="translate(850.01944 106.0) scale(1.25)"><g class="ds" style="transform:rotate(-20deg)"><path d="M-24 -4Q0 18 24 -4" fill="#1b2236" stroke="#cfd5e8" stroke-width="2"/><path d="M-15 1L0 -20L15 1" fill="none" stroke="#8f98bd"/><circle cy="-20" r="2.3" fill="#4ef0b8"/></g></g><path d="M914.41944 136L920.01944 116.8L925.61944 136" fill="none" stroke="#8f98bd" stroke-width="2"/><g transform="translate(920.01944 116.8) scale(0.8)"><g class="ds2" style="transform:rotate(-20deg)"><path d="M-24 -4Q0 18 24 -4" fill="#1b2236" stroke="#cfd5e8" stroke-width="2"/><path d="M-15 1L0 -20L15 1" fill="none" stroke="#8f98bd"/><circle cy="-20" r="2.3" fill="#4ef0b8"/></g></g><path d="M964.41944 136L970.01944 116.8L975.61944 136" fill="none" stroke="#8f98bd" stroke-width="2"/><g transform="translate(970.01944 116.8) scale(0.8)"><g class="ds" style="transform:rotate(-20deg)"><path d="M-24 -4Q0 18 24 -4" fill="#1b2236" stroke="#cfd5e8" stroke-width="2"/><path d="M-15 1L0 -20L15 1" fill="none" stroke="#8f98bd"/><circle cy="-20" r="2.3" fill="#4ef0b8"/></g></g></g><g transform="translate(44 45)"><path class="ebl" d="M0 0H26" stroke="#4ef0b8" stroke-width="1.6" style="transform:scaleX(1)"/></g><text x="80" y="50" class="mono" font-size="13" font-weight="600" letter-spacing="2.6" fill="#4ef0b8">REAL TELESCOPES · LIVE DATA</text><text x="44" y="103" class="sans" font-size="46" font-weight="800" letter-spacing="-1" fill="#000" opacity=".5">Observe the real sky</text><g clip-path="url(#ttl)"><rect class="shm" x="0" y="54" width="2400" height="60" fill="url(#shim)"/></g><text x="44" y="128" class="sans" font-size="16" fill="#8f98bd">Today's Sun, every wavelength, real telescopes</text></g><rect x=".75" y=".75" width="998.5" height="148.5" rx="17.25" fill="none" stroke="#96aaff" stroke-opacity=".2" stroke-width="1.5"/><path class="beam rm-hide" d="M18 0.8H982A17.2 17.2 0 0 1 999.2 18V132A17.2 17.2 0 0 1 982 149.2H18A17.2 17.2 0 0 1 0.8 132V18A17.2 17.2 0 0 1 18 0.8Z" pathLength="100" fill="none" stroke="#4ef0b8" stroke-width="1.5" stroke-dasharray="7 93" stroke-linecap="round" opacity=".8"/></svg>
